%TF.GenerationSoftware,KiCad,Pcbnew,(6.0.9)*%
%TF.CreationDate,2023-04-16T13:38:52+02:00*%
%TF.ProjectId,iteMX_top,6974654d-585f-4746-9f70-2e6b69636164,v1.0.0*%
%TF.SameCoordinates,Original*%
%TF.FileFunction,Profile,NP*%
%FSLAX46Y46*%
G04 Gerber Fmt 4.6, Leading zero omitted, Abs format (unit mm)*
G04 Created by KiCad (PCBNEW (6.0.9)) date 2023-04-16 13:38:52*
%MOMM*%
%LPD*%
G01*
G04 APERTURE LIST*
%TA.AperFunction,Profile*%
%ADD10C,0.150000*%
%TD*%
G04 APERTURE END LIST*
D10*
X83000000Y-12000000D02*
X83000000Y2000000D01*
X102000000Y-6000000D02*
X88000000Y-6000000D01*
X102000000Y-20000000D02*
X102000000Y-6000000D01*
X88000000Y-20000000D02*
X102000000Y-20000000D01*
X88000000Y-6000000D02*
X88000000Y-20000000D01*
X88000000Y2000000D02*
X102000000Y2000000D01*
X102000000Y21000000D02*
X102000000Y35000000D01*
X-10500000Y-10000000D02*
X-10500000Y48000000D01*
X-10000000Y48500000D02*
X8000000Y48500000D01*
X8500000Y49000000D02*
X8500000Y50000000D01*
X9000000Y50500000D02*
X27000000Y50500000D01*
X27500000Y51000000D02*
X27500000Y62000000D01*
X28000000Y62500000D02*
X46000000Y62500000D01*
X46500000Y63000000D02*
X46500000Y68000000D01*
X47000000Y68500000D02*
X67399029Y68500000D01*
X67593058Y68460818D02*
X86194029Y60628830D01*
X86500000Y60168012D02*
X86500000Y58000000D01*
X87000000Y57500000D02*
X105000000Y57500000D01*
X105500000Y57000000D02*
X105500000Y31000000D01*
X106000000Y30500000D02*
X125995952Y30500000D01*
X126495935Y29995968D02*
X126004000Y-31004032D01*
X125504016Y-31500000D02*
X103600971Y-31500000D01*
X103406942Y-31460818D02*
X65617732Y-15549571D01*
X65372918Y-15512975D02*
X52449769Y-16832393D01*
X52250554Y-16896795D02*
X34589746Y-27093267D01*
X33906733Y-26910254D02*
X23421090Y-8748587D01*
X22988020Y-8498587D02*
X10999943Y-8499943D01*
X10500000Y-8999943D02*
X10500000Y-10000000D01*
X10000000Y-10500000D02*
X-10000000Y-10500000D01*
X-10000000Y48500000D02*
G75*
G03*
X-10500000Y48000000I0J-500000D01*
G01*
X8000000Y48500000D02*
G75*
G03*
X8500000Y49000000I0J500000D01*
G01*
X9000000Y50500000D02*
G75*
G03*
X8500000Y50000000I0J-500000D01*
G01*
X27000000Y50500000D02*
G75*
G03*
X27500000Y51000000I0J500000D01*
G01*
X28000000Y62500000D02*
G75*
G03*
X27500000Y62000000I0J-500000D01*
G01*
X46000000Y62500000D02*
G75*
G03*
X46500000Y63000000I0J500000D01*
G01*
X47000000Y68500000D02*
G75*
G03*
X46500000Y68000000I0J-500000D01*
G01*
X67593058Y68460818D02*
G75*
G03*
X67399029Y68500000I-194029J-460818D01*
G01*
X86500000Y60168012D02*
G75*
G03*
X86194028Y60628830I-500000J0D01*
G01*
X86500000Y58000000D02*
G75*
G03*
X87000000Y57500000I500000J0D01*
G01*
X105500000Y57000000D02*
G75*
G03*
X105000000Y57500000I-500000J0D01*
G01*
X105500000Y31000000D02*
G75*
G03*
X106000000Y30500000I500000J0D01*
G01*
X126495935Y29995968D02*
G75*
G03*
X125995952Y30499999I-499983J4032D01*
G01*
X125504016Y-31500000D02*
G75*
G03*
X126004000Y-31004032I0J500000D01*
G01*
X103406942Y-31460818D02*
G75*
G03*
X103600971Y-31500000I194029J460818D01*
G01*
X65617732Y-15549571D02*
G75*
G03*
X65372919Y-15512974I-194029J-460818D01*
G01*
X52449769Y-16832394D02*
G75*
G03*
X52250554Y-16896795I50785J-497413D01*
G01*
X33906733Y-26910254D02*
G75*
G03*
X34589746Y-27093267I433013J250000D01*
G01*
X23421090Y-8748587D02*
G75*
G03*
X22988021Y-8498587I-433013J-250000D01*
G01*
X10999943Y-8499943D02*
G75*
G03*
X10500000Y-8999943I57J-500000D01*
G01*
X10000000Y-10500000D02*
G75*
G03*
X10500000Y-10000000I0J500000D01*
G01*
X-10500000Y-10000000D02*
G75*
G03*
X-10000000Y-10500000I500000J0D01*
G01*
X-7000000Y-7000000D02*
X7000000Y-7000000D01*
X7000000Y-7000000D02*
X7000000Y7000000D01*
X7000000Y7000000D02*
X-7000000Y7000000D01*
X-7000000Y7000000D02*
X-7000000Y-7000000D01*
X-7000000Y12000000D02*
X7000000Y12000000D01*
X7000000Y12000000D02*
X7000000Y26000000D01*
X7000000Y26000000D02*
X-7000000Y26000000D01*
X-7000000Y26000000D02*
X-7000000Y12000000D01*
X-7000000Y31000000D02*
X7000000Y31000000D01*
X7000000Y31000000D02*
X7000000Y45000000D01*
X7000000Y45000000D02*
X-7000000Y45000000D01*
X-7000000Y45000000D02*
X-7000000Y31000000D01*
X12000000Y-5000000D02*
X26000000Y-5000000D01*
X26000000Y-5000000D02*
X26000000Y9000000D01*
X26000000Y9000000D02*
X12000000Y9000000D01*
X12000000Y9000000D02*
X12000000Y-5000000D01*
X12000000Y14000000D02*
X26000000Y14000000D01*
X26000000Y14000000D02*
X26000000Y28000000D01*
X26000000Y28000000D02*
X12000000Y28000000D01*
X12000000Y28000000D02*
X12000000Y14000000D01*
X12000000Y33000000D02*
X26000000Y33000000D01*
X26000000Y33000000D02*
X26000000Y47000000D01*
X26000000Y47000000D02*
X12000000Y47000000D01*
X12000000Y47000000D02*
X12000000Y33000000D01*
X31000000Y7000000D02*
X45000000Y7000000D01*
X45000000Y7000000D02*
X45000000Y21000000D01*
X45000000Y21000000D02*
X31000000Y21000000D01*
X31000000Y21000000D02*
X31000000Y7000000D01*
X31000000Y26000000D02*
X45000000Y26000000D01*
X45000000Y26000000D02*
X45000000Y40000000D01*
X45000000Y40000000D02*
X31000000Y40000000D01*
X31000000Y40000000D02*
X31000000Y26000000D01*
X31000000Y45000000D02*
X45000000Y45000000D01*
X45000000Y45000000D02*
X45000000Y59000000D01*
X45000000Y59000000D02*
X31000000Y59000000D01*
X31000000Y59000000D02*
X31000000Y45000000D01*
X50000000Y13000000D02*
X64000000Y13000000D01*
X64000000Y13000000D02*
X64000000Y27000000D01*
X64000000Y27000000D02*
X50000000Y27000000D01*
X50000000Y27000000D02*
X50000000Y13000000D01*
X50000000Y32000000D02*
X64000000Y32000000D01*
X64000000Y32000000D02*
X64000000Y46000000D01*
X64000000Y46000000D02*
X50000000Y46000000D01*
X50000000Y46000000D02*
X50000000Y32000000D01*
X50000000Y51000000D02*
X64000000Y51000000D01*
X64000000Y51000000D02*
X64000000Y65000000D01*
X64000000Y65000000D02*
X50000000Y65000000D01*
X50000000Y65000000D02*
X50000000Y51000000D01*
X69000000Y5000000D02*
X83000000Y5000000D01*
X83000000Y5000000D02*
X83000000Y19000000D01*
X83000000Y19000000D02*
X69000000Y19000000D01*
X69000000Y19000000D02*
X69000000Y5000000D01*
X69000000Y24000000D02*
X83000000Y24000000D01*
X83000000Y24000000D02*
X83000000Y38000000D01*
X83000000Y38000000D02*
X69000000Y38000000D01*
X69000000Y38000000D02*
X69000000Y24000000D01*
X69000000Y43000000D02*
X83000000Y43000000D01*
X83000000Y43000000D02*
X83000000Y57000000D01*
X83000000Y57000000D02*
X69000000Y57000000D01*
X69000000Y57000000D02*
X69000000Y43000000D01*
X102000000Y2000000D02*
X102000000Y16000000D01*
X102000000Y16000000D02*
X88000000Y16000000D01*
X88000000Y16000000D02*
X88000000Y2000000D01*
X88000000Y21000000D02*
X102000000Y21000000D01*
X102000000Y35000000D02*
X88000000Y35000000D01*
X88000000Y35000000D02*
X88000000Y21000000D01*
X88000000Y40000000D02*
X102000000Y40000000D01*
X102000000Y40000000D02*
X102000000Y54000000D01*
X102000000Y54000000D02*
X88000000Y54000000D01*
X88000000Y54000000D02*
X88000000Y40000000D01*
X35437822Y-22562178D02*
X47562178Y-15562178D01*
X47562178Y-15562178D02*
X40562178Y-3437822D01*
X40562178Y-3437822D02*
X28437822Y-10437822D01*
X28437822Y-10437822D02*
X35437822Y-22562178D01*
X50000000Y-7500000D02*
X64000000Y-7500000D01*
X64000000Y-7500000D02*
X64000000Y6500000D01*
X64000000Y6500000D02*
X50000000Y6500000D01*
X50000000Y6500000D02*
X50000000Y-7500000D01*
X69000000Y-12000000D02*
X83000000Y-12000000D01*
X83000000Y2000000D02*
X69000000Y2000000D01*
X69000000Y2000000D02*
X69000000Y-12000000D01*
X107000000Y-28000000D02*
X121000000Y-28000000D01*
X121000000Y-28000000D02*
X121000000Y-14000000D01*
X121000000Y-14000000D02*
X107000000Y-14000000D01*
X107000000Y-14000000D02*
X107000000Y-28000000D01*
M02*
