%TF.GenerationSoftware,KiCad,Pcbnew,(6.0.9)*%
%TF.CreationDate,2023-04-16T18:35:51+02:00*%
%TF.ProjectId,iteMX_pcb,6974654d-585f-4706-9362-2e6b69636164,v1.0.0*%
%TF.SameCoordinates,Original*%
%TF.FileFunction,Paste,Top*%
%TF.FilePolarity,Positive*%
%FSLAX46Y46*%
G04 Gerber Fmt 4.6, Leading zero omitted, Abs format (unit mm)*
G04 Created by KiCad (PCBNEW (6.0.9)) date 2023-04-16 18:35:51*
%MOMM*%
%LPD*%
G01*
G04 APERTURE LIST*
G04 Aperture macros list*
%AMRotRect*
0 Rectangle, with rotation*
0 The origin of the aperture is its center*
0 $1 length*
0 $2 width*
0 $3 Rotation angle, in degrees counterclockwise*
0 Add horizontal line*
21,1,$1,$2,0,0,$3*%
G04 Aperture macros list end*
%ADD10R,2.550000X2.500000*%
%ADD11RotRect,1.000000X2.730000X337.200000*%
%ADD12RotRect,0.700000X1.500000X337.200000*%
%ADD13RotRect,0.900000X1.200000X120.000000*%
%ADD14R,1.200000X0.900000*%
%ADD15RotRect,1.050000X1.400000X67.200000*%
%ADD16RotRect,2.550000X2.500000X210.000000*%
%ADD17R,1.500000X0.800000*%
G04 APERTURE END LIST*
D10*
%TO.C,S3*%
X7085000Y40540000D03*
X-5842000Y43080000D03*
%TD*%
D11*
%TO.C,*%
X75436491Y63556113D03*
X68706890Y66384977D03*
D12*
X73520045Y62609826D03*
X70754455Y63772372D03*
X69371661Y64353646D03*
%TD*%
D10*
%TO.C,S2*%
X7085000Y21540000D03*
X-5842000Y24080000D03*
%TD*%
%TO.C,S1*%
X7085000Y2540000D03*
X-5842000Y5080000D03*
%TD*%
%TO.C,S8*%
X45085000Y35540000D03*
X32158000Y38080000D03*
%TD*%
D13*
%TO.C,D19*%
X43423076Y-16393044D03*
X43423076Y-16393044D03*
X41773076Y-13535160D03*
%TD*%
D10*
%TO.C,S22*%
X102085000Y-10460000D03*
X89158000Y-7920000D03*
%TD*%
%TO.C,S10*%
X64085000Y22540000D03*
X51158000Y25080000D03*
%TD*%
D14*
%TO.C,D18*%
X98000000Y41350000D03*
X98000000Y41350000D03*
X98000000Y44650000D03*
%TD*%
D10*
%TO.C,S5*%
X26085000Y23540000D03*
X13158000Y26080000D03*
%TD*%
D14*
%TO.C,D15*%
X79000000Y44350000D03*
X79000000Y44350000D03*
X79000000Y47650000D03*
%TD*%
%TO.C,D10*%
X60000000Y14350000D03*
X60000000Y14350000D03*
X60000000Y17650000D03*
%TD*%
%TO.C,D20*%
X60000000Y-6150000D03*
X60000000Y-6150000D03*
X60000000Y-2850000D03*
%TD*%
D10*
%TO.C,S4*%
X26085000Y4540000D03*
X13158000Y7080000D03*
%TD*%
%TO.C,S20*%
X64085000Y2040000D03*
X51158000Y4580000D03*
%TD*%
D14*
%TO.C,D3*%
X3000000Y32350000D03*
X3000000Y32350000D03*
X3000000Y35650000D03*
%TD*%
%TO.C,D1*%
X3000000Y-5650000D03*
X3000000Y-5650000D03*
X3000000Y-2350000D03*
%TD*%
%TO.C,D9*%
X41000000Y46350000D03*
X41000000Y46350000D03*
X41000000Y49650000D03*
%TD*%
D10*
%TO.C,S6*%
X26085000Y42540000D03*
X13158000Y45080000D03*
%TD*%
D14*
%TO.C,D8*%
X41000000Y27350000D03*
X41000000Y27350000D03*
X41000000Y30650000D03*
%TD*%
D10*
%TO.C,S14*%
X83085000Y33540000D03*
X70158000Y36080000D03*
%TD*%
%TO.C,S13*%
X83085000Y14540000D03*
X70158000Y17080000D03*
%TD*%
%TO.C,S15*%
X83085000Y52540000D03*
X70158000Y55080000D03*
%TD*%
%TO.C,S11*%
X64085000Y41540000D03*
X51158000Y44080000D03*
%TD*%
D14*
%TO.C,D13*%
X79000000Y6350000D03*
X79000000Y6350000D03*
X79000000Y9650000D03*
%TD*%
D15*
%TO.C,REF\u002A\u002A*%
X80940302Y61970823D03*
X77621595Y63365879D03*
X77059698Y62029177D03*
X80378405Y60634121D03*
%TD*%
D14*
%TO.C,D23*%
X117000000Y-26650000D03*
X117000000Y-26650000D03*
X117000000Y-23350000D03*
%TD*%
%TO.C,D5*%
X22000000Y15350000D03*
X22000000Y15350000D03*
X22000000Y18650000D03*
%TD*%
D10*
%TO.C,S21*%
X83085000Y-2460000D03*
X70158000Y80000D03*
%TD*%
D14*
%TO.C,D12*%
X60000000Y52350000D03*
X60000000Y52350000D03*
X60000000Y55650000D03*
%TD*%
D10*
%TO.C,S12*%
X64085000Y60540000D03*
X51158000Y63080000D03*
%TD*%
%TO.C,S16*%
X102085000Y11540000D03*
X89158000Y14080000D03*
%TD*%
D14*
%TO.C,D21*%
X79000000Y-10650000D03*
X79000000Y-10650000D03*
X79000000Y-7350000D03*
%TD*%
%TO.C,D17*%
X98000000Y22350000D03*
X98000000Y22350000D03*
X98000000Y25650000D03*
%TD*%
%TO.C,D16*%
X98000000Y3350000D03*
X98000000Y3350000D03*
X98000000Y6650000D03*
%TD*%
D10*
%TO.C,S18*%
X102085000Y49540000D03*
X89158000Y52080000D03*
%TD*%
D16*
%TO.C,S19*%
X42865790Y-7257795D03*
X30400680Y-11521591D03*
%TD*%
D14*
%TO.C,D11*%
X60000000Y33350000D03*
X60000000Y33350000D03*
X60000000Y36650000D03*
%TD*%
D10*
%TO.C,S7*%
X45085000Y16540000D03*
X32158000Y19080000D03*
%TD*%
D14*
%TO.C,D14*%
X79000000Y25350000D03*
X79000000Y25350000D03*
X79000000Y28650000D03*
%TD*%
%TO.C,D4*%
X22000000Y-3650000D03*
X22000000Y-3650000D03*
X22000000Y-350000D03*
%TD*%
D17*
%TO.C,D25*%
X104500000Y48800000D03*
X104500000Y51200000D03*
%TD*%
D14*
%TO.C,D7*%
X41000000Y8350000D03*
X41000000Y8350000D03*
X41000000Y11650000D03*
%TD*%
D10*
%TO.C,S9*%
X45085000Y54540000D03*
X32158000Y57080000D03*
%TD*%
D14*
%TO.C,D2*%
X3000000Y13350000D03*
X3000000Y13350000D03*
X3000000Y16650000D03*
%TD*%
%TO.C,D6*%
X22000000Y34350000D03*
X22000000Y34350000D03*
X22000000Y37650000D03*
%TD*%
D10*
%TO.C,S23*%
X121085000Y-18460000D03*
X108158000Y-15920000D03*
%TD*%
D14*
%TO.C,D22*%
X98000000Y-18650000D03*
X98000000Y-18650000D03*
X98000000Y-15350000D03*
%TD*%
D10*
%TO.C,S17*%
X102085000Y30540000D03*
X89158000Y33080000D03*
%TD*%
M02*
