M48
; DRILL file {KiCad (6.0.9)} date Sun Apr 16 18:35:49 2023
; FORMAT={-:-/ absolute / inch / decimal}
; #@! TF.CreationDate,2023-04-16T18:35:49+02:00
; #@! TF.GenerationSoftware,Kicad,Pcbnew,(6.0.9)
; #@! TF.FileFunction,Plated,1,2,PTH
FMAT,2
INCH
; #@! TA.AperFunction,Plated,PTH,ComponentDrill
T1C0.0118
; #@! TA.AperFunction,Plated,PTH,ComponentDrill
T2C0.0157
; #@! TA.AperFunction,Plated,PTH,ComponentDrill
T3C0.0400
; #@! TA.AperFunction,Plated,PTH,ComponentDrill
T4C0.0433
%
G90
G05
T1
X0.0Y1.752
X0.1181Y1.4035
X0.1181Y1.2736
X0.1181Y0.6555
X0.1181Y0.5256
X0.1181Y-0.0925
X0.1181Y-0.2224
X0.2953Y1.4862
X0.2953Y1.3878
X0.2953Y0.7382
X0.2953Y0.6398
X0.2953Y-0.0098
X0.2953Y-0.1083
X0.8661Y1.4823
X0.8661Y1.3524
X0.8661Y0.7343
X0.8661Y0.6043
X0.8661Y-0.0138
X0.8661Y-0.1437
X1.0433Y1.565
X1.0433Y1.4665
X1.0433Y0.8169
X1.0433Y0.7185
X1.0433Y0.0689
X1.0433Y-0.0295
X1.6142Y1.9547
X1.6142Y1.8248
X1.6142Y1.2067
X1.6142Y1.0768
X1.6142Y0.4587
X1.6142Y0.3287
X1.6446Y-0.5329
X1.7096Y-0.6454
X1.778Y2.037
X1.778Y1.9386
X1.7913Y1.2894
X1.7913Y1.1909
X1.7913Y0.5413
X1.7913Y0.4429
X2.3622Y2.1909
X2.3622Y2.061
X2.3622Y1.4429
X2.3622Y1.313
X2.3622Y0.6949
X2.3622Y0.565
X2.3622Y-0.1122
X2.3622Y-0.2421
X2.5394Y2.0965
X2.5394Y1.998
X2.5394Y1.3484
X2.5394Y1.25
X2.5394Y0.6004
X2.5394Y0.502
X2.8346Y2.5512
X2.8346Y2.5512
X2.851Y2.5891
X3.1102Y1.876
X3.1102Y1.7461
X3.1102Y1.128
X3.1102Y0.998
X3.1102Y0.3799
X3.1102Y0.25
X3.1102Y-0.2894
X3.1102Y-0.4193
X3.1645Y2.3872
X3.1866Y2.4398
X3.2874Y1.8602
X3.2874Y1.7618
X3.318Y1.0435
X3.318Y0.9451
X3.318Y0.2955
X3.318Y0.197
X3.7402Y2.1063
X3.8583Y1.7579
X3.8583Y1.628
X3.8583Y1.0098
X3.8583Y0.8799
X3.8583Y0.2618
X3.8583Y0.1319
X3.8583Y-0.6043
X3.8583Y-0.7343
X4.1142Y2.0157
X4.1142Y1.9685
X4.1142Y1.9213
X4.6063Y-0.9193
X4.6063Y-1.0492
T2
X4.5226Y2.0128
X4.5231Y1.6839
X4.5231Y1.5839
X4.5231Y1.4839
X4.5231Y1.3839
X4.5232Y1.8551
X4.5254Y1.7648
X4.5826Y2.0128
X4.5831Y1.6839
X4.5831Y1.5839
X4.5831Y1.4839
X4.5831Y1.3839
X4.5832Y1.8551
X4.5854Y1.7707
T3
X4.3768Y1.7713
X4.3768Y1.6961
X4.4972Y1.9332
X4.5972Y1.9332
X4.7298Y1.7717
X4.7298Y1.6965
T4
X4.2543Y1.9843
X4.2543Y1.8843
X4.2543Y1.7843
X4.2543Y1.6843
X4.2543Y1.5843
X4.2543Y1.4843
X4.2543Y1.3843
X4.8543Y1.9843
X4.8543Y1.8843
X4.8543Y1.7843
X4.8543Y1.6843
X4.8543Y1.5843
X4.8543Y1.4843
X4.8543Y1.3843
T0
M30
