M48
; DRILL file {KiCad (6.0.9)} date Sun Apr 16 18:35:49 2023
; FORMAT={-:-/ absolute / inch / decimal}
; #@! TF.CreationDate,2023-04-16T18:35:49+02:00
; #@! TF.GenerationSoftware,Kicad,Pcbnew,(6.0.9)
; #@! TF.FileFunction,NonPlated,1,2,NPTH
FMAT,2
INCH
; #@! TA.AperFunction,NonPlated,NPTH,ComponentDrill
T1C0.0354
; #@! TA.AperFunction,NonPlated,NPTH,ComponentDrill
T2C0.0670
; #@! TA.AperFunction,NonPlated,NPTH,ComponentDrill
T3C0.1181
; #@! TA.AperFunction,NonPlated,NPTH,ComponentDrill
T4C0.1260
; #@! TA.AperFunction,NonPlated,NPTH,ComponentDrill
T5C0.1570
%
G90
G05
T1
X2.7852Y2.586
X2.7852Y2.586
X2.8941Y2.5403
X2.8941Y2.5403
X3.0965Y2.4083
X3.0965Y2.4083
X3.124Y2.4736
X3.124Y2.4736
T2
X-0.2Y1.4961
X-0.2Y0.748
X-0.2Y0.0
X0.2Y1.4961
X0.2Y0.748
X0.2Y0.0
X0.548Y1.5748
X0.548Y0.8268
X0.548Y0.0787
X0.948Y1.5748
X0.948Y0.8268
X0.948Y0.0787
X1.2961Y2.0472
X1.2961Y1.2992
X1.2961Y0.5512
X1.3229Y-0.6118
X1.6693Y-0.4118
X1.6961Y2.0472
X1.6961Y1.2992
X1.6961Y0.5512
X2.0441Y2.2835
X2.0441Y1.5354
X2.0441Y0.7874
X2.0441Y-0.0197
X2.4441Y2.2835
X2.4441Y1.5354
X2.4441Y0.7874
X2.4441Y-0.0197
X2.7921Y1.9685
X2.7921Y1.2205
X2.7921Y0.4724
X2.7921Y-0.1969
X3.1921Y1.9685
X3.1921Y1.2205
X3.1921Y0.4724
X3.1921Y-0.1969
X3.5402Y1.8504
X3.5402Y1.1024
X3.5402Y0.3543
X3.5402Y-0.5118
X3.9402Y1.8504
X3.9402Y1.1024
X3.9402Y0.3543
X3.9402Y-0.5118
X4.2882Y-0.8268
X4.6882Y-0.8268
T3
X-0.15Y1.5961
X-0.15Y0.848
X-0.15Y0.1
X-0.1Y1.6961
X-0.1Y0.948
X-0.1Y0.2
X0.1Y1.6961
X0.1Y0.948
X0.1Y0.2
X0.15Y1.5961
X0.15Y0.848
X0.15Y0.1
X0.598Y1.6748
X0.598Y0.9268
X0.598Y0.1787
X0.648Y1.7748
X0.648Y1.0268
X0.648Y0.2787
X0.848Y1.7748
X0.848Y1.0268
X0.848Y0.2787
X0.898Y1.6748
X0.898Y0.9268
X0.898Y0.1787
X1.3095Y-0.3886
X1.3162Y-0.5002
X1.3461Y2.1472
X1.3461Y1.3992
X1.3461Y0.6512
X1.3961Y2.2472
X1.3961Y1.4992
X1.3961Y0.7512
X1.4827Y-0.2886
X1.576Y-0.3502
X1.5961Y2.2472
X1.5961Y1.4992
X1.5961Y0.7512
X1.6461Y2.1472
X1.6461Y1.3992
X1.6461Y0.6512
X2.0941Y2.3835
X2.0941Y1.6354
X2.0941Y0.8874
X2.0941Y0.0803
X2.1441Y2.4835
X2.1441Y1.7354
X2.1441Y0.9874
X2.1441Y0.1803
X2.3441Y2.4835
X2.3441Y1.7354
X2.3441Y0.9874
X2.3441Y0.1803
X2.3941Y2.3835
X2.3941Y1.6354
X2.3941Y0.8874
X2.3941Y0.0803
X2.8421Y2.0685
X2.8421Y1.3205
X2.8421Y0.5724
X2.8421Y-0.0969
X2.8921Y2.1685
X2.8921Y1.4205
X2.8921Y0.6724
X2.8921Y0.0031
X3.0921Y2.1685
X3.0921Y1.4205
X3.0921Y0.6724
X3.0921Y0.0031
X3.1421Y2.0685
X3.1421Y1.3205
X3.1421Y0.5724
X3.1421Y-0.0969
X3.5902Y1.9504
X3.5902Y1.2024
X3.5902Y0.4543
X3.5902Y-0.4118
X3.6402Y2.0504
X3.6402Y1.3024
X3.6402Y0.5543
X3.6402Y-0.3118
X3.8402Y2.0504
X3.8402Y1.3024
X3.8402Y0.5543
X3.8402Y-0.3118
X3.8902Y1.9504
X3.8902Y1.2024
X3.8902Y0.4543
X3.8902Y-0.4118
X4.3382Y-0.7268
X4.3882Y-0.6268
X4.5882Y-0.6268
X4.6382Y-0.7268
T4
X0.374Y1.1614
X0.374Y0.4134
X1.8701Y1.9094
X2.2441Y0.3839
X3.3661Y1.5354
X4.1142Y-0.8858
T5
X0.0Y1.4961
X0.0Y0.748
X0.0Y0.0
X0.748Y1.5748
X0.748Y0.8268
X0.748Y0.0787
X1.4961Y2.0472
X1.4961Y1.2992
X1.4961Y0.5512
X1.4961Y-0.5118
X2.2441Y2.2835
X2.2441Y1.5354
X2.2441Y0.7874
X2.2441Y-0.0197
X2.9921Y1.9685
X2.9921Y1.2205
X2.9921Y0.4724
X2.9921Y-0.1969
X3.7402Y1.8504
X3.7402Y1.1024
X3.7402Y0.3543
X3.7402Y-0.5118
X4.4882Y-0.8268
T0
M30
