%TF.GenerationSoftware,KiCad,Pcbnew,(6.0.9)*%
%TF.CreationDate,2023-04-16T18:35:51+02:00*%
%TF.ProjectId,iteMX_pcb,6974654d-585f-4706-9362-2e6b69636164,v1.0.0*%
%TF.SameCoordinates,Original*%
%TF.FileFunction,Copper,L2,Bot*%
%TF.FilePolarity,Positive*%
%FSLAX46Y46*%
G04 Gerber Fmt 4.6, Leading zero omitted, Abs format (unit mm)*
G04 Created by KiCad (PCBNEW (6.0.9)) date 2023-04-16 18:35:51*
%MOMM*%
%LPD*%
G01*
G04 APERTURE LIST*
G04 Aperture macros list*
%AMRotRect*
0 Rectangle, with rotation*
0 The origin of the aperture is its center*
0 $1 length*
0 $2 width*
0 $3 Rotation angle, in degrees counterclockwise*
0 Add horizontal line*
21,1,$1,$2,0,0,$3*%
%AMFreePoly0*
4,1,5,0.125000,-0.500000,-0.125000,-0.500000,-0.125000,0.500000,0.125000,0.500000,0.125000,-0.500000,0.125000,-0.500000,$1*%
%AMFreePoly1*
4,1,6,0.600000,0.200000,0.000000,-0.400000,-0.600000,0.200000,-0.600000,0.400000,0.600000,0.400000,0.600000,0.200000,0.600000,0.200000,$1*%
%AMFreePoly2*
4,1,49,0.088388,4.152388,0.850389,3.390388,0.863708,3.372551,0.867189,3.369530,0.867982,3.366827,0.871852,3.361644,0.878333,3.331543,0.887000,3.302000,0.887000,0.762000,0.883805,0.739969,0.884131,0.735371,0.882780,0.732898,0.881852,0.726498,0.865154,0.700638,0.850389,0.673612,0.088388,-0.088388,0.064607,-0.106146,0.062500,-0.108253,0.061385,-0.108552,0.059644,-0.109852,
0.043810,-0.113261,0.000000,-0.125000,-0.004774,-0.123721,-0.009154,-0.124664,-0.028953,-0.117242,-0.062500,-0.108253,-0.068237,-0.102516,-0.075052,-0.099961,-0.087614,-0.083139,-0.108253,-0.062500,-0.111178,-0.051584,-0.117161,-0.043572,-0.118539,-0.024114,-0.125000,0.000000,-0.121239,0.014035,-0.122131,0.026629,-0.113759,0.041953,-0.108253,0.062500,-0.095642,0.075111,-0.088388,0.088388,
0.637000,0.813777,0.637000,3.250223,-0.088388,3.975612,-0.109852,4.004356,-0.124664,4.073154,-0.099961,4.139052,-0.043572,4.181161,0.026629,4.186131,0.088388,4.152388,0.088388,4.152388,$1*%
%AMFreePoly3*
4,1,49,0.075053,4.163961,0.117161,4.107572,0.122131,4.037371,0.088389,3.975612,-0.637000,3.250224,-0.637000,0.813776,0.088389,0.088388,0.106147,0.064606,0.108253,0.062500,0.108552,0.061385,0.109852,0.059644,0.113262,0.043806,0.125000,0.000000,0.123721,-0.004772,0.124665,-0.009154,0.117240,-0.028961,0.108253,-0.062500,0.102516,-0.068237,0.099961,-0.075053,0.083136,-0.087617,
0.062500,-0.108253,0.051584,-0.111178,0.043572,-0.117161,0.024114,-0.118539,0.000000,-0.125000,-0.014036,-0.121239,-0.026629,-0.122131,-0.041951,-0.113759,-0.062500,-0.108253,-0.075109,-0.095644,-0.088388,-0.088389,-0.850388,0.673612,-0.863707,0.691448,-0.867189,0.694470,-0.867982,0.697174,-0.871852,0.702356,-0.878331,0.732451,-0.887000,0.762000,-0.887000,3.302000,-0.883805,3.324031,
-0.884131,3.328629,-0.882780,3.331102,-0.881852,3.337502,-0.865151,3.363368,-0.850388,3.390388,-0.088388,4.152389,-0.059644,4.173852,0.009154,4.188665,0.075053,4.163961,0.075053,4.163961,$1*%
%AMFreePoly4*
4,1,49,-0.311612,4.552388,0.850388,3.390388,0.863708,3.372550,0.867189,3.369530,0.867982,3.366828,0.871852,3.361645,0.878332,3.331547,0.887000,3.302000,0.887000,0.762000,0.883805,0.739969,0.884131,0.735371,0.882780,0.732898,0.881852,0.726498,0.865154,0.700638,0.850389,0.673612,0.088388,-0.088388,0.064607,-0.106146,0.062500,-0.108253,0.061385,-0.108552,0.059644,-0.109852,
0.043810,-0.113261,0.000000,-0.125000,-0.004774,-0.123721,-0.009154,-0.124664,-0.028953,-0.117242,-0.062500,-0.108253,-0.068237,-0.102516,-0.075052,-0.099961,-0.087614,-0.083139,-0.108253,-0.062500,-0.111178,-0.051584,-0.117161,-0.043572,-0.118539,-0.024114,-0.125000,0.000000,-0.121239,0.014035,-0.122131,0.026629,-0.113759,0.041953,-0.108253,0.062500,-0.095642,0.075111,-0.088388,0.088388,
0.637000,0.813777,0.637000,3.250224,-0.488388,4.375612,-0.509852,4.404356,-0.524664,4.473154,-0.499961,4.539052,-0.443572,4.581161,-0.373371,4.586131,-0.311612,4.552388,-0.311612,4.552388,$1*%
%AMFreePoly5*
4,1,6,0.600000,-0.250000,-0.600000,-0.250000,-0.600000,1.000000,0.000000,0.400000,0.600000,1.000000,0.600000,-0.250000,0.600000,-0.250000,$1*%
%AMFreePoly6*
4,1,41,0.814035,4.113655,0.867189,4.067530,0.887000,4.000000,0.887000,0.762000,0.883805,0.739969,0.884131,0.735371,0.882780,0.732898,0.881852,0.726498,0.865154,0.700638,0.850389,0.673612,0.088388,-0.088388,0.064607,-0.106146,0.062500,-0.108253,0.061385,-0.108552,0.059644,-0.109852,0.043810,-0.113261,0.000000,-0.125000,-0.004774,-0.123721,-0.009154,-0.124664,-0.028953,-0.117242,
-0.062500,-0.108253,-0.068237,-0.102516,-0.075052,-0.099961,-0.087614,-0.083139,-0.108253,-0.062500,-0.111178,-0.051584,-0.117161,-0.043572,-0.118539,-0.024114,-0.125000,0.000000,-0.121239,0.014035,-0.122131,0.026629,-0.113759,0.041953,-0.108253,0.062500,-0.095642,0.075111,-0.088388,0.088388,0.637000,0.813777,0.637000,4.000000,0.642148,4.035502,0.680322,4.094624,0.744387,4.123753,
0.814035,4.113655,0.814035,4.113655,$1*%
%AMFreePoly7*
4,1,49,0.088388,4.152388,0.854389,3.386388,0.867708,3.368551,0.871189,3.365530,0.871982,3.362827,0.875852,3.357644,0.882333,3.327543,0.891000,3.298000,0.891000,0.766000,0.887805,0.743969,0.888131,0.739371,0.886780,0.736898,0.885852,0.730498,0.869154,0.704638,0.854389,0.677612,0.088388,-0.088388,0.064607,-0.106146,0.062500,-0.108253,0.061385,-0.108552,0.059644,-0.109852,
0.043810,-0.113261,0.000000,-0.125000,-0.004774,-0.123721,-0.009154,-0.124664,-0.028953,-0.117242,-0.062500,-0.108253,-0.068237,-0.102516,-0.075052,-0.099961,-0.087614,-0.083139,-0.108253,-0.062500,-0.111178,-0.051584,-0.117161,-0.043572,-0.118539,-0.024114,-0.125000,0.000000,-0.121239,0.014035,-0.122131,0.026629,-0.113759,0.041953,-0.108253,0.062500,-0.095642,0.075111,-0.088388,0.088388,
0.641000,0.817777,0.641000,3.246223,-0.088388,3.975612,-0.109852,4.004356,-0.124664,4.073154,-0.099961,4.139052,-0.043572,4.181161,0.026629,4.186131,0.088388,4.152388,0.088388,4.152388,$1*%
%AMFreePoly8*
4,1,49,-0.911612,4.152388,0.854388,2.386388,0.867708,2.368550,0.871189,2.365530,0.871982,2.362828,0.875852,2.357645,0.882332,2.327547,0.891000,2.298000,0.891000,0.766000,0.887805,0.743969,0.888131,0.739371,0.886780,0.736898,0.885852,0.730498,0.869154,0.704638,0.854389,0.677612,0.088388,-0.088388,0.064607,-0.106146,0.062500,-0.108253,0.061385,-0.108552,0.059644,-0.109852,
0.043810,-0.113261,0.000000,-0.125000,-0.004774,-0.123721,-0.009154,-0.124664,-0.028953,-0.117242,-0.062500,-0.108253,-0.068237,-0.102516,-0.075052,-0.099961,-0.087614,-0.083139,-0.108253,-0.062500,-0.111178,-0.051584,-0.117161,-0.043572,-0.118539,-0.024114,-0.125000,0.000000,-0.121239,0.014035,-0.122131,0.026629,-0.113759,0.041953,-0.108253,0.062500,-0.095642,0.075111,-0.088388,0.088388,
0.641000,0.817777,0.641000,2.246224,-1.088388,3.975612,-1.109852,4.004356,-1.124664,4.073154,-1.099961,4.139052,-1.043572,4.181161,-0.973371,4.186131,-0.911612,4.152388,-0.911612,4.152388,$1*%
%AMFreePoly9*
4,1,41,0.818035,4.113655,0.871189,4.067530,0.891000,4.000000,0.891000,0.766000,0.887805,0.743969,0.888131,0.739371,0.886780,0.736898,0.885852,0.730498,0.869154,0.704638,0.854389,0.677612,0.088388,-0.088388,0.064607,-0.106146,0.062500,-0.108253,0.061385,-0.108552,0.059644,-0.109852,0.043810,-0.113261,0.000000,-0.125000,-0.004774,-0.123721,-0.009154,-0.124664,-0.028953,-0.117242,
-0.062500,-0.108253,-0.068237,-0.102516,-0.075052,-0.099961,-0.087614,-0.083139,-0.108253,-0.062500,-0.111178,-0.051584,-0.117161,-0.043572,-0.118539,-0.024114,-0.125000,0.000000,-0.121239,0.014035,-0.122131,0.026629,-0.113759,0.041953,-0.108253,0.062500,-0.095642,0.075111,-0.088388,0.088388,0.641000,0.817777,0.641000,4.000000,0.646148,4.035502,0.684322,4.094624,0.748387,4.123753,
0.818035,4.113655,0.818035,4.113655,$1*%
%AMFreePoly10*
4,1,29,3.035502,0.119852,3.094624,0.081678,3.123753,0.017613,3.113655,-0.052035,3.067530,-0.105190,3.000000,-0.125000,0.000000,-0.125000,-0.035502,-0.119853,-0.047057,-0.112391,-0.062500,-0.108253,-0.078963,-0.091790,-0.094624,-0.081678,-0.099251,-0.071502,-0.108253,-0.062500,-0.115298,-0.036209,-0.123753,-0.017614,-0.122534,-0.009204,-0.125000,0.000000,-0.116718,0.030909,-0.113655,0.052035,
-0.109897,0.056367,-0.108253,0.062500,-0.080431,0.090322,-0.067530,0.105189,-0.064748,0.106005,-0.062500,0.108253,0.000000,0.125000,3.000000,0.125000,3.035502,0.119852,3.035502,0.119852,$1*%
G04 Aperture macros list end*
%TA.AperFunction,SMDPad,CuDef*%
%ADD10R,2.550000X2.500000*%
%TD*%
%TA.AperFunction,WasherPad*%
%ADD11C,3.500000*%
%TD*%
%TA.AperFunction,SMDPad,CuDef*%
%ADD12RotRect,1.000000X2.730000X337.200000*%
%TD*%
%TA.AperFunction,SMDPad,CuDef*%
%ADD13RotRect,0.700000X1.500000X337.200000*%
%TD*%
%TA.AperFunction,ComponentPad*%
%ADD14C,0.600000*%
%TD*%
%TA.AperFunction,ComponentPad*%
%ADD15C,0.400000*%
%TD*%
%TA.AperFunction,SMDPad,CuDef*%
%ADD16RotRect,0.900000X1.200000X120.000000*%
%TD*%
%TA.AperFunction,SMDPad,CuDef*%
%ADD17R,1.200000X0.900000*%
%TD*%
%TA.AperFunction,SMDPad,CuDef*%
%ADD18FreePoly0,90.000000*%
%TD*%
%TA.AperFunction,SMDPad,CuDef*%
%ADD19FreePoly1,90.000000*%
%TD*%
%TA.AperFunction,ComponentPad*%
%ADD20O,2.600000X1.800000*%
%TD*%
%TA.AperFunction,SMDPad,CuDef*%
%ADD21FreePoly1,270.000000*%
%TD*%
%TA.AperFunction,SMDPad,CuDef*%
%ADD22FreePoly2,90.000000*%
%TD*%
%TA.AperFunction,SMDPad,CuDef*%
%ADD23FreePoly3,90.000000*%
%TD*%
%TA.AperFunction,SMDPad,CuDef*%
%ADD24FreePoly0,270.000000*%
%TD*%
%TA.AperFunction,ComponentPad*%
%ADD25C,0.800000*%
%TD*%
%TA.AperFunction,SMDPad,CuDef*%
%ADD26FreePoly4,90.000000*%
%TD*%
%TA.AperFunction,SMDPad,CuDef*%
%ADD27FreePoly5,90.000000*%
%TD*%
%TA.AperFunction,SMDPad,CuDef*%
%ADD28FreePoly6,90.000000*%
%TD*%
%TA.AperFunction,ComponentPad*%
%ADD29C,1.200000*%
%TD*%
%TA.AperFunction,SMDPad,CuDef*%
%ADD30FreePoly5,270.000000*%
%TD*%
%TA.AperFunction,SMDPad,CuDef*%
%ADD31FreePoly7,270.000000*%
%TD*%
%TA.AperFunction,SMDPad,CuDef*%
%ADD32FreePoly8,270.000000*%
%TD*%
%TA.AperFunction,SMDPad,CuDef*%
%ADD33FreePoly9,270.000000*%
%TD*%
%TA.AperFunction,SMDPad,CuDef*%
%ADD34FreePoly10,337.200000*%
%TD*%
%TA.AperFunction,SMDPad,CuDef*%
%ADD35RotRect,1.050000X1.400000X67.200000*%
%TD*%
%TA.AperFunction,SMDPad,CuDef*%
%ADD36RotRect,2.550000X2.500000X210.000000*%
%TD*%
%TA.AperFunction,SMDPad,CuDef*%
%ADD37R,1.500000X0.800000*%
%TD*%
%TA.AperFunction,Conductor*%
%ADD38C,0.250000*%
%TD*%
G04 APERTURE END LIST*
D10*
%TO.P,S3,1*%
%TO.N,outer_top*%
X-7085000Y40540000D03*
%TO.P,S3,2*%
%TO.N,col_1*%
X5842000Y43080000D03*
%TD*%
D11*
%TO.P,,*%
%TO.N,*%
X104500000Y-22500000D03*
%TD*%
D12*
%TO.P,,*%
%TO.N,*%
X75436491Y63556113D03*
X68706890Y66384977D03*
D13*
%TO.P,,1*%
%TO.N,pos*%
X69371661Y64353646D03*
D14*
X72000000Y64800000D03*
X72000000Y64800000D03*
%TO.P,,2*%
%TO.N,RAW*%
X72416110Y65764081D03*
D13*
X72137250Y63191099D03*
%TO.P,,3*%
%TO.N,N/C*%
X73520045Y62609826D03*
%TD*%
D14*
%TO.P,,1*%
%TO.N,col_5*%
X84278000Y7505000D03*
X84278000Y5005000D03*
%TD*%
D10*
%TO.P,S2,1*%
%TO.N,outer_home*%
X-7085000Y21540000D03*
%TO.P,S2,2*%
%TO.N,col_1*%
X5842000Y24080000D03*
%TD*%
%TO.P,S1,1*%
%TO.N,outer_bottom*%
X-7085000Y2540000D03*
%TO.P,S1,2*%
%TO.N,col_1*%
X5842000Y5080000D03*
%TD*%
D14*
%TO.P,,1*%
%TO.N,col_4*%
X64500000Y50750000D03*
X64500000Y53250000D03*
%TD*%
%TO.P,,1*%
%TO.N,col_2*%
X26500000Y-750000D03*
X26500000Y1750000D03*
%TD*%
D10*
%TO.P,S8,1*%
%TO.N,ring_home*%
X30915000Y35540000D03*
%TO.P,S8,2*%
%TO.N,col_3*%
X43842000Y38080000D03*
%TD*%
D14*
%TO.P,,1*%
%TO.N,col_1*%
X7500000Y37750000D03*
X7500000Y35250000D03*
%TD*%
D15*
%TO.P,D19,1*%
%TO.N,row_4*%
X43423076Y-16393044D03*
D16*
X43423076Y-16393044D03*
D15*
%TO.P,D19,2*%
%TO.N,alt_first*%
X41773076Y-13535160D03*
D16*
X41773076Y-13535160D03*
%TD*%
D10*
%TO.P,S22,1*%
%TO.N,e_first*%
X87915000Y-10460000D03*
%TO.P,S22,2*%
%TO.N,col_5*%
X100842000Y-7920000D03*
%TD*%
%TO.P,S10,1*%
%TO.N,middle_bottom*%
X49915000Y22540000D03*
%TO.P,S10,2*%
%TO.N,col_4*%
X62842000Y25080000D03*
%TD*%
D15*
%TO.P,D18,1*%
%TO.N,row_1*%
X98000000Y41350000D03*
D17*
X98000000Y41350000D03*
%TO.P,D18,2*%
%TO.N,inner_top*%
X98000000Y44650000D03*
D15*
X98000000Y44650000D03*
%TD*%
D10*
%TO.P,S5,1*%
%TO.N,pinkie_home*%
X11915000Y23540000D03*
%TO.P,S5,2*%
%TO.N,col_2*%
X24842000Y26080000D03*
%TD*%
D17*
%TO.P,D15,1*%
%TO.N,row_1*%
X79000000Y44350000D03*
D15*
X79000000Y44350000D03*
%TO.P,D15,2*%
%TO.N,index_top*%
X79000000Y47650000D03*
D17*
X79000000Y47650000D03*
%TD*%
D14*
%TO.P,,1*%
%TO.N,col_3*%
X45500000Y32750000D03*
X45500000Y30250000D03*
%TD*%
D17*
%TO.P,D10,1*%
%TO.N,row_3*%
X60000000Y14350000D03*
D15*
X60000000Y14350000D03*
%TO.P,D10,2*%
%TO.N,middle_bottom*%
X60000000Y17650000D03*
D17*
X60000000Y17650000D03*
%TD*%
D14*
%TO.P,,1*%
%TO.N,col_2*%
X26500000Y39750000D03*
X26500000Y37250000D03*
%TD*%
D11*
%TO.P,,*%
%TO.N,*%
X9500000Y29500000D03*
%TD*%
D17*
%TO.P,D20,1*%
%TO.N,row_4*%
X60000000Y-6150000D03*
D15*
X60000000Y-6150000D03*
%TO.P,D20,2*%
%TO.N,ctrl_first*%
X60000000Y-2850000D03*
D17*
X60000000Y-2850000D03*
%TD*%
D18*
%TO.P,REF\u002A\u002A,*%
%TO.N,*%
X109280000Y35152000D03*
D19*
X109788000Y47852000D03*
D20*
X123530000Y50400000D03*
D21*
X121472000Y37692000D03*
D18*
X109280000Y47852000D03*
D22*
X112808000Y45200000D03*
D20*
X107830000Y40240000D03*
X107830000Y35160000D03*
D23*
X122658000Y42887000D03*
D24*
X121980000Y47852000D03*
D20*
X107830000Y42780000D03*
D21*
X121472000Y50392000D03*
D20*
X123530000Y40240000D03*
X123530000Y35160000D03*
X123530000Y45320000D03*
D19*
X112738000Y42772000D03*
D20*
X107830000Y45320000D03*
X107830000Y50400000D03*
X123530000Y47860000D03*
D24*
X121980000Y40232000D03*
D20*
X123530000Y42780000D03*
D21*
X118546000Y42718000D03*
D18*
X109280000Y40232000D03*
D24*
X121980000Y37692000D03*
D19*
X109788000Y35152000D03*
D21*
X121472000Y35152000D03*
D20*
X123530000Y37700000D03*
D23*
X112758000Y42862000D03*
D18*
X109280000Y50392000D03*
X109280000Y37692000D03*
D21*
X118603000Y44921000D03*
X121472000Y40232000D03*
D22*
X122708000Y45225000D03*
D19*
X109788000Y37692000D03*
X112795000Y44975000D03*
D24*
X121980000Y50392000D03*
D19*
X109788000Y50392000D03*
D20*
X107830000Y47860000D03*
D19*
X109788000Y40232000D03*
D20*
X107830000Y37700000D03*
D24*
X121980000Y35152000D03*
D21*
X121472000Y47852000D03*
D25*
%TO.P,REF\u002A\u002A,1*%
%TO.N,5V*%
X114875000Y51125000D03*
D26*
X114875000Y51125000D03*
D27*
X110804000Y50392000D03*
D28*
%TO.P,REF\u002A\u002A,2*%
%TO.N,GND*%
X114890000Y47120000D03*
D29*
X120138100Y45000000D03*
X111171900Y44990000D03*
D27*
X110804000Y47852000D03*
D25*
X114890000Y47120000D03*
D27*
%TO.P,REF\u002A\u002A,3*%
%TO.N,3V3*%
X113811000Y44975000D03*
D25*
X114945000Y44825000D03*
D24*
X114307000Y44825000D03*
D27*
%TO.P,REF\u002A\u002A,4*%
%TO.N,col_4*%
X113754000Y42772000D03*
D24*
X114200000Y42750000D03*
D25*
X114888000Y42772000D03*
D27*
%TO.P,REF\u002A\u002A,5*%
%TO.N,col_1*%
X110804000Y40232000D03*
D22*
X114888000Y40232000D03*
D25*
X114888000Y40232000D03*
D27*
%TO.P,REF\u002A\u002A,6*%
%TO.N,col_6*%
X110804000Y37692000D03*
D25*
X114888000Y37692000D03*
D22*
X114888000Y37692000D03*
D27*
%TO.P,REF\u002A\u002A,7*%
%TO.N,row_4*%
X110804000Y35152000D03*
D25*
X114888000Y35152000D03*
D22*
X114888000Y35152000D03*
D30*
%TO.P,REF\u002A\u002A,8*%
%TO.N,row_3*%
X120456000Y35152000D03*
D31*
X116412000Y35152000D03*
D25*
X116412000Y35152000D03*
D31*
%TO.P,REF\u002A\u002A,9*%
%TO.N,row_2*%
X116412000Y37692000D03*
D30*
X120456000Y37692000D03*
D25*
X116412000Y37692000D03*
%TO.P,REF\u002A\u002A,10*%
%TO.N,col_5*%
X116412000Y40232000D03*
D30*
X120456000Y40232000D03*
D31*
X116412000Y40232000D03*
D24*
%TO.P,REF\u002A\u002A,11*%
%TO.N,row_1*%
X117240000Y42760000D03*
D25*
X116412000Y42772000D03*
D30*
X117530000Y42718000D03*
%TO.P,REF\u002A\u002A,12*%
%TO.N,N/C*%
X117587000Y44921000D03*
D25*
X116469000Y44975000D03*
D24*
X117247000Y44933000D03*
D30*
%TO.P,REF\u002A\u002A,13*%
%TO.N,col_3*%
X120456000Y47852000D03*
D25*
X116414000Y47120000D03*
D32*
X116414000Y47120000D03*
D30*
%TO.P,REF\u002A\u002A,14*%
%TO.N,col_2*%
X120456000Y50392000D03*
D25*
X116399000Y51125000D03*
D33*
X116399000Y51125000D03*
D29*
%TO.P,REF\u002A\u002A,15*%
%TO.N,RAW*%
X120138100Y43091000D03*
X111171900Y43081000D03*
%TO.P,REF\u002A\u002A,16*%
%TO.N,RST*%
X114230000Y49104000D03*
%TO.P,REF\u002A\u002A,17*%
%TO.N,GNDrst*%
X116770000Y49104000D03*
%TD*%
D10*
%TO.P,S4,1*%
%TO.N,pinkie_bottom*%
X11915000Y4540000D03*
%TO.P,S4,2*%
%TO.N,col_2*%
X24842000Y7080000D03*
%TD*%
%TO.P,S20,1*%
%TO.N,ctrl_first*%
X49915000Y2040000D03*
%TO.P,S20,2*%
%TO.N,col_3*%
X62842000Y4580000D03*
%TD*%
D17*
%TO.P,D3,1*%
%TO.N,row_1*%
X3000000Y32350000D03*
D15*
X3000000Y32350000D03*
D17*
%TO.P,D3,2*%
%TO.N,outer_top*%
X3000000Y35650000D03*
D15*
X3000000Y35650000D03*
%TD*%
%TO.P,D1,1*%
%TO.N,row_3*%
X3000000Y-5650000D03*
D17*
X3000000Y-5650000D03*
%TO.P,D1,2*%
%TO.N,outer_bottom*%
X3000000Y-2350000D03*
D15*
X3000000Y-2350000D03*
%TD*%
D14*
%TO.P,,1*%
%TO.N,col_2*%
X104500000Y50000000D03*
%TD*%
%TO.P,,1*%
%TO.N,col_1*%
X7500000Y-2750000D03*
X7500000Y-250000D03*
%TD*%
%TO.P,,1*%
%TO.N,col_4*%
X64500000Y15250000D03*
X64500000Y12750000D03*
%TD*%
%TO.P,,1*%
%TO.N,col_3*%
X45160000Y51740000D03*
X45160000Y49240000D03*
%TD*%
D17*
%TO.P,D9,1*%
%TO.N,row_1*%
X41000000Y46350000D03*
D15*
X41000000Y46350000D03*
D17*
%TO.P,D9,2*%
%TO.N,ring_top*%
X41000000Y49650000D03*
D15*
X41000000Y49650000D03*
%TD*%
D11*
%TO.P,,*%
%TO.N,*%
X9500000Y10500000D03*
%TD*%
D10*
%TO.P,S6,1*%
%TO.N,pinkie_top*%
X11915000Y42540000D03*
%TO.P,S6,2*%
%TO.N,col_2*%
X24842000Y45080000D03*
%TD*%
D15*
%TO.P,D8,1*%
%TO.N,row_2*%
X41000000Y27350000D03*
D17*
X41000000Y27350000D03*
D15*
%TO.P,D8,2*%
%TO.N,ring_home*%
X41000000Y30650000D03*
D17*
X41000000Y30650000D03*
%TD*%
D10*
%TO.P,S14,1*%
%TO.N,index_home*%
X68915000Y33540000D03*
%TO.P,S14,2*%
%TO.N,col_5*%
X81842000Y36080000D03*
%TD*%
%TO.P,S13,1*%
%TO.N,index_bottom*%
X68915000Y14540000D03*
%TO.P,S13,2*%
%TO.N,col_5*%
X81842000Y17080000D03*
%TD*%
%TO.P,S15,1*%
%TO.N,index_top*%
X68915000Y52540000D03*
%TO.P,S15,2*%
%TO.N,col_5*%
X81842000Y55080000D03*
%TD*%
%TO.P,S11,1*%
%TO.N,middle_home*%
X49915000Y41540000D03*
%TO.P,S11,2*%
%TO.N,col_4*%
X62842000Y44080000D03*
%TD*%
D17*
%TO.P,D13,1*%
%TO.N,row_3*%
X79000000Y6350000D03*
D15*
X79000000Y6350000D03*
D17*
%TO.P,D13,2*%
%TO.N,index_bottom*%
X79000000Y9650000D03*
D15*
X79000000Y9650000D03*
%TD*%
D34*
%TO.P,REF\u002A\u002A,1*%
%TO.N,GNDrst*%
X77704396Y62788693D03*
D35*
X80940302Y61970823D03*
D15*
X80940302Y61970823D03*
D35*
X77621595Y63365879D03*
D34*
%TO.P,REF\u002A\u002A,2*%
%TO.N,RST*%
X77530014Y62373854D03*
D35*
X80378405Y60634121D03*
X77059698Y62029177D03*
D15*
X80378405Y60634121D03*
%TD*%
%TO.P,D23,1*%
%TO.N,row_4*%
X117000000Y-26650000D03*
D17*
X117000000Y-26650000D03*
%TO.P,D23,2*%
%TO.N,layer_first*%
X117000000Y-23350000D03*
D15*
X117000000Y-23350000D03*
%TD*%
D14*
%TO.P,,1*%
%TO.N,col_6*%
X95000000Y53500000D03*
%TD*%
D17*
%TO.P,D5,1*%
%TO.N,row_2*%
X22000000Y15350000D03*
D15*
X22000000Y15350000D03*
%TO.P,D5,2*%
%TO.N,pinkie_home*%
X22000000Y18650000D03*
D17*
X22000000Y18650000D03*
%TD*%
D11*
%TO.P,,*%
%TO.N,*%
X57000000Y9750000D03*
%TD*%
D10*
%TO.P,S21,1*%
%TO.N,shift_first*%
X68915000Y-2460000D03*
%TO.P,S21,2*%
%TO.N,col_4*%
X81842000Y80000D03*
%TD*%
D15*
%TO.P,D12,1*%
%TO.N,row_1*%
X60000000Y52350000D03*
D17*
X60000000Y52350000D03*
D15*
%TO.P,D12,2*%
%TO.N,middle_top*%
X60000000Y55650000D03*
D17*
X60000000Y55650000D03*
%TD*%
D10*
%TO.P,S12,1*%
%TO.N,middle_top*%
X49915000Y60540000D03*
%TO.P,S12,2*%
%TO.N,col_4*%
X62842000Y63080000D03*
%TD*%
%TO.P,S16,1*%
%TO.N,inner_bottom*%
X87915000Y11540000D03*
%TO.P,S16,2*%
%TO.N,col_6*%
X100842000Y14080000D03*
%TD*%
D17*
%TO.P,D21,1*%
%TO.N,row_4*%
X79000000Y-10650000D03*
D15*
X79000000Y-10650000D03*
D17*
%TO.P,D21,2*%
%TO.N,shift_first*%
X79000000Y-7350000D03*
D15*
X79000000Y-7350000D03*
%TD*%
%TO.P,D17,1*%
%TO.N,row_2*%
X98000000Y22350000D03*
D17*
X98000000Y22350000D03*
D15*
%TO.P,D17,2*%
%TO.N,inner_home*%
X98000000Y25650000D03*
D17*
X98000000Y25650000D03*
%TD*%
D14*
%TO.P,,1*%
%TO.N,col_5*%
X84278000Y24005000D03*
X84278000Y26505000D03*
%TD*%
D17*
%TO.P,D16,1*%
%TO.N,row_3*%
X98000000Y3350000D03*
D15*
X98000000Y3350000D03*
D17*
%TO.P,D16,2*%
%TO.N,inner_bottom*%
X98000000Y6650000D03*
D15*
X98000000Y6650000D03*
%TD*%
D10*
%TO.P,S18,1*%
%TO.N,inner_top*%
X87915000Y49540000D03*
%TO.P,S18,2*%
%TO.N,col_6*%
X100842000Y52080000D03*
%TD*%
D14*
%TO.P,,1*%
%TO.N,col_3*%
X45500000Y11250000D03*
X45500000Y13750000D03*
%TD*%
%TO.P,,1*%
%TO.N,col_1*%
X0Y44500000D03*
%TD*%
D36*
%TO.P,S19,1*%
%TO.N,alt_first*%
X30594210Y-14342795D03*
%TO.P,S19,2*%
%TO.N,col_2*%
X40519320Y-5679591D03*
%TD*%
D15*
%TO.P,D11,1*%
%TO.N,row_2*%
X60000000Y33350000D03*
D17*
X60000000Y33350000D03*
D15*
%TO.P,D11,2*%
%TO.N,middle_home*%
X60000000Y36650000D03*
D17*
X60000000Y36650000D03*
%TD*%
D10*
%TO.P,S7,1*%
%TO.N,ring_bottom*%
X30915000Y16540000D03*
%TO.P,S7,2*%
%TO.N,col_3*%
X43842000Y19080000D03*
%TD*%
D14*
%TO.P,,1*%
%TO.N,col_1*%
X7500000Y16250000D03*
X7500000Y18750000D03*
%TD*%
D15*
%TO.P,D14,1*%
%TO.N,row_2*%
X79000000Y25350000D03*
D17*
X79000000Y25350000D03*
D15*
%TO.P,D14,2*%
%TO.N,index_home*%
X79000000Y28650000D03*
D17*
X79000000Y28650000D03*
%TD*%
D15*
%TO.P,D4,1*%
%TO.N,row_3*%
X22000000Y-3650000D03*
D17*
X22000000Y-3650000D03*
D15*
%TO.P,D4,2*%
%TO.N,pinkie_bottom*%
X22000000Y-350000D03*
D17*
X22000000Y-350000D03*
%TD*%
D15*
%TO.P,D25,1*%
%TO.N,pos*%
X104500000Y51200000D03*
D37*
%TO.N,GND*%
X104500000Y48800000D03*
%TO.P,D25,2*%
%TO.N,pos*%
X104500000Y51200000D03*
D15*
%TO.N,GND*%
X104500000Y48800000D03*
%TD*%
D14*
%TO.P,,1*%
%TO.N,col_2*%
X26500000Y20750000D03*
X26500000Y18250000D03*
%TD*%
D11*
%TO.P,,*%
%TO.N,*%
X85500000Y39000000D03*
%TD*%
D14*
%TO.P,,1*%
%TO.N,col_5*%
X83500000Y44750000D03*
X83500000Y47250000D03*
%TD*%
D17*
%TO.P,D7,1*%
%TO.N,row_3*%
X41000000Y8350000D03*
D15*
X41000000Y8350000D03*
%TO.P,D7,2*%
%TO.N,ring_bottom*%
X41000000Y11650000D03*
D17*
X41000000Y11650000D03*
%TD*%
D10*
%TO.P,S9,1*%
%TO.N,ring_top*%
X30915000Y54540000D03*
%TO.P,S9,2*%
%TO.N,col_3*%
X43842000Y57080000D03*
%TD*%
D15*
%TO.P,D2,1*%
%TO.N,row_2*%
X3000000Y13350000D03*
D17*
X3000000Y13350000D03*
D15*
%TO.P,D2,2*%
%TO.N,outer_home*%
X3000000Y16650000D03*
D17*
X3000000Y16650000D03*
%TD*%
%TO.P,D6,1*%
%TO.N,row_1*%
X22000000Y34350000D03*
D15*
X22000000Y34350000D03*
%TO.P,D6,2*%
%TO.N,pinkie_top*%
X22000000Y37650000D03*
D17*
X22000000Y37650000D03*
%TD*%
D14*
%TO.P,,1*%
%TO.N,col_4*%
X64500000Y31750000D03*
X64500000Y34250000D03*
%TD*%
D10*
%TO.P,S23,1*%
%TO.N,layer_first*%
X106915000Y-18460000D03*
%TO.P,S23,2*%
%TO.N,col_6*%
X119842000Y-15920000D03*
%TD*%
D17*
%TO.P,D22,1*%
%TO.N,row_4*%
X98000000Y-18650000D03*
D15*
X98000000Y-18650000D03*
D17*
%TO.P,D22,2*%
%TO.N,e_first*%
X98000000Y-15350000D03*
D15*
X98000000Y-15350000D03*
%TD*%
D10*
%TO.P,S17,1*%
%TO.N,inner_home*%
X87915000Y30540000D03*
%TO.P,S17,2*%
%TO.N,col_6*%
X100842000Y33080000D03*
%TD*%
D11*
%TO.P,,*%
%TO.N,*%
X47500000Y48500000D03*
%TD*%
D38*
%TO.N,ctrl_first*%
X59981099Y-2868901D02*
X60000000Y-2850000D01*
X52555215Y-2868901D02*
X59981099Y-2868901D01*
X49915000Y-228686D02*
X52555215Y-2868901D01*
X49915000Y2040000D02*
X49915000Y-228686D01*
%TO.N,index_home*%
X68915000Y31271314D02*
X68915000Y33540000D01*
X78800001Y28450001D02*
X71736313Y28450001D01*
X79000000Y28650000D02*
X78800001Y28450001D01*
X71736313Y28450001D02*
X68915000Y31271314D01*
%TO.N,index_top*%
X78981099Y47631099D02*
X79000000Y47650000D01*
X68915000Y50271314D02*
X71555215Y47631099D01*
X71555215Y47631099D02*
X78981099Y47631099D01*
X68915000Y52540000D02*
X68915000Y50271314D01*
%TO.N,index_bottom*%
X68915000Y12271314D02*
X71555215Y9631099D01*
X71555215Y9631099D02*
X78981099Y9631099D01*
X68915000Y14540000D02*
X68915000Y12271314D01*
X78981099Y9631099D02*
X79000000Y9650000D01*
%TO.N,shift_first*%
X71555215Y-7368901D02*
X78981099Y-7368901D01*
X68915000Y-4728686D02*
X71555215Y-7368901D01*
X68915000Y-2460000D02*
X68915000Y-4728686D01*
X78981099Y-7368901D02*
X79000000Y-7350000D01*
%TO.N,e_first*%
X87915000Y-12728686D02*
X90555215Y-15368901D01*
X90555215Y-15368901D02*
X97981099Y-15368901D01*
X97981099Y-15368901D02*
X98000000Y-15350000D01*
X87915000Y-10460000D02*
X87915000Y-12728686D01*
%TO.N,row_4*%
X83356396Y-10650000D02*
X79000000Y-10650000D01*
X98000000Y-18650000D02*
X91356396Y-18650000D01*
X91356396Y-18650000D02*
X83356396Y-10650000D01*
%TO.N,col_1*%
X116121000Y41465000D02*
X114888000Y40232000D01*
X124437412Y41465000D02*
X116121000Y41465000D01*
X125155000Y40747412D02*
X124437412Y41465000D01*
X125155000Y-28605000D02*
X125155000Y40747412D01*
X124530000Y-29230000D02*
X125155000Y-28605000D01*
X101300000Y-29230000D02*
X124530000Y-29230000D01*
X85720000Y-13650000D02*
X101300000Y-29230000D01*
X45660000Y-17930000D02*
X49940000Y-13650000D01*
X28540028Y-14947447D02*
X31522581Y-17930000D01*
X49940000Y-13650000D02*
X85720000Y-13650000D01*
X9175000Y-4425000D02*
X22445000Y-4425000D01*
X22445000Y-4425000D02*
X28540028Y-10520028D01*
X28540028Y-10520028D02*
X28540028Y-14947447D01*
X7500000Y-2750000D02*
X9175000Y-4425000D01*
X31522581Y-17930000D02*
X45660000Y-17930000D01*
%TO.N,row_4*%
X64500000Y-10650000D02*
X60000000Y-6150000D01*
X79000000Y-10650000D02*
X64500000Y-10650000D01*
%TO.N,alt_first*%
X38542335Y-16765901D02*
X41773076Y-13535160D01*
X33017316Y-16765901D02*
X38542335Y-16765901D01*
X30594210Y-14342795D02*
X33017316Y-16765901D01*
%TO.N,ring_home*%
X40981099Y30631099D02*
X41000000Y30650000D01*
X30915000Y33271314D02*
X33555215Y30631099D01*
X33555215Y30631099D02*
X40981099Y30631099D01*
X30915000Y35540000D02*
X30915000Y33271314D01*
%TO.N,ring_bottom*%
X40981099Y11631099D02*
X41000000Y11650000D01*
X33555215Y11631099D02*
X40981099Y11631099D01*
X30915000Y14271314D02*
X33555215Y11631099D01*
X30915000Y16540000D02*
X30915000Y14271314D01*
%TO.N,row_3*%
X91530000Y3350000D02*
X98000000Y3350000D01*
X88530000Y6350000D02*
X91530000Y3350000D01*
X79000000Y6350000D02*
X88530000Y6350000D01*
%TO.N,inner_bottom*%
X97981099Y6631099D02*
X98000000Y6650000D01*
X90555215Y6631099D02*
X97981099Y6631099D01*
X87915000Y9271314D02*
X90555215Y6631099D01*
X87915000Y11540000D02*
X87915000Y9271314D01*
%TO.N,inner_home*%
X90555215Y25631099D02*
X97981099Y25631099D01*
X87915000Y28271314D02*
X90555215Y25631099D01*
X87915000Y30540000D02*
X87915000Y28271314D01*
X97981099Y25631099D02*
X98000000Y25650000D01*
%TO.N,row_2*%
X91490000Y22350000D02*
X88490000Y25350000D01*
X98000000Y22350000D02*
X91490000Y22350000D01*
X79000000Y25350000D02*
X88490000Y25350000D01*
X73930000Y25350000D02*
X79000000Y25350000D01*
X65930000Y33350000D02*
X73930000Y25350000D01*
X60000000Y33350000D02*
X65930000Y33350000D01*
X47000000Y33350000D02*
X60000000Y33350000D01*
X41000000Y27350000D02*
X47000000Y33350000D01*
%TO.N,middle_home*%
X49915000Y39271314D02*
X49915000Y41540000D01*
X52736313Y36450001D02*
X49915000Y39271314D01*
X59800001Y36450001D02*
X52736313Y36450001D01*
X60000000Y36650000D02*
X59800001Y36450001D01*
%TO.N,middle_bottom*%
X49915000Y20271314D02*
X52736313Y17450001D01*
X52736313Y17450001D02*
X59800001Y17450001D01*
X59800001Y17450001D02*
X60000000Y17650000D01*
X49915000Y22540000D02*
X49915000Y20271314D01*
%TO.N,col_2*%
X38130000Y45080000D02*
X24842000Y45080000D01*
X44165000Y51115000D02*
X38130000Y45080000D01*
X53680000Y54510000D02*
X50285000Y51115000D01*
X61450000Y54510000D02*
X53680000Y54510000D01*
X63335000Y52625000D02*
X61450000Y54510000D01*
X65655000Y52625000D02*
X63335000Y52625000D01*
X71655000Y46625000D02*
X65655000Y52625000D01*
X84145000Y46625000D02*
X71655000Y46625000D01*
X89620000Y54420000D02*
X84260000Y49060000D01*
X84260000Y49060000D02*
X84260000Y46740000D01*
X101677000Y54420000D02*
X89620000Y54420000D01*
X102442000Y53655000D02*
X101677000Y54420000D01*
X103900000Y50000000D02*
X102442000Y51458000D01*
X102442000Y51458000D02*
X102442000Y53655000D01*
X84260000Y46740000D02*
X84145000Y46625000D01*
X104500000Y50000000D02*
X103900000Y50000000D01*
X50285000Y51115000D02*
X44165000Y51115000D01*
%TO.N,row_1*%
X65493603Y52150001D02*
X73293604Y44350000D01*
X73293604Y44350000D02*
X79000000Y44350000D01*
X60199999Y52150001D02*
X65493603Y52150001D01*
X60000000Y52350000D02*
X60199999Y52150001D01*
X45315000Y50665000D02*
X58315000Y50665000D01*
X58315000Y50665000D02*
X60000000Y52350000D01*
X41000000Y46350000D02*
X45315000Y50665000D01*
%TO.N,ring_top*%
X40981099Y49631099D02*
X41000000Y49650000D01*
X33555215Y49631099D02*
X40981099Y49631099D01*
X30915000Y52271314D02*
X33555215Y49631099D01*
X30915000Y54540000D02*
X30915000Y52271314D01*
%TO.N,row_3*%
X22716116Y-3650000D02*
X22000000Y-3650000D01*
X34716116Y8350000D02*
X22716116Y-3650000D01*
X41000000Y8350000D02*
X34716116Y8350000D01*
%TO.N,col_2*%
X35589729Y-750000D02*
X26500000Y-750000D01*
X40519320Y-5679591D02*
X35589729Y-750000D01*
%TO.N,row_3*%
X73930000Y6350000D02*
X79000000Y6350000D01*
X65930000Y14350000D02*
X73930000Y6350000D01*
X60000000Y14350000D02*
X65930000Y14350000D01*
X41716116Y8350000D02*
X41000000Y8350000D01*
X47716116Y14350000D02*
X41716116Y8350000D01*
X60000000Y14350000D02*
X47716116Y14350000D01*
%TO.N,col_2*%
X24842000Y3408000D02*
X24842000Y7080000D01*
X26500000Y1750000D02*
X24842000Y3408000D01*
%TO.N,pinkie_bottom*%
X21981099Y-368901D02*
X22000000Y-350000D01*
X11915000Y2271314D02*
X14555215Y-368901D01*
X11915000Y4540000D02*
X11915000Y2271314D01*
X14555215Y-368901D02*
X21981099Y-368901D01*
%TO.N,row_2*%
X34000000Y27350000D02*
X41000000Y27350000D01*
X22000000Y15350000D02*
X34000000Y27350000D01*
X6525000Y16875000D02*
X3000000Y13350000D01*
X20475000Y16875000D02*
X6525000Y16875000D01*
X22000000Y15350000D02*
X20475000Y16875000D01*
%TO.N,pinkie_home*%
X11915000Y21271314D02*
X11915000Y23540000D01*
X14736313Y18450001D02*
X11915000Y21271314D01*
X21800001Y18450001D02*
X14736313Y18450001D01*
X22000000Y18650000D02*
X21800001Y18450001D01*
%TO.N,row_1*%
X33540000Y38890000D02*
X41000000Y46350000D01*
X26540000Y38890000D02*
X33540000Y38890000D01*
X22000000Y34350000D02*
X26540000Y38890000D01*
%TO.N,pinkie_top*%
X14736313Y37450001D02*
X21800001Y37450001D01*
X21800001Y37450001D02*
X22000000Y37650000D01*
X11915000Y40271314D02*
X14736313Y37450001D01*
X11915000Y42540000D02*
X11915000Y40271314D01*
%TO.N,row_1*%
X6920000Y36270000D02*
X3000000Y32350000D01*
X9740000Y36270000D02*
X6920000Y36270000D01*
X11660000Y34350000D02*
X9740000Y36270000D01*
X22000000Y34350000D02*
X11660000Y34350000D01*
%TO.N,outer_bottom*%
X-4444785Y-2368901D02*
X2981099Y-2368901D01*
X-7085000Y271314D02*
X-4444785Y-2368901D01*
X-7085000Y2540000D02*
X-7085000Y271314D01*
X2981099Y-2368901D02*
X3000000Y-2350000D01*
%TO.N,outer_home*%
X-4263687Y16450001D02*
X-7085000Y19271314D01*
X-7085000Y19271314D02*
X-7085000Y21540000D01*
X2800001Y16450001D02*
X-4263687Y16450001D01*
X3000000Y16650000D02*
X2800001Y16450001D01*
%TO.N,col_1*%
X5842000Y1408000D02*
X7500000Y-250000D01*
X5842000Y5080000D02*
X5842000Y1408000D01*
%TO.N,row_4*%
X98000000Y-18793074D02*
X98000000Y-18650000D01*
X117000000Y-26650000D02*
X105856926Y-26650000D01*
X105856926Y-26650000D02*
X98000000Y-18793074D01*
%TO.N,layer_first*%
X106915000Y-20728686D02*
X106915000Y-18460000D01*
X116981099Y-23368901D02*
X109555215Y-23368901D01*
X109555215Y-23368901D02*
X106915000Y-20728686D01*
X117000000Y-23350000D02*
X116981099Y-23368901D01*
%TO.N,col_6*%
X113671000Y36475000D02*
X114888000Y37692000D01*
X104237000Y36475000D02*
X113671000Y36475000D01*
X100842000Y33080000D02*
X104237000Y36475000D01*
%TO.N,row_1*%
X84130000Y45610000D02*
X88390000Y41350000D01*
X83460000Y45610000D02*
X84130000Y45610000D01*
X82200000Y44350000D02*
X83460000Y45610000D01*
X88390000Y41350000D02*
X98000000Y41350000D01*
X79000000Y44350000D02*
X82200000Y44350000D01*
%TO.N,inner_top*%
X97981099Y44631099D02*
X98000000Y44650000D01*
X87915000Y47271314D02*
X90555215Y44631099D01*
X90555215Y44631099D02*
X97981099Y44631099D01*
X87915000Y49540000D02*
X87915000Y47271314D01*
%TO.N,RAW*%
X119491198Y43091000D02*
X120138100Y43091000D01*
X112244802Y43597000D02*
X118985198Y43597000D01*
X111728802Y43081000D02*
X112244802Y43597000D01*
X118985198Y43597000D02*
X119491198Y43091000D01*
X111171900Y43081000D02*
X111728802Y43081000D01*
%TO.N,GND*%
X116210000Y44100000D02*
X116214000Y44096000D01*
X115245305Y44100000D02*
X116210000Y44100000D01*
X119103305Y44096000D02*
X116214000Y44096000D01*
X116214000Y44096000D02*
X116098695Y44096000D01*
X116098695Y44096000D02*
X115670000Y44524695D01*
X120007305Y45000000D02*
X119103305Y44096000D01*
X120138100Y45000000D02*
X120007305Y45000000D01*
X115245305Y44100000D02*
X112250000Y44100000D01*
X112250000Y44100000D02*
X111360000Y44990000D01*
X111360000Y44990000D02*
X111171900Y44990000D01*
X115670000Y46340000D02*
X115670000Y44524695D01*
X114890000Y47120000D02*
X115670000Y46340000D01*
X115670000Y44524695D02*
X115245305Y44100000D01*
X106665000Y46635000D02*
X109587000Y46635000D01*
X104500000Y48800000D02*
X106665000Y46635000D01*
X109587000Y46635000D02*
X110804000Y47852000D01*
%TO.N,pos*%
X104500000Y53233212D02*
X104500000Y51200000D01*
X101583212Y56150000D02*
X104500000Y53233212D01*
X84226130Y56150000D02*
X101583212Y56150000D01*
X78510000Y59490000D02*
X80886130Y59490000D01*
X72050000Y60350000D02*
X77650000Y60350000D01*
X77650000Y60350000D02*
X78510000Y59490000D01*
X69371661Y63028339D02*
X72050000Y60350000D01*
X69371661Y64353646D02*
X69371661Y63028339D01*
X80886130Y59490000D02*
X84226130Y56150000D01*
%TO.N,RST*%
X114112206Y49221794D02*
X114230000Y49104000D01*
X113977442Y49221794D02*
X114112206Y49221794D01*
X113776358Y49422878D02*
X113977442Y49221794D01*
X113776358Y49913654D02*
X113776358Y49422878D01*
X115249305Y50400000D02*
X114262704Y50400000D01*
X115610000Y51415305D02*
X115610000Y50760695D01*
X114405305Y52620000D02*
X115610000Y51415305D01*
X105749608Y52620000D02*
X114405305Y52620000D01*
X115610000Y50760695D02*
X115249305Y50400000D01*
X114262704Y50400000D02*
X113776358Y49913654D01*
X101769608Y56600000D02*
X105749608Y52620000D01*
X84412526Y56600000D02*
X101769608Y56600000D01*
X80378405Y60634121D02*
X84412526Y56600000D01*
%TO.N,GNDrst*%
X124456412Y49104000D02*
X116770000Y49104000D01*
X125155000Y49802588D02*
X124456412Y49104000D01*
X125155000Y52705000D02*
X125155000Y49802588D01*
X124780000Y53080000D02*
X125155000Y52705000D01*
X105926004Y53080000D02*
X124780000Y53080000D01*
X101956004Y57050000D02*
X105926004Y53080000D01*
X85861125Y57050000D02*
X101956004Y57050000D01*
X80940302Y61970823D02*
X85861125Y57050000D01*
%TO.N,pos*%
X71553646Y64353646D02*
X69371661Y64353646D01*
X72000000Y64800000D02*
X71553646Y64353646D01*
%TO.N,RAW*%
X72685674Y65494517D02*
X72416110Y65764081D01*
X72685674Y63739523D02*
X72685674Y65494517D01*
X72137250Y63191099D02*
X72685674Y63739523D01*
%TO.N,col_6*%
X95455001Y53955001D02*
X98966999Y53955001D01*
X95000000Y53500000D02*
X95455001Y53955001D01*
X98966999Y53955001D02*
X100842000Y52080000D01*
X102442000Y-10462000D02*
X105820000Y-13840000D01*
X102442000Y12480000D02*
X102442000Y-10462000D01*
X117762000Y-13840000D02*
X119842000Y-15920000D01*
X100842000Y14080000D02*
X102442000Y12480000D01*
X105820000Y-13840000D02*
X117762000Y-13840000D01*
X101305901Y32616099D02*
X101305901Y14543901D01*
X100842000Y33080000D02*
X101305901Y32616099D01*
X101305901Y14543901D02*
X100842000Y14080000D01*
X101305901Y33543901D02*
X100842000Y33080000D01*
X100842000Y52080000D02*
X101305901Y51616099D01*
X101305901Y51616099D02*
X101305901Y33543901D01*
%TO.N,col_5*%
X87266652Y5005000D02*
X100191652Y-7920000D01*
X100191652Y-7920000D02*
X100842000Y-7920000D01*
X84278000Y5005000D02*
X87266652Y5005000D01*
X84278000Y14644000D02*
X81842000Y17080000D01*
X84278000Y7505000D02*
X84278000Y14644000D01*
X84278000Y19516000D02*
X81842000Y17080000D01*
X84278000Y24005000D02*
X84278000Y19516000D01*
X84278000Y33644000D02*
X81842000Y36080000D01*
X84278000Y26505000D02*
X84278000Y33644000D01*
X81842000Y43092000D02*
X81842000Y36080000D01*
X83500000Y44750000D02*
X81842000Y43092000D01*
X81842000Y55080000D02*
X83500000Y53422000D01*
X83500000Y53422000D02*
X83500000Y47250000D01*
%TO.N,col_4*%
X79966999Y1955001D02*
X81842000Y80000D01*
X75294999Y1955001D02*
X79966999Y1955001D01*
X64500000Y12750000D02*
X75294999Y1955001D01*
X64500000Y23422000D02*
X64500000Y15250000D01*
X62842000Y25080000D02*
X64500000Y23422000D01*
X64500000Y26738000D02*
X62842000Y25080000D01*
X64500000Y31750000D02*
X64500000Y26738000D01*
X64500000Y42422000D02*
X64500000Y34250000D01*
X62842000Y44080000D02*
X64500000Y42422000D01*
X64500000Y45738000D02*
X62842000Y44080000D01*
X64500000Y50750000D02*
X64500000Y45738000D01*
X64500000Y61422000D02*
X64500000Y53250000D01*
X62842000Y63080000D02*
X64500000Y61422000D01*
%TO.N,middle_top*%
X59981099Y55631099D02*
X60000000Y55650000D01*
X52555215Y55631099D02*
X59981099Y55631099D01*
X49915000Y58271314D02*
X52555215Y55631099D01*
X49915000Y60540000D02*
X49915000Y58271314D01*
%TO.N,col_3*%
X50294999Y6455001D02*
X45500000Y11250000D01*
X60966999Y6455001D02*
X50294999Y6455001D01*
X62842000Y4580000D02*
X60966999Y6455001D01*
X43842000Y15408000D02*
X45500000Y13750000D01*
X43842000Y19080000D02*
X43842000Y15408000D01*
X43842000Y28592000D02*
X43842000Y19080000D01*
X45500000Y30250000D02*
X43842000Y28592000D01*
X43842000Y34408000D02*
X45500000Y32750000D01*
X43842000Y38080000D02*
X43842000Y34408000D01*
X43842000Y47922000D02*
X43842000Y38080000D01*
X45160000Y49240000D02*
X43842000Y47922000D01*
X43842000Y53058000D02*
X45160000Y51740000D01*
X43842000Y57080000D02*
X43842000Y53058000D01*
%TO.N,col_2*%
X26500000Y8738000D02*
X24842000Y7080000D01*
X26500000Y18250000D02*
X26500000Y8738000D01*
X24842000Y22408000D02*
X26500000Y20750000D01*
X24842000Y26080000D02*
X24842000Y22408000D01*
X26500000Y27738000D02*
X24842000Y26080000D01*
X26500000Y37250000D02*
X26500000Y27738000D01*
X24842000Y41408000D02*
X24842000Y45080000D01*
X26500000Y39750000D02*
X24842000Y41408000D01*
%TO.N,col_1*%
X5842000Y14592000D02*
X7500000Y16250000D01*
X5842000Y5080000D02*
X5842000Y14592000D01*
X5842000Y20408000D02*
X7500000Y18750000D01*
X5842000Y24080000D02*
X5842000Y20408000D01*
X5842000Y33592000D02*
X7500000Y35250000D01*
X5842000Y24080000D02*
X5842000Y33592000D01*
X5842000Y39408000D02*
X7500000Y37750000D01*
X5842000Y43080000D02*
X5842000Y39408000D01*
X455001Y44955001D02*
X3966999Y44955001D01*
X0Y44500000D02*
X455001Y44955001D01*
X3966999Y44955001D02*
X5842000Y43080000D01*
%TO.N,outer_top*%
X2981099Y35631099D02*
X3000000Y35650000D01*
X-4444785Y35631099D02*
X2981099Y35631099D01*
X-7085000Y38271314D02*
X-4444785Y35631099D01*
X-7085000Y40540000D02*
X-7085000Y38271314D01*
%TD*%
%TA.AperFunction,Conductor*%
%TO.N,ctrl_first*%
G36*
X59903178Y-2683574D02*
G01*
X60090099Y-2833380D01*
X60094412Y-2841228D01*
X60091619Y-2850178D01*
X59934645Y-3031075D01*
X59926634Y-3035078D01*
X59921860Y-3034421D01*
X59896192Y-3025219D01*
X59896190Y-3025218D01*
X59896097Y-3025185D01*
X59865656Y-3015676D01*
X59865534Y-3015645D01*
X59865528Y-3015643D01*
X59837101Y-3008356D01*
X59837096Y-3008355D01*
X59836956Y-3008319D01*
X59808883Y-3002838D01*
X59808715Y-3002815D01*
X59808702Y-3002813D01*
X59788923Y-3000126D01*
X59780319Y-2998957D01*
X59780167Y-2998944D01*
X59780157Y-2998943D01*
X59767173Y-2997843D01*
X59750150Y-2996401D01*
X59717259Y-2994893D01*
X59717201Y-2994892D01*
X59717178Y-2994891D01*
X59680531Y-2994158D01*
X59638849Y-2993919D01*
X59638815Y-2993919D01*
X59602794Y-2993905D01*
X59594523Y-2990475D01*
X59591099Y-2982205D01*
X59591099Y-2755539D01*
X59594526Y-2747266D01*
X59602737Y-2743839D01*
X59604685Y-2743829D01*
X59635008Y-2743667D01*
X59673521Y-2742780D01*
X59707550Y-2740960D01*
X59738009Y-2737926D01*
X59765812Y-2733400D01*
X59791872Y-2727102D01*
X59799435Y-2724599D01*
X59816881Y-2718825D01*
X59816892Y-2718821D01*
X59817103Y-2718751D01*
X59842418Y-2708068D01*
X59842601Y-2707975D01*
X59842613Y-2707970D01*
X59868597Y-2694841D01*
X59868732Y-2694773D01*
X59890041Y-2682554D01*
X59898923Y-2681412D01*
X59903178Y-2683574D01*
G37*
%TD.AperFunction*%
%TD*%
%TA.AperFunction,Conductor*%
%TO.N,index_home*%
G36*
X79063593Y28717143D02*
G01*
X79067181Y28708939D01*
X79066803Y28705753D01*
X79002055Y28457867D01*
X78996649Y28450729D01*
X78991911Y28449183D01*
X78965949Y28446561D01*
X78965947Y28446561D01*
X78965347Y28446500D01*
X78964771Y28446317D01*
X78964769Y28446317D01*
X78947889Y28440965D01*
X78935380Y28437000D01*
X78920978Y28429475D01*
X78908879Y28423154D01*
X78908874Y28423151D01*
X78908585Y28423000D01*
X78883451Y28406000D01*
X78883346Y28405922D01*
X78883340Y28405918D01*
X78858575Y28387581D01*
X78858336Y28387409D01*
X78832527Y28369288D01*
X78831687Y28368750D01*
X78803568Y28352393D01*
X78802184Y28351705D01*
X78770137Y28338357D01*
X78768373Y28337782D01*
X78730689Y28328722D01*
X78728824Y28328430D01*
X78711986Y28327174D01*
X78695412Y28325938D01*
X78686908Y28328740D01*
X78682843Y28337606D01*
X78682843Y28564228D01*
X78686270Y28572501D01*
X78693579Y28575888D01*
X78705077Y28576839D01*
X78708939Y28577158D01*
X78709491Y28577315D01*
X78729897Y28583120D01*
X78729899Y28583121D01*
X78730522Y28583298D01*
X78731086Y28583605D01*
X78731090Y28583607D01*
X78747607Y28592608D01*
X78748178Y28592919D01*
X78748663Y28593346D01*
X78748666Y28593348D01*
X78754920Y28598852D01*
X78762494Y28605519D01*
X78774057Y28620598D01*
X78783451Y28637654D01*
X78791264Y28656187D01*
X78798081Y28675696D01*
X78804490Y28695678D01*
X78804904Y28696932D01*
X78808480Y28707766D01*
X78814327Y28714548D01*
X78819361Y28715797D01*
X79055254Y28720408D01*
X79063593Y28717143D01*
G37*
%TD.AperFunction*%
%TD*%
%TA.AperFunction,Conductor*%
%TO.N,index_top*%
G36*
X78903178Y47816426D02*
G01*
X79090099Y47666620D01*
X79094412Y47658772D01*
X79091619Y47649822D01*
X78934645Y47468925D01*
X78926634Y47464922D01*
X78921860Y47465579D01*
X78896192Y47474780D01*
X78896190Y47474781D01*
X78896097Y47474814D01*
X78865656Y47484323D01*
X78865534Y47484354D01*
X78865528Y47484356D01*
X78837101Y47491643D01*
X78837096Y47491644D01*
X78836956Y47491680D01*
X78808883Y47497161D01*
X78808715Y47497184D01*
X78808702Y47497186D01*
X78788923Y47499873D01*
X78780319Y47501042D01*
X78780167Y47501055D01*
X78780157Y47501056D01*
X78767173Y47502156D01*
X78750150Y47503598D01*
X78717259Y47505106D01*
X78717201Y47505107D01*
X78717178Y47505108D01*
X78680531Y47505841D01*
X78638849Y47506080D01*
X78602793Y47506094D01*
X78594523Y47509524D01*
X78591099Y47517794D01*
X78591099Y47744461D01*
X78594526Y47752734D01*
X78602736Y47756161D01*
X78635008Y47756332D01*
X78673521Y47757219D01*
X78707550Y47759039D01*
X78738009Y47762073D01*
X78765812Y47766599D01*
X78791872Y47772897D01*
X78799435Y47775400D01*
X78816881Y47781174D01*
X78816892Y47781178D01*
X78817103Y47781248D01*
X78842418Y47791931D01*
X78842601Y47792024D01*
X78842613Y47792029D01*
X78868597Y47805158D01*
X78868732Y47805226D01*
X78890041Y47817446D01*
X78898922Y47818588D01*
X78903178Y47816426D01*
G37*
%TD.AperFunction*%
%TD*%
%TA.AperFunction,Conductor*%
%TO.N,index_bottom*%
G36*
X78903178Y9816426D02*
G01*
X79090099Y9666620D01*
X79094412Y9658772D01*
X79091619Y9649822D01*
X78934645Y9468925D01*
X78926634Y9464922D01*
X78921860Y9465579D01*
X78896192Y9474780D01*
X78896190Y9474781D01*
X78896097Y9474814D01*
X78865656Y9484323D01*
X78865534Y9484354D01*
X78865528Y9484356D01*
X78837101Y9491643D01*
X78837096Y9491644D01*
X78836956Y9491680D01*
X78808883Y9497161D01*
X78808715Y9497184D01*
X78808702Y9497186D01*
X78788923Y9499873D01*
X78780319Y9501042D01*
X78780167Y9501055D01*
X78780157Y9501056D01*
X78767173Y9502156D01*
X78750150Y9503598D01*
X78717259Y9505106D01*
X78717201Y9505107D01*
X78717178Y9505108D01*
X78680531Y9505841D01*
X78638849Y9506080D01*
X78602793Y9506094D01*
X78594523Y9509524D01*
X78591099Y9517794D01*
X78591099Y9744461D01*
X78594526Y9752734D01*
X78602736Y9756161D01*
X78635008Y9756332D01*
X78673521Y9757219D01*
X78707550Y9759039D01*
X78738009Y9762073D01*
X78765812Y9766599D01*
X78791872Y9772897D01*
X78799435Y9775400D01*
X78816881Y9781174D01*
X78816892Y9781178D01*
X78817103Y9781248D01*
X78842418Y9791931D01*
X78842601Y9792024D01*
X78842613Y9792029D01*
X78868597Y9805158D01*
X78868732Y9805226D01*
X78890041Y9817446D01*
X78898922Y9818588D01*
X78903178Y9816426D01*
G37*
%TD.AperFunction*%
%TD*%
%TA.AperFunction,Conductor*%
%TO.N,shift_first*%
G36*
X78903178Y-7183574D02*
G01*
X79090099Y-7333380D01*
X79094412Y-7341228D01*
X79091619Y-7350178D01*
X78934645Y-7531075D01*
X78926634Y-7535078D01*
X78921860Y-7534421D01*
X78896192Y-7525219D01*
X78896190Y-7525218D01*
X78896097Y-7525185D01*
X78865656Y-7515676D01*
X78865534Y-7515645D01*
X78865528Y-7515643D01*
X78837101Y-7508356D01*
X78837096Y-7508355D01*
X78836956Y-7508319D01*
X78808883Y-7502838D01*
X78808715Y-7502815D01*
X78808702Y-7502813D01*
X78788923Y-7500126D01*
X78780319Y-7498957D01*
X78780167Y-7498944D01*
X78780157Y-7498943D01*
X78767173Y-7497843D01*
X78750150Y-7496401D01*
X78717259Y-7494893D01*
X78717201Y-7494892D01*
X78717178Y-7494891D01*
X78680531Y-7494158D01*
X78638849Y-7493919D01*
X78638815Y-7493919D01*
X78602794Y-7493905D01*
X78594523Y-7490475D01*
X78591099Y-7482205D01*
X78591099Y-7255539D01*
X78594526Y-7247266D01*
X78602737Y-7243839D01*
X78604685Y-7243829D01*
X78635008Y-7243667D01*
X78673521Y-7242780D01*
X78707550Y-7240960D01*
X78738009Y-7237926D01*
X78765812Y-7233400D01*
X78791872Y-7227102D01*
X78799435Y-7224599D01*
X78816881Y-7218825D01*
X78816892Y-7218821D01*
X78817103Y-7218751D01*
X78842418Y-7208068D01*
X78842601Y-7207975D01*
X78842613Y-7207970D01*
X78868597Y-7194841D01*
X78868732Y-7194773D01*
X78890041Y-7182554D01*
X78898923Y-7181412D01*
X78903178Y-7183574D01*
G37*
%TD.AperFunction*%
%TD*%
%TA.AperFunction,Conductor*%
%TO.N,e_first*%
G36*
X97903178Y-15183574D02*
G01*
X98090099Y-15333380D01*
X98094412Y-15341228D01*
X98091619Y-15350178D01*
X97934645Y-15531075D01*
X97926634Y-15535078D01*
X97921860Y-15534421D01*
X97896192Y-15525219D01*
X97896190Y-15525218D01*
X97896097Y-15525185D01*
X97865656Y-15515676D01*
X97865534Y-15515645D01*
X97865528Y-15515643D01*
X97837101Y-15508356D01*
X97837096Y-15508355D01*
X97836956Y-15508319D01*
X97808883Y-15502838D01*
X97808715Y-15502815D01*
X97808702Y-15502813D01*
X97788923Y-15500126D01*
X97780319Y-15498957D01*
X97780167Y-15498944D01*
X97780157Y-15498943D01*
X97767173Y-15497843D01*
X97750150Y-15496401D01*
X97717259Y-15494893D01*
X97717201Y-15494892D01*
X97717178Y-15494891D01*
X97680531Y-15494158D01*
X97638849Y-15493919D01*
X97638815Y-15493919D01*
X97602794Y-15493905D01*
X97594523Y-15490475D01*
X97591099Y-15482205D01*
X97591099Y-15255539D01*
X97594526Y-15247266D01*
X97602737Y-15243839D01*
X97604685Y-15243829D01*
X97635008Y-15243667D01*
X97673521Y-15242780D01*
X97707550Y-15240960D01*
X97738009Y-15237926D01*
X97765812Y-15233400D01*
X97791872Y-15227102D01*
X97799435Y-15224599D01*
X97816881Y-15218825D01*
X97816892Y-15218821D01*
X97817103Y-15218751D01*
X97842418Y-15208068D01*
X97842601Y-15207975D01*
X97842613Y-15207970D01*
X97868597Y-15194841D01*
X97868732Y-15194773D01*
X97890041Y-15182554D01*
X97898923Y-15181412D01*
X97903178Y-15183574D01*
G37*
%TD.AperFunction*%
%TD*%
%TA.AperFunction,Conductor*%
%TO.N,row_4*%
G36*
X79094444Y-10473381D02*
G01*
X79116181Y-10483493D01*
X79142898Y-10494609D01*
X79168292Y-10503572D01*
X79168468Y-10503622D01*
X79168476Y-10503624D01*
X79180705Y-10507062D01*
X79193327Y-10510610D01*
X79193523Y-10510651D01*
X79193532Y-10510653D01*
X79213790Y-10514869D01*
X79218967Y-10515946D01*
X79230016Y-10517513D01*
X79246021Y-10519784D01*
X79246026Y-10519785D01*
X79246177Y-10519806D01*
X79275921Y-10522416D01*
X79290842Y-10523128D01*
X79309095Y-10523999D01*
X79309109Y-10523999D01*
X79309163Y-10524002D01*
X79312230Y-10524066D01*
X79346844Y-10524788D01*
X79346868Y-10524788D01*
X79352582Y-10524816D01*
X79378358Y-10524943D01*
X79386614Y-10528411D01*
X79390000Y-10536643D01*
X79390000Y-10763357D01*
X79386573Y-10771630D01*
X79378357Y-10775057D01*
X79346868Y-10775211D01*
X79346847Y-10775211D01*
X79312616Y-10775925D01*
X79309163Y-10775997D01*
X79309109Y-10776000D01*
X79309095Y-10776000D01*
X79290842Y-10776871D01*
X79275921Y-10777583D01*
X79246177Y-10780193D01*
X79246026Y-10780214D01*
X79246021Y-10780215D01*
X79230016Y-10782486D01*
X79218967Y-10784053D01*
X79218778Y-10784092D01*
X79218780Y-10784092D01*
X79193532Y-10789346D01*
X79193523Y-10789348D01*
X79193327Y-10789389D01*
X79180705Y-10792937D01*
X79168476Y-10796375D01*
X79168468Y-10796377D01*
X79168292Y-10796427D01*
X79142898Y-10805390D01*
X79116181Y-10816506D01*
X79099119Y-10824444D01*
X79094444Y-10826619D01*
X79085498Y-10827002D01*
X79081399Y-10824444D01*
X78900000Y-10650000D01*
X79000000Y-10553834D01*
X79032680Y-10522407D01*
X79081400Y-10475556D01*
X79089739Y-10472291D01*
X79094444Y-10473381D01*
G37*
%TD.AperFunction*%
%TD*%
%TA.AperFunction,Conductor*%
%TO.N,row_4*%
G36*
X97918600Y-18475556D02*
G01*
X97969957Y-18524943D01*
X98100000Y-18650000D01*
X97912823Y-18830000D01*
X97883818Y-18816506D01*
X97882039Y-18815766D01*
X97882038Y-18815765D01*
X97857101Y-18805390D01*
X97831707Y-18796427D01*
X97831531Y-18796377D01*
X97831523Y-18796375D01*
X97819294Y-18792937D01*
X97806672Y-18789389D01*
X97806476Y-18789348D01*
X97806467Y-18789346D01*
X97781219Y-18784092D01*
X97781221Y-18784092D01*
X97781032Y-18784053D01*
X97769983Y-18782486D01*
X97753978Y-18780215D01*
X97753973Y-18780214D01*
X97753822Y-18780193D01*
X97724078Y-18777583D01*
X97709157Y-18776871D01*
X97690904Y-18776000D01*
X97690890Y-18776000D01*
X97690836Y-18775997D01*
X97687383Y-18775925D01*
X97653152Y-18775211D01*
X97653131Y-18775211D01*
X97621643Y-18775057D01*
X97613386Y-18771590D01*
X97610000Y-18763357D01*
X97610000Y-18536643D01*
X97613427Y-18528370D01*
X97621642Y-18524943D01*
X97647445Y-18524816D01*
X97653131Y-18524788D01*
X97653155Y-18524788D01*
X97687769Y-18524066D01*
X97690836Y-18524002D01*
X97690890Y-18523999D01*
X97690904Y-18523999D01*
X97709157Y-18523128D01*
X97724078Y-18522416D01*
X97753822Y-18519806D01*
X97753973Y-18519785D01*
X97753978Y-18519784D01*
X97769983Y-18517513D01*
X97781032Y-18515946D01*
X97786209Y-18514869D01*
X97806467Y-18510653D01*
X97806476Y-18510651D01*
X97806672Y-18510610D01*
X97819294Y-18507062D01*
X97831523Y-18503624D01*
X97831531Y-18503622D01*
X97831707Y-18503572D01*
X97857101Y-18494609D01*
X97883818Y-18483493D01*
X97905555Y-18473381D01*
X97914502Y-18472998D01*
X97918600Y-18475556D01*
G37*
%TD.AperFunction*%
%TD*%
%TA.AperFunction,Conductor*%
%TO.N,col_1*%
G36*
X7775099Y-2651386D02*
G01*
X7783303Y-2654974D01*
X7785981Y-2659419D01*
X7800867Y-2704553D01*
X7800951Y-2704816D01*
X7815290Y-2752006D01*
X7828073Y-2794766D01*
X7840846Y-2834321D01*
X7840901Y-2834465D01*
X7855104Y-2871785D01*
X7855109Y-2871797D01*
X7855186Y-2871999D01*
X7872670Y-2909132D01*
X7894874Y-2947048D01*
X7923376Y-2987079D01*
X7959752Y-3030554D01*
X7959878Y-3030687D01*
X7959881Y-3030690D01*
X7997727Y-3070535D01*
X8000940Y-3078894D01*
X7997517Y-3086866D01*
X7836866Y-3247517D01*
X7828593Y-3250944D01*
X7820535Y-3247727D01*
X7780690Y-3209881D01*
X7780687Y-3209878D01*
X7780554Y-3209752D01*
X7737079Y-3173376D01*
X7697048Y-3144874D01*
X7696811Y-3144735D01*
X7659365Y-3122806D01*
X7659357Y-3122802D01*
X7659132Y-3122670D01*
X7621999Y-3105186D01*
X7621797Y-3105109D01*
X7621785Y-3105104D01*
X7594177Y-3094597D01*
X7584321Y-3090846D01*
X7544766Y-3078073D01*
X7544717Y-3078058D01*
X7544697Y-3078052D01*
X7502057Y-3065305D01*
X7502006Y-3065290D01*
X7454816Y-3050951D01*
X7454553Y-3050867D01*
X7409419Y-3035981D01*
X7402636Y-3030136D01*
X7401386Y-3025099D01*
X7394172Y-2656099D01*
X7397437Y-2647760D01*
X7406099Y-2644172D01*
X7775099Y-2651386D01*
G37*
%TD.AperFunction*%
%TD*%
%TA.AperFunction,Conductor*%
%TO.N,row_4*%
G36*
X60031741Y-6081293D02*
G01*
X60180910Y-6084208D01*
X60189113Y-6087796D01*
X60191671Y-6091894D01*
X60199891Y-6114415D01*
X60199916Y-6114476D01*
X60199925Y-6114499D01*
X60210865Y-6141030D01*
X60210871Y-6141044D01*
X60210922Y-6141167D01*
X60222540Y-6165461D01*
X60235266Y-6188140D01*
X60249623Y-6210043D01*
X60266133Y-6232013D01*
X60285320Y-6254891D01*
X60285383Y-6254960D01*
X60285394Y-6254973D01*
X60307694Y-6279506D01*
X60307704Y-6279517D01*
X60333810Y-6306734D01*
X60355967Y-6329111D01*
X60359353Y-6337401D01*
X60355926Y-6345616D01*
X60195616Y-6505926D01*
X60187343Y-6509353D01*
X60179111Y-6505967D01*
X60156734Y-6483810D01*
X60129517Y-6457704D01*
X60104973Y-6435394D01*
X60104960Y-6435383D01*
X60104891Y-6435320D01*
X60082013Y-6416133D01*
X60060043Y-6399623D01*
X60038140Y-6385266D01*
X60015461Y-6372540D01*
X60015291Y-6372459D01*
X60015282Y-6372454D01*
X59991307Y-6360989D01*
X59991167Y-6360922D01*
X59991044Y-6360871D01*
X59991030Y-6360865D01*
X59964499Y-6349925D01*
X59964476Y-6349916D01*
X59964415Y-6349891D01*
X59941894Y-6341671D01*
X59935298Y-6335615D01*
X59934208Y-6330909D01*
X59933736Y-6306722D01*
X59930502Y-6141307D01*
X59929528Y-6091455D01*
X59932793Y-6083116D01*
X59941455Y-6079528D01*
X60031741Y-6081293D01*
G37*
%TD.AperFunction*%
%TD*%
%TA.AperFunction,Conductor*%
%TO.N,row_4*%
G36*
X78918600Y-10475556D02*
G01*
X78970016Y-10525000D01*
X79100000Y-10650000D01*
X79000000Y-10746166D01*
X78926918Y-10816446D01*
X78918601Y-10824444D01*
X78910262Y-10827709D01*
X78905556Y-10826619D01*
X78897005Y-10822641D01*
X78883818Y-10816506D01*
X78857101Y-10805390D01*
X78831707Y-10796427D01*
X78831531Y-10796377D01*
X78831523Y-10796375D01*
X78819294Y-10792937D01*
X78806672Y-10789389D01*
X78806476Y-10789348D01*
X78806467Y-10789346D01*
X78781219Y-10784092D01*
X78781221Y-10784092D01*
X78781032Y-10784053D01*
X78769983Y-10782486D01*
X78753978Y-10780215D01*
X78753973Y-10780214D01*
X78753822Y-10780193D01*
X78724078Y-10777583D01*
X78709157Y-10776871D01*
X78690904Y-10776000D01*
X78690890Y-10776000D01*
X78690836Y-10775997D01*
X78687383Y-10775925D01*
X78653152Y-10775211D01*
X78653131Y-10775211D01*
X78621643Y-10775057D01*
X78613386Y-10771590D01*
X78610000Y-10763357D01*
X78610000Y-10536643D01*
X78613427Y-10528370D01*
X78621642Y-10524943D01*
X78647445Y-10524816D01*
X78653131Y-10524788D01*
X78653155Y-10524788D01*
X78687769Y-10524066D01*
X78690836Y-10524002D01*
X78690890Y-10523999D01*
X78690904Y-10523999D01*
X78709157Y-10523128D01*
X78724078Y-10522416D01*
X78753822Y-10519806D01*
X78753973Y-10519785D01*
X78753978Y-10519784D01*
X78769983Y-10517513D01*
X78781032Y-10515946D01*
X78786209Y-10514869D01*
X78806467Y-10510653D01*
X78806476Y-10510651D01*
X78806672Y-10510610D01*
X78819294Y-10507062D01*
X78831523Y-10503624D01*
X78831531Y-10503622D01*
X78831707Y-10503572D01*
X78857101Y-10494609D01*
X78883818Y-10483493D01*
X78905555Y-10473381D01*
X78914502Y-10472998D01*
X78918600Y-10475556D01*
G37*
%TD.AperFunction*%
%TD*%
%TA.AperFunction,Conductor*%
%TO.N,alt_first*%
G36*
X41839960Y-13467953D02*
G01*
X41843548Y-13476615D01*
X41842574Y-13526467D01*
X41839341Y-13691882D01*
X41838868Y-13716069D01*
X41835280Y-13724273D01*
X41831182Y-13726831D01*
X41808660Y-13735051D01*
X41797528Y-13739641D01*
X41782045Y-13746025D01*
X41782031Y-13746031D01*
X41781908Y-13746082D01*
X41781768Y-13746149D01*
X41757793Y-13757614D01*
X41757784Y-13757619D01*
X41757614Y-13757700D01*
X41734935Y-13770426D01*
X41713032Y-13784783D01*
X41691062Y-13801293D01*
X41668184Y-13820480D01*
X41668115Y-13820543D01*
X41668102Y-13820554D01*
X41643558Y-13842864D01*
X41616341Y-13868970D01*
X41616287Y-13869023D01*
X41593965Y-13891127D01*
X41585675Y-13894513D01*
X41577460Y-13891086D01*
X41417149Y-13730775D01*
X41413722Y-13722502D01*
X41417107Y-13714271D01*
X41439265Y-13691894D01*
X41465371Y-13664677D01*
X41465381Y-13664666D01*
X41487681Y-13640133D01*
X41487692Y-13640120D01*
X41487755Y-13640051D01*
X41506942Y-13617173D01*
X41523452Y-13595203D01*
X41537809Y-13573300D01*
X41550535Y-13550621D01*
X41562153Y-13526327D01*
X41562204Y-13526204D01*
X41562210Y-13526190D01*
X41573150Y-13499659D01*
X41573158Y-13499638D01*
X41573184Y-13499575D01*
X41581405Y-13477054D01*
X41587461Y-13470458D01*
X41592165Y-13469368D01*
X41741335Y-13466453D01*
X41831621Y-13464688D01*
X41839960Y-13467953D01*
G37*
%TD.AperFunction*%
%TD*%
%TA.AperFunction,Conductor*%
%TO.N,ring_home*%
G36*
X40903178Y30816426D02*
G01*
X41090099Y30666620D01*
X41094412Y30658772D01*
X41091619Y30649822D01*
X40934645Y30468925D01*
X40926634Y30464922D01*
X40921860Y30465579D01*
X40896192Y30474780D01*
X40896190Y30474781D01*
X40896097Y30474814D01*
X40865656Y30484323D01*
X40865534Y30484354D01*
X40865528Y30484356D01*
X40837101Y30491643D01*
X40837096Y30491644D01*
X40836956Y30491680D01*
X40808883Y30497161D01*
X40808715Y30497184D01*
X40808702Y30497186D01*
X40788923Y30499873D01*
X40780319Y30501042D01*
X40780167Y30501055D01*
X40780157Y30501056D01*
X40767173Y30502156D01*
X40750150Y30503598D01*
X40717259Y30505106D01*
X40717201Y30505107D01*
X40717178Y30505108D01*
X40680531Y30505841D01*
X40638849Y30506080D01*
X40602793Y30506094D01*
X40594523Y30509524D01*
X40591099Y30517794D01*
X40591099Y30744461D01*
X40594526Y30752734D01*
X40602736Y30756161D01*
X40635008Y30756332D01*
X40673521Y30757219D01*
X40707550Y30759039D01*
X40738009Y30762073D01*
X40765812Y30766599D01*
X40791872Y30772897D01*
X40799435Y30775400D01*
X40816881Y30781174D01*
X40816892Y30781178D01*
X40817103Y30781248D01*
X40842418Y30791931D01*
X40842601Y30792024D01*
X40842613Y30792029D01*
X40868597Y30805158D01*
X40868732Y30805226D01*
X40890041Y30817446D01*
X40898922Y30818588D01*
X40903178Y30816426D01*
G37*
%TD.AperFunction*%
%TD*%
%TA.AperFunction,Conductor*%
%TO.N,ring_bottom*%
G36*
X40903178Y11816426D02*
G01*
X41090099Y11666620D01*
X41094412Y11658772D01*
X41091619Y11649822D01*
X40934645Y11468925D01*
X40926634Y11464922D01*
X40921860Y11465579D01*
X40896192Y11474780D01*
X40896190Y11474781D01*
X40896097Y11474814D01*
X40865656Y11484323D01*
X40865534Y11484354D01*
X40865528Y11484356D01*
X40837101Y11491643D01*
X40837096Y11491644D01*
X40836956Y11491680D01*
X40808883Y11497161D01*
X40808715Y11497184D01*
X40808702Y11497186D01*
X40788923Y11499873D01*
X40780319Y11501042D01*
X40780167Y11501055D01*
X40780157Y11501056D01*
X40767173Y11502156D01*
X40750150Y11503598D01*
X40717259Y11505106D01*
X40717201Y11505107D01*
X40717178Y11505108D01*
X40680531Y11505841D01*
X40638849Y11506080D01*
X40602793Y11506094D01*
X40594523Y11509524D01*
X40591099Y11517794D01*
X40591099Y11744461D01*
X40594526Y11752734D01*
X40602736Y11756161D01*
X40635008Y11756332D01*
X40673521Y11757219D01*
X40707550Y11759039D01*
X40738009Y11762073D01*
X40765812Y11766599D01*
X40791872Y11772897D01*
X40799435Y11775400D01*
X40816881Y11781174D01*
X40816892Y11781178D01*
X40817103Y11781248D01*
X40842418Y11791931D01*
X40842601Y11792024D01*
X40842613Y11792029D01*
X40868597Y11805158D01*
X40868732Y11805226D01*
X40890041Y11817446D01*
X40898922Y11818588D01*
X40903178Y11816426D01*
G37*
%TD.AperFunction*%
%TD*%
%TA.AperFunction,Conductor*%
%TO.N,row_3*%
G36*
X97918600Y3524445D02*
G01*
X98091231Y3358433D01*
X98094819Y3350229D01*
X98091231Y3341567D01*
X97918600Y3175556D01*
X97910261Y3172291D01*
X97905555Y3173381D01*
X97883818Y3183493D01*
X97857101Y3194609D01*
X97831707Y3203572D01*
X97831531Y3203622D01*
X97831523Y3203624D01*
X97819294Y3207062D01*
X97806672Y3210610D01*
X97806476Y3210651D01*
X97806467Y3210653D01*
X97781219Y3215907D01*
X97781221Y3215907D01*
X97781032Y3215946D01*
X97769983Y3217513D01*
X97753978Y3219784D01*
X97753973Y3219785D01*
X97753822Y3219806D01*
X97724078Y3222416D01*
X97709157Y3223128D01*
X97690904Y3223999D01*
X97690890Y3223999D01*
X97690836Y3224002D01*
X97687769Y3224066D01*
X97653155Y3224788D01*
X97653131Y3224788D01*
X97647445Y3224816D01*
X97621642Y3224943D01*
X97613386Y3228411D01*
X97610000Y3236643D01*
X97610000Y3463357D01*
X97613427Y3471630D01*
X97621643Y3475057D01*
X97653131Y3475211D01*
X97653152Y3475211D01*
X97687383Y3475925D01*
X97690836Y3475997D01*
X97690890Y3476000D01*
X97690904Y3476000D01*
X97709157Y3476871D01*
X97724078Y3477583D01*
X97753822Y3480193D01*
X97753973Y3480214D01*
X97753978Y3480215D01*
X97769983Y3482486D01*
X97781032Y3484053D01*
X97786209Y3485130D01*
X97806467Y3489346D01*
X97806476Y3489348D01*
X97806672Y3489389D01*
X97819294Y3492937D01*
X97831523Y3496375D01*
X97831531Y3496377D01*
X97831707Y3496427D01*
X97857101Y3505390D01*
X97883818Y3516506D01*
X97905556Y3526619D01*
X97914502Y3527002D01*
X97918600Y3524445D01*
G37*
%TD.AperFunction*%
%TD*%
%TA.AperFunction,Conductor*%
%TO.N,row_3*%
G36*
X79094444Y6526619D02*
G01*
X79116181Y6516506D01*
X79142898Y6505390D01*
X79168292Y6496427D01*
X79168468Y6496377D01*
X79168476Y6496375D01*
X79180705Y6492937D01*
X79193327Y6489389D01*
X79193523Y6489348D01*
X79193532Y6489346D01*
X79213790Y6485130D01*
X79218967Y6484053D01*
X79230016Y6482486D01*
X79246021Y6480215D01*
X79246026Y6480214D01*
X79246177Y6480193D01*
X79275921Y6477583D01*
X79290842Y6476871D01*
X79309095Y6476000D01*
X79309109Y6476000D01*
X79309163Y6475997D01*
X79312616Y6475925D01*
X79346847Y6475211D01*
X79346868Y6475211D01*
X79378357Y6475057D01*
X79386614Y6471590D01*
X79390000Y6463357D01*
X79390000Y6236643D01*
X79386573Y6228370D01*
X79378358Y6224943D01*
X79352582Y6224816D01*
X79346868Y6224788D01*
X79346844Y6224788D01*
X79312230Y6224066D01*
X79309163Y6224002D01*
X79309109Y6223999D01*
X79309095Y6223999D01*
X79290842Y6223128D01*
X79275921Y6222416D01*
X79246177Y6219806D01*
X79246026Y6219785D01*
X79246021Y6219784D01*
X79230016Y6217513D01*
X79218967Y6215946D01*
X79218778Y6215907D01*
X79218780Y6215907D01*
X79193532Y6210653D01*
X79193523Y6210651D01*
X79193327Y6210610D01*
X79180705Y6207062D01*
X79168476Y6203624D01*
X79168468Y6203622D01*
X79168292Y6203572D01*
X79142898Y6194609D01*
X79116181Y6183493D01*
X79099120Y6175556D01*
X79094445Y6173381D01*
X79085499Y6172998D01*
X79081400Y6175556D01*
X79001679Y6252220D01*
X78900000Y6350000D01*
X79000000Y6446166D01*
X79081400Y6524444D01*
X79089738Y6527709D01*
X79094444Y6526619D01*
G37*
%TD.AperFunction*%
%TD*%
%TA.AperFunction,Conductor*%
%TO.N,inner_bottom*%
G36*
X97903178Y6816426D02*
G01*
X98090099Y6666620D01*
X98094412Y6658772D01*
X98091619Y6649822D01*
X97934645Y6468925D01*
X97926634Y6464922D01*
X97921860Y6465579D01*
X97896192Y6474780D01*
X97896190Y6474781D01*
X97896097Y6474814D01*
X97865656Y6484323D01*
X97865534Y6484354D01*
X97865528Y6484356D01*
X97837101Y6491643D01*
X97837096Y6491644D01*
X97836956Y6491680D01*
X97808883Y6497161D01*
X97808715Y6497184D01*
X97808702Y6497186D01*
X97788923Y6499873D01*
X97780319Y6501042D01*
X97780167Y6501055D01*
X97780157Y6501056D01*
X97767173Y6502156D01*
X97750150Y6503598D01*
X97717259Y6505106D01*
X97717201Y6505107D01*
X97717178Y6505108D01*
X97680531Y6505841D01*
X97638849Y6506080D01*
X97602793Y6506094D01*
X97594523Y6509524D01*
X97591099Y6517794D01*
X97591099Y6744461D01*
X97594526Y6752734D01*
X97602736Y6756161D01*
X97635008Y6756332D01*
X97673521Y6757219D01*
X97707550Y6759039D01*
X97738009Y6762073D01*
X97765812Y6766599D01*
X97791872Y6772897D01*
X97799435Y6775400D01*
X97816881Y6781174D01*
X97816892Y6781178D01*
X97817103Y6781248D01*
X97842418Y6791931D01*
X97842601Y6792024D01*
X97842613Y6792029D01*
X97868597Y6805158D01*
X97868732Y6805226D01*
X97890041Y6817446D01*
X97898922Y6818588D01*
X97903178Y6816426D01*
G37*
%TD.AperFunction*%
%TD*%
%TA.AperFunction,Conductor*%
%TO.N,inner_home*%
G36*
X97903178Y25816426D02*
G01*
X98090099Y25666620D01*
X98094412Y25658772D01*
X98091619Y25649822D01*
X97934645Y25468925D01*
X97926634Y25464922D01*
X97921860Y25465579D01*
X97896192Y25474780D01*
X97896190Y25474781D01*
X97896097Y25474814D01*
X97865656Y25484323D01*
X97865534Y25484354D01*
X97865528Y25484356D01*
X97837101Y25491643D01*
X97837096Y25491644D01*
X97836956Y25491680D01*
X97808883Y25497161D01*
X97808715Y25497184D01*
X97808702Y25497186D01*
X97788923Y25499873D01*
X97780319Y25501042D01*
X97780167Y25501055D01*
X97780157Y25501056D01*
X97767173Y25502156D01*
X97750150Y25503598D01*
X97717259Y25505106D01*
X97717201Y25505107D01*
X97717178Y25505108D01*
X97680531Y25505841D01*
X97638849Y25506080D01*
X97602793Y25506094D01*
X97594523Y25509524D01*
X97591099Y25517794D01*
X97591099Y25744461D01*
X97594526Y25752734D01*
X97602736Y25756161D01*
X97635008Y25756332D01*
X97673521Y25757219D01*
X97707550Y25759039D01*
X97738009Y25762073D01*
X97765812Y25766599D01*
X97791872Y25772897D01*
X97799435Y25775400D01*
X97816881Y25781174D01*
X97816892Y25781178D01*
X97817103Y25781248D01*
X97842418Y25791931D01*
X97842601Y25792024D01*
X97842613Y25792029D01*
X97868597Y25805158D01*
X97868732Y25805226D01*
X97890041Y25817446D01*
X97898922Y25818588D01*
X97903178Y25816426D01*
G37*
%TD.AperFunction*%
%TD*%
%TA.AperFunction,Conductor*%
%TO.N,row_2*%
G36*
X97918600Y22524445D02*
G01*
X98091231Y22358433D01*
X98094819Y22350229D01*
X98091231Y22341567D01*
X97918600Y22175556D01*
X97910261Y22172291D01*
X97905555Y22173381D01*
X97883818Y22183493D01*
X97857101Y22194609D01*
X97831707Y22203572D01*
X97831531Y22203622D01*
X97831523Y22203624D01*
X97819294Y22207062D01*
X97806672Y22210610D01*
X97806476Y22210651D01*
X97806467Y22210653D01*
X97781219Y22215907D01*
X97781221Y22215907D01*
X97781032Y22215946D01*
X97769983Y22217513D01*
X97753978Y22219784D01*
X97753973Y22219785D01*
X97753822Y22219806D01*
X97724078Y22222416D01*
X97709157Y22223128D01*
X97690904Y22223999D01*
X97690890Y22223999D01*
X97690836Y22224002D01*
X97687769Y22224066D01*
X97653155Y22224788D01*
X97653131Y22224788D01*
X97647445Y22224816D01*
X97621642Y22224943D01*
X97613386Y22228411D01*
X97610000Y22236643D01*
X97610000Y22463357D01*
X97613427Y22471630D01*
X97621643Y22475057D01*
X97653131Y22475211D01*
X97653152Y22475211D01*
X97687383Y22475925D01*
X97690836Y22475997D01*
X97690890Y22476000D01*
X97690904Y22476000D01*
X97709157Y22476871D01*
X97724078Y22477583D01*
X97753822Y22480193D01*
X97753973Y22480214D01*
X97753978Y22480215D01*
X97769983Y22482486D01*
X97781032Y22484053D01*
X97786209Y22485130D01*
X97806467Y22489346D01*
X97806476Y22489348D01*
X97806672Y22489389D01*
X97819294Y22492937D01*
X97831523Y22496375D01*
X97831531Y22496377D01*
X97831707Y22496427D01*
X97857101Y22505390D01*
X97883818Y22516506D01*
X97905556Y22526619D01*
X97914502Y22527002D01*
X97918600Y22524445D01*
G37*
%TD.AperFunction*%
%TD*%
%TA.AperFunction,Conductor*%
%TO.N,row_2*%
G36*
X79094444Y25526619D02*
G01*
X79116181Y25516506D01*
X79142898Y25505390D01*
X79168292Y25496427D01*
X79168468Y25496377D01*
X79168476Y25496375D01*
X79180705Y25492937D01*
X79193327Y25489389D01*
X79193523Y25489348D01*
X79193532Y25489346D01*
X79213790Y25485130D01*
X79218967Y25484053D01*
X79230016Y25482486D01*
X79246021Y25480215D01*
X79246026Y25480214D01*
X79246177Y25480193D01*
X79275921Y25477583D01*
X79290842Y25476871D01*
X79309095Y25476000D01*
X79309109Y25476000D01*
X79309163Y25475997D01*
X79312616Y25475925D01*
X79346847Y25475211D01*
X79346868Y25475211D01*
X79378357Y25475057D01*
X79386614Y25471590D01*
X79390000Y25463357D01*
X79390000Y25236643D01*
X79386573Y25228370D01*
X79378358Y25224943D01*
X79352582Y25224816D01*
X79346868Y25224788D01*
X79346844Y25224788D01*
X79312230Y25224066D01*
X79309163Y25224002D01*
X79309109Y25223999D01*
X79309095Y25223999D01*
X79290842Y25223128D01*
X79275921Y25222416D01*
X79246177Y25219806D01*
X79246026Y25219785D01*
X79246021Y25219784D01*
X79230016Y25217513D01*
X79218967Y25215946D01*
X79218778Y25215907D01*
X79218780Y25215907D01*
X79193532Y25210653D01*
X79193523Y25210651D01*
X79193327Y25210610D01*
X79180705Y25207062D01*
X79168476Y25203624D01*
X79168468Y25203622D01*
X79168292Y25203572D01*
X79142898Y25194609D01*
X79116181Y25183493D01*
X79099120Y25175556D01*
X79094445Y25173381D01*
X79085499Y25172998D01*
X79081400Y25175556D01*
X79001679Y25252220D01*
X78900000Y25350000D01*
X79000000Y25446166D01*
X79081400Y25524444D01*
X79089738Y25527709D01*
X79094444Y25526619D01*
G37*
%TD.AperFunction*%
%TD*%
%TA.AperFunction,Conductor*%
%TO.N,row_2*%
G36*
X78918600Y25524445D02*
G01*
X79100000Y25350000D01*
X79000000Y25253834D01*
X78998408Y25252303D01*
X78918600Y25175556D01*
X78910261Y25172291D01*
X78905555Y25173381D01*
X78883818Y25183493D01*
X78857101Y25194609D01*
X78831707Y25203572D01*
X78831531Y25203622D01*
X78831523Y25203624D01*
X78819294Y25207062D01*
X78806672Y25210610D01*
X78806476Y25210651D01*
X78806467Y25210653D01*
X78781219Y25215907D01*
X78781221Y25215907D01*
X78781032Y25215946D01*
X78769983Y25217513D01*
X78753978Y25219784D01*
X78753973Y25219785D01*
X78753822Y25219806D01*
X78724078Y25222416D01*
X78709157Y25223128D01*
X78690904Y25223999D01*
X78690890Y25223999D01*
X78690836Y25224002D01*
X78687769Y25224066D01*
X78653155Y25224788D01*
X78653131Y25224788D01*
X78647445Y25224816D01*
X78621642Y25224943D01*
X78613386Y25228411D01*
X78610000Y25236643D01*
X78610000Y25463357D01*
X78613427Y25471630D01*
X78621643Y25475057D01*
X78653131Y25475211D01*
X78653152Y25475211D01*
X78687383Y25475925D01*
X78690836Y25475997D01*
X78690890Y25476000D01*
X78690904Y25476000D01*
X78709157Y25476871D01*
X78724078Y25477583D01*
X78753822Y25480193D01*
X78753973Y25480214D01*
X78753978Y25480215D01*
X78769983Y25482486D01*
X78781032Y25484053D01*
X78786209Y25485130D01*
X78806467Y25489346D01*
X78806476Y25489348D01*
X78806672Y25489389D01*
X78819294Y25492937D01*
X78831523Y25496375D01*
X78831531Y25496377D01*
X78831707Y25496427D01*
X78857101Y25505390D01*
X78883818Y25516506D01*
X78905556Y25526619D01*
X78914502Y25527002D01*
X78918600Y25524445D01*
G37*
%TD.AperFunction*%
%TD*%
%TA.AperFunction,Conductor*%
%TO.N,row_2*%
G36*
X60094444Y33526619D02*
G01*
X60116181Y33516506D01*
X60142898Y33505390D01*
X60168292Y33496427D01*
X60168468Y33496377D01*
X60168476Y33496375D01*
X60180705Y33492937D01*
X60193327Y33489389D01*
X60193523Y33489348D01*
X60193532Y33489346D01*
X60213790Y33485130D01*
X60218967Y33484053D01*
X60230016Y33482486D01*
X60246021Y33480215D01*
X60246026Y33480214D01*
X60246177Y33480193D01*
X60275921Y33477583D01*
X60290842Y33476871D01*
X60309095Y33476000D01*
X60309109Y33476000D01*
X60309163Y33475997D01*
X60312616Y33475925D01*
X60346847Y33475211D01*
X60346868Y33475211D01*
X60378357Y33475057D01*
X60386614Y33471590D01*
X60390000Y33463357D01*
X60390000Y33236643D01*
X60386573Y33228370D01*
X60378358Y33224943D01*
X60352582Y33224816D01*
X60346868Y33224788D01*
X60346844Y33224788D01*
X60312230Y33224066D01*
X60309163Y33224002D01*
X60309109Y33223999D01*
X60309095Y33223999D01*
X60290842Y33223128D01*
X60275921Y33222416D01*
X60246177Y33219806D01*
X60246026Y33219785D01*
X60246021Y33219784D01*
X60230016Y33217513D01*
X60218967Y33215946D01*
X60218778Y33215907D01*
X60218780Y33215907D01*
X60193532Y33210653D01*
X60193523Y33210651D01*
X60193327Y33210610D01*
X60180705Y33207062D01*
X60168476Y33203624D01*
X60168468Y33203622D01*
X60168292Y33203572D01*
X60142898Y33194609D01*
X60116181Y33183493D01*
X60099120Y33175556D01*
X60094445Y33173381D01*
X60085499Y33172998D01*
X60081400Y33175556D01*
X60001679Y33252220D01*
X59900000Y33350000D01*
X60000000Y33446166D01*
X60081400Y33524444D01*
X60089738Y33527709D01*
X60094444Y33526619D01*
G37*
%TD.AperFunction*%
%TD*%
%TA.AperFunction,Conductor*%
%TO.N,row_2*%
G36*
X59918600Y33524445D02*
G01*
X60100000Y33350000D01*
X60000000Y33253834D01*
X59998408Y33252303D01*
X59918600Y33175556D01*
X59910261Y33172291D01*
X59905555Y33173381D01*
X59883818Y33183493D01*
X59857101Y33194609D01*
X59831707Y33203572D01*
X59831531Y33203622D01*
X59831523Y33203624D01*
X59819294Y33207062D01*
X59806672Y33210610D01*
X59806476Y33210651D01*
X59806467Y33210653D01*
X59781219Y33215907D01*
X59781221Y33215907D01*
X59781032Y33215946D01*
X59769983Y33217513D01*
X59753978Y33219784D01*
X59753973Y33219785D01*
X59753822Y33219806D01*
X59724078Y33222416D01*
X59709157Y33223128D01*
X59690904Y33223999D01*
X59690890Y33223999D01*
X59690836Y33224002D01*
X59687769Y33224066D01*
X59653155Y33224788D01*
X59653131Y33224788D01*
X59647445Y33224816D01*
X59621642Y33224943D01*
X59613386Y33228411D01*
X59610000Y33236643D01*
X59610000Y33463357D01*
X59613427Y33471630D01*
X59621643Y33475057D01*
X59653131Y33475211D01*
X59653152Y33475211D01*
X59687383Y33475925D01*
X59690836Y33475997D01*
X59690890Y33476000D01*
X59690904Y33476000D01*
X59709157Y33476871D01*
X59724078Y33477583D01*
X59753822Y33480193D01*
X59753973Y33480214D01*
X59753978Y33480215D01*
X59769983Y33482486D01*
X59781032Y33484053D01*
X59786209Y33485130D01*
X59806467Y33489346D01*
X59806476Y33489348D01*
X59806672Y33489389D01*
X59819294Y33492937D01*
X59831523Y33496375D01*
X59831531Y33496377D01*
X59831707Y33496427D01*
X59857101Y33505390D01*
X59883818Y33516506D01*
X59905556Y33526619D01*
X59914502Y33527002D01*
X59918600Y33524445D01*
G37*
%TD.AperFunction*%
%TD*%
%TA.AperFunction,Conductor*%
%TO.N,row_2*%
G36*
X41195616Y27705926D02*
G01*
X41355926Y27545616D01*
X41359353Y27537343D01*
X41355967Y27529111D01*
X41333810Y27506734D01*
X41307704Y27479517D01*
X41285394Y27454973D01*
X41285383Y27454960D01*
X41285320Y27454891D01*
X41266133Y27432013D01*
X41249623Y27410043D01*
X41235266Y27388140D01*
X41222540Y27365461D01*
X41210922Y27341167D01*
X41210871Y27341044D01*
X41210865Y27341030D01*
X41199925Y27314499D01*
X41199916Y27314476D01*
X41199891Y27314415D01*
X41199860Y27314330D01*
X41191671Y27291894D01*
X41185615Y27285298D01*
X41180911Y27284208D01*
X41028487Y27281229D01*
X40929290Y27279290D01*
X40933796Y27509831D01*
X40934191Y27530000D01*
X40934209Y27530911D01*
X40937796Y27539113D01*
X40941894Y27541671D01*
X40964330Y27549860D01*
X40964329Y27549860D01*
X40964415Y27549891D01*
X40964476Y27549916D01*
X40964499Y27549925D01*
X40991030Y27560865D01*
X40991044Y27560871D01*
X40991167Y27560922D01*
X40993912Y27562235D01*
X41015282Y27572454D01*
X41015291Y27572459D01*
X41015461Y27572540D01*
X41038140Y27585266D01*
X41060043Y27599623D01*
X41082013Y27616133D01*
X41104891Y27635320D01*
X41104960Y27635383D01*
X41104973Y27635394D01*
X41129517Y27657704D01*
X41129528Y27657715D01*
X41156734Y27683810D01*
X41156788Y27683863D01*
X41179111Y27705967D01*
X41187401Y27709353D01*
X41195616Y27705926D01*
G37*
%TD.AperFunction*%
%TD*%
%TA.AperFunction,Conductor*%
%TO.N,middle_home*%
G36*
X60063593Y36717143D02*
G01*
X60067181Y36708939D01*
X60066803Y36705753D01*
X60002055Y36457867D01*
X59996649Y36450729D01*
X59991911Y36449183D01*
X59965949Y36446561D01*
X59965947Y36446561D01*
X59965347Y36446500D01*
X59964771Y36446317D01*
X59964769Y36446317D01*
X59947889Y36440965D01*
X59935380Y36437000D01*
X59920978Y36429475D01*
X59908879Y36423154D01*
X59908874Y36423151D01*
X59908585Y36423000D01*
X59883451Y36406000D01*
X59883346Y36405922D01*
X59883340Y36405918D01*
X59858575Y36387581D01*
X59858336Y36387409D01*
X59832527Y36369288D01*
X59831687Y36368750D01*
X59803568Y36352393D01*
X59802184Y36351705D01*
X59770137Y36338357D01*
X59768373Y36337782D01*
X59730689Y36328722D01*
X59728824Y36328430D01*
X59711986Y36327174D01*
X59695412Y36325938D01*
X59686908Y36328740D01*
X59682843Y36337606D01*
X59682843Y36564228D01*
X59686270Y36572501D01*
X59693579Y36575888D01*
X59705077Y36576839D01*
X59708939Y36577158D01*
X59709491Y36577315D01*
X59729897Y36583120D01*
X59729899Y36583121D01*
X59730522Y36583298D01*
X59731086Y36583605D01*
X59731090Y36583607D01*
X59747607Y36592608D01*
X59748178Y36592919D01*
X59748663Y36593346D01*
X59748666Y36593348D01*
X59754920Y36598852D01*
X59762494Y36605519D01*
X59774057Y36620598D01*
X59783451Y36637654D01*
X59791264Y36656187D01*
X59798081Y36675696D01*
X59804490Y36695678D01*
X59804904Y36696932D01*
X59808480Y36707766D01*
X59814327Y36714548D01*
X59819361Y36715797D01*
X60055254Y36720408D01*
X60063593Y36717143D01*
G37*
%TD.AperFunction*%
%TD*%
%TA.AperFunction,Conductor*%
%TO.N,middle_bottom*%
G36*
X60063593Y17717143D02*
G01*
X60067181Y17708939D01*
X60066803Y17705753D01*
X60002055Y17457867D01*
X59996649Y17450729D01*
X59991911Y17449183D01*
X59965949Y17446561D01*
X59965947Y17446561D01*
X59965347Y17446500D01*
X59964771Y17446317D01*
X59964769Y17446317D01*
X59947889Y17440965D01*
X59935380Y17437000D01*
X59920978Y17429475D01*
X59908879Y17423154D01*
X59908874Y17423151D01*
X59908585Y17423000D01*
X59883451Y17406000D01*
X59883346Y17405922D01*
X59883340Y17405918D01*
X59858575Y17387581D01*
X59858336Y17387409D01*
X59832527Y17369288D01*
X59831687Y17368750D01*
X59803568Y17352393D01*
X59802184Y17351705D01*
X59770137Y17338357D01*
X59768373Y17337782D01*
X59730689Y17328722D01*
X59728824Y17328430D01*
X59711986Y17327174D01*
X59695412Y17325938D01*
X59686908Y17328740D01*
X59682843Y17337606D01*
X59682843Y17564228D01*
X59686270Y17572501D01*
X59693579Y17575888D01*
X59705077Y17576839D01*
X59708939Y17577158D01*
X59709491Y17577315D01*
X59729897Y17583120D01*
X59729899Y17583121D01*
X59730522Y17583298D01*
X59731086Y17583605D01*
X59731090Y17583607D01*
X59747607Y17592608D01*
X59748178Y17592919D01*
X59748663Y17593346D01*
X59748666Y17593348D01*
X59754920Y17598852D01*
X59762494Y17605519D01*
X59774057Y17620598D01*
X59783451Y17637654D01*
X59791264Y17656187D01*
X59798081Y17675696D01*
X59804490Y17695678D01*
X59804904Y17696932D01*
X59808480Y17707766D01*
X59814327Y17714548D01*
X59819361Y17715797D01*
X60055254Y17720408D01*
X60063593Y17717143D01*
G37*
%TD.AperFunction*%
%TD*%
%TA.AperFunction,Conductor*%
%TO.N,col_2*%
G36*
X104375208Y50264255D02*
G01*
X104395488Y50244753D01*
X104531874Y50113597D01*
X104641231Y50008433D01*
X104644819Y50000229D01*
X104641231Y49991567D01*
X104441703Y49799690D01*
X104375208Y49735745D01*
X104366869Y49732480D01*
X104361833Y49733730D01*
X104319388Y49755119D01*
X104319142Y49755246D01*
X104275638Y49778474D01*
X104275592Y49778499D01*
X104236392Y49799655D01*
X104236384Y49799659D01*
X104236362Y49799671D01*
X104199360Y49818608D01*
X104162578Y49835111D01*
X104162383Y49835181D01*
X104162376Y49835184D01*
X104124201Y49848918D01*
X104124193Y49848921D01*
X104123958Y49849005D01*
X104123719Y49849068D01*
X104123714Y49849069D01*
X104081700Y49860050D01*
X104081692Y49860052D01*
X104081446Y49860116D01*
X104081187Y49860160D01*
X104081185Y49860160D01*
X104033206Y49868231D01*
X104032986Y49868268D01*
X104032764Y49868288D01*
X104032762Y49868288D01*
X104024074Y49869060D01*
X103976522Y49873288D01*
X103976339Y49873293D01*
X103976334Y49873293D01*
X103921399Y49874707D01*
X103913217Y49878345D01*
X103910000Y49886403D01*
X103910000Y50113597D01*
X103913427Y50121870D01*
X103921399Y50125293D01*
X103976334Y50126706D01*
X103976339Y50126706D01*
X103976522Y50126711D01*
X104024074Y50130939D01*
X104032762Y50131711D01*
X104032764Y50131711D01*
X104032986Y50131731D01*
X104033206Y50131768D01*
X104081185Y50139839D01*
X104081187Y50139839D01*
X104081446Y50139883D01*
X104081692Y50139947D01*
X104081700Y50139949D01*
X104123714Y50150930D01*
X104123719Y50150931D01*
X104123958Y50150994D01*
X104124193Y50151078D01*
X104124201Y50151081D01*
X104162376Y50164815D01*
X104162383Y50164818D01*
X104162578Y50164888D01*
X104199360Y50181391D01*
X104236362Y50200328D01*
X104275638Y50221525D01*
X104319142Y50244753D01*
X104319388Y50244880D01*
X104361833Y50266270D01*
X104370763Y50266933D01*
X104375208Y50264255D01*
G37*
%TD.AperFunction*%
%TD*%
%TA.AperFunction,Conductor*%
%TO.N,row_1*%
G36*
X78918600Y44524445D02*
G01*
X79100000Y44350000D01*
X79000000Y44253834D01*
X78998408Y44252303D01*
X78918600Y44175556D01*
X78910261Y44172291D01*
X78905555Y44173381D01*
X78883818Y44183493D01*
X78857101Y44194609D01*
X78831707Y44203572D01*
X78831531Y44203622D01*
X78831523Y44203624D01*
X78819294Y44207062D01*
X78806672Y44210610D01*
X78806476Y44210651D01*
X78806467Y44210653D01*
X78781219Y44215907D01*
X78781221Y44215907D01*
X78781032Y44215946D01*
X78769983Y44217513D01*
X78753978Y44219784D01*
X78753973Y44219785D01*
X78753822Y44219806D01*
X78724078Y44222416D01*
X78709157Y44223128D01*
X78690904Y44223999D01*
X78690890Y44223999D01*
X78690836Y44224002D01*
X78687769Y44224066D01*
X78653155Y44224788D01*
X78653131Y44224788D01*
X78647445Y44224816D01*
X78621642Y44224943D01*
X78613386Y44228411D01*
X78610000Y44236643D01*
X78610000Y44463357D01*
X78613427Y44471630D01*
X78621643Y44475057D01*
X78653131Y44475211D01*
X78653152Y44475211D01*
X78687383Y44475925D01*
X78690836Y44475997D01*
X78690890Y44476000D01*
X78690904Y44476000D01*
X78709157Y44476871D01*
X78724078Y44477583D01*
X78753822Y44480193D01*
X78753973Y44480214D01*
X78753978Y44480215D01*
X78769983Y44482486D01*
X78781032Y44484053D01*
X78786209Y44485130D01*
X78806467Y44489346D01*
X78806476Y44489348D01*
X78806672Y44489389D01*
X78819294Y44492937D01*
X78831523Y44496375D01*
X78831531Y44496377D01*
X78831707Y44496427D01*
X78857101Y44505390D01*
X78883818Y44516506D01*
X78905556Y44526619D01*
X78914502Y44527002D01*
X78918600Y44524445D01*
G37*
%TD.AperFunction*%
%TD*%
%TA.AperFunction,Conductor*%
%TO.N,row_1*%
G36*
X59979334Y52419732D02*
G01*
X60180638Y52415797D01*
X60188842Y52412209D01*
X60191520Y52407765D01*
X60193065Y52403085D01*
X60195509Y52395678D01*
X60201918Y52375696D01*
X60208735Y52356187D01*
X60216548Y52337654D01*
X60225942Y52320598D01*
X60237505Y52305519D01*
X60245079Y52298852D01*
X60251333Y52293348D01*
X60251336Y52293346D01*
X60251821Y52292919D01*
X60252392Y52292608D01*
X60268909Y52283607D01*
X60268913Y52283605D01*
X60269477Y52283298D01*
X60270100Y52283121D01*
X60270102Y52283120D01*
X60290508Y52277315D01*
X60291060Y52277158D01*
X60295114Y52276823D01*
X60306421Y52275888D01*
X60314384Y52271791D01*
X60317157Y52264228D01*
X60317157Y52037606D01*
X60313730Y52029333D01*
X60304588Y52025938D01*
X60288527Y52027136D01*
X60271175Y52028430D01*
X60269310Y52028722D01*
X60231626Y52037782D01*
X60229862Y52038357D01*
X60197815Y52051705D01*
X60196431Y52052393D01*
X60168312Y52068750D01*
X60167472Y52069288D01*
X60141663Y52087409D01*
X60141424Y52087581D01*
X60116659Y52105918D01*
X60116653Y52105922D01*
X60116548Y52106000D01*
X60091414Y52123000D01*
X60091125Y52123151D01*
X60091120Y52123154D01*
X60067746Y52135366D01*
X60064619Y52137000D01*
X60034652Y52146500D01*
X60034054Y52146560D01*
X60034051Y52146561D01*
X60030550Y52146914D01*
X60000000Y52150000D01*
X59929781Y52418832D01*
X59931519Y52419592D01*
X59936435Y52420570D01*
X59979334Y52419732D01*
G37*
%TD.AperFunction*%
%TD*%
%TA.AperFunction,Conductor*%
%TO.N,row_1*%
G36*
X60069090Y52419604D02*
G01*
X60070675Y52418911D01*
X60065635Y52161077D01*
X60035584Y52150108D01*
X60028372Y52147134D01*
X60023545Y52145144D01*
X60008969Y52139134D01*
X60008955Y52139128D01*
X60008832Y52139077D01*
X60008692Y52139010D01*
X59984717Y52127545D01*
X59984708Y52127540D01*
X59984538Y52127459D01*
X59961859Y52114733D01*
X59939956Y52100376D01*
X59917986Y52083866D01*
X59895108Y52064679D01*
X59895039Y52064616D01*
X59895026Y52064605D01*
X59870482Y52042295D01*
X59843265Y52016189D01*
X59843211Y52016136D01*
X59820889Y51994033D01*
X59812599Y51990647D01*
X59804384Y51994074D01*
X59644074Y52154384D01*
X59640647Y52162657D01*
X59644033Y52170889D01*
X59666189Y52193265D01*
X59692295Y52220482D01*
X59692305Y52220493D01*
X59714605Y52245026D01*
X59714616Y52245039D01*
X59714679Y52245108D01*
X59733866Y52267986D01*
X59750376Y52289956D01*
X59764733Y52311859D01*
X59777459Y52334538D01*
X59789077Y52358832D01*
X59789128Y52358955D01*
X59789134Y52358969D01*
X59800074Y52385500D01*
X59800082Y52385521D01*
X59800108Y52385584D01*
X59808329Y52408106D01*
X59814385Y52414702D01*
X59819089Y52415792D01*
X60027102Y52419858D01*
X60064173Y52420582D01*
X60069090Y52419604D01*
G37*
%TD.AperFunction*%
%TD*%
%TA.AperFunction,Conductor*%
%TO.N,row_1*%
G36*
X41195616Y46705926D02*
G01*
X41355926Y46545616D01*
X41359353Y46537343D01*
X41355967Y46529111D01*
X41333810Y46506734D01*
X41307704Y46479517D01*
X41285394Y46454973D01*
X41285383Y46454960D01*
X41285320Y46454891D01*
X41266133Y46432013D01*
X41249623Y46410043D01*
X41235266Y46388140D01*
X41222540Y46365461D01*
X41210922Y46341167D01*
X41210871Y46341044D01*
X41210865Y46341030D01*
X41199925Y46314499D01*
X41199916Y46314476D01*
X41199891Y46314415D01*
X41199860Y46314330D01*
X41191671Y46291894D01*
X41185615Y46285298D01*
X41180911Y46284208D01*
X40929290Y46279290D01*
X40934208Y46530910D01*
X40937796Y46539113D01*
X40941894Y46541671D01*
X40964330Y46549860D01*
X40964329Y46549860D01*
X40964415Y46549891D01*
X40964476Y46549916D01*
X40964499Y46549925D01*
X40991030Y46560865D01*
X40991044Y46560871D01*
X40991167Y46560922D01*
X40993912Y46562235D01*
X41015282Y46572454D01*
X41015291Y46572459D01*
X41015461Y46572540D01*
X41038140Y46585266D01*
X41060043Y46599623D01*
X41082013Y46616133D01*
X41104891Y46635320D01*
X41104960Y46635383D01*
X41104973Y46635394D01*
X41129517Y46657704D01*
X41129528Y46657715D01*
X41156734Y46683810D01*
X41156788Y46683863D01*
X41179111Y46705967D01*
X41187401Y46709353D01*
X41195616Y46705926D01*
G37*
%TD.AperFunction*%
%TD*%
%TA.AperFunction,Conductor*%
%TO.N,ring_top*%
G36*
X40903178Y49816426D02*
G01*
X41090099Y49666620D01*
X41094412Y49658772D01*
X41091619Y49649822D01*
X40934645Y49468925D01*
X40926634Y49464922D01*
X40921860Y49465579D01*
X40896192Y49474780D01*
X40896190Y49474781D01*
X40896097Y49474814D01*
X40865656Y49484323D01*
X40865534Y49484354D01*
X40865528Y49484356D01*
X40837101Y49491643D01*
X40837096Y49491644D01*
X40836956Y49491680D01*
X40808883Y49497161D01*
X40808715Y49497184D01*
X40808702Y49497186D01*
X40788923Y49499873D01*
X40780319Y49501042D01*
X40780167Y49501055D01*
X40780157Y49501056D01*
X40767173Y49502156D01*
X40750150Y49503598D01*
X40717259Y49505106D01*
X40717201Y49505107D01*
X40717178Y49505108D01*
X40680531Y49505841D01*
X40638849Y49506080D01*
X40602793Y49506094D01*
X40594523Y49509524D01*
X40591099Y49517794D01*
X40591099Y49744461D01*
X40594526Y49752734D01*
X40602736Y49756161D01*
X40635008Y49756332D01*
X40673521Y49757219D01*
X40707550Y49759039D01*
X40738009Y49762073D01*
X40765812Y49766599D01*
X40791872Y49772897D01*
X40799435Y49775400D01*
X40816881Y49781174D01*
X40816892Y49781178D01*
X40817103Y49781248D01*
X40842418Y49791931D01*
X40842601Y49792024D01*
X40842613Y49792029D01*
X40868597Y49805158D01*
X40868732Y49805226D01*
X40890041Y49817446D01*
X40898922Y49818588D01*
X40903178Y49816426D01*
G37*
%TD.AperFunction*%
%TD*%
%TA.AperFunction,Conductor*%
%TO.N,row_3*%
G36*
X22094444Y-3473381D02*
G01*
X22116181Y-3483493D01*
X22142898Y-3494609D01*
X22168292Y-3503572D01*
X22168468Y-3503622D01*
X22168476Y-3503624D01*
X22180705Y-3507062D01*
X22193327Y-3510610D01*
X22193523Y-3510651D01*
X22193532Y-3510653D01*
X22213790Y-3514869D01*
X22218967Y-3515946D01*
X22230016Y-3517513D01*
X22246021Y-3519784D01*
X22246026Y-3519785D01*
X22246177Y-3519806D01*
X22275921Y-3522416D01*
X22290842Y-3523128D01*
X22309095Y-3523999D01*
X22309109Y-3523999D01*
X22309163Y-3524002D01*
X22312230Y-3524066D01*
X22346844Y-3524788D01*
X22346868Y-3524788D01*
X22352582Y-3524816D01*
X22378358Y-3524943D01*
X22386614Y-3528411D01*
X22390000Y-3536643D01*
X22390000Y-3763357D01*
X22386573Y-3771630D01*
X22378357Y-3775057D01*
X22346868Y-3775211D01*
X22346847Y-3775211D01*
X22312616Y-3775925D01*
X22309163Y-3775997D01*
X22309109Y-3776000D01*
X22309095Y-3776000D01*
X22290842Y-3776871D01*
X22275921Y-3777583D01*
X22246177Y-3780193D01*
X22246026Y-3780214D01*
X22246021Y-3780215D01*
X22230016Y-3782486D01*
X22218967Y-3784053D01*
X22218778Y-3784092D01*
X22218780Y-3784092D01*
X22193532Y-3789346D01*
X22193523Y-3789348D01*
X22193327Y-3789389D01*
X22180705Y-3792937D01*
X22168476Y-3796375D01*
X22168468Y-3796377D01*
X22168292Y-3796427D01*
X22142898Y-3805390D01*
X22116181Y-3816506D01*
X22099119Y-3824444D01*
X22094444Y-3826619D01*
X22085498Y-3827002D01*
X22081399Y-3824444D01*
X22073212Y-3816570D01*
X21908769Y-3658433D01*
X21905181Y-3650229D01*
X21908769Y-3641567D01*
X22081400Y-3475556D01*
X22089739Y-3472291D01*
X22094444Y-3473381D01*
G37*
%TD.AperFunction*%
%TD*%
%TA.AperFunction,Conductor*%
%TO.N,row_3*%
G36*
X40918600Y8524445D02*
G01*
X41100000Y8350000D01*
X41000000Y8253834D01*
X40998408Y8252303D01*
X40918600Y8175556D01*
X40910261Y8172291D01*
X40905555Y8173381D01*
X40883818Y8183493D01*
X40857101Y8194609D01*
X40831707Y8203572D01*
X40831531Y8203622D01*
X40831523Y8203624D01*
X40819294Y8207062D01*
X40806672Y8210610D01*
X40806476Y8210651D01*
X40806467Y8210653D01*
X40781219Y8215907D01*
X40781221Y8215907D01*
X40781032Y8215946D01*
X40769983Y8217513D01*
X40753978Y8219784D01*
X40753973Y8219785D01*
X40753822Y8219806D01*
X40724078Y8222416D01*
X40709157Y8223128D01*
X40690904Y8223999D01*
X40690890Y8223999D01*
X40690836Y8224002D01*
X40687769Y8224066D01*
X40653155Y8224788D01*
X40653131Y8224788D01*
X40647445Y8224816D01*
X40621642Y8224943D01*
X40613386Y8228411D01*
X40610000Y8236643D01*
X40610000Y8463357D01*
X40613427Y8471630D01*
X40621643Y8475057D01*
X40653131Y8475211D01*
X40653152Y8475211D01*
X40687383Y8475925D01*
X40690836Y8475997D01*
X40690890Y8476000D01*
X40690904Y8476000D01*
X40709157Y8476871D01*
X40724078Y8477583D01*
X40753822Y8480193D01*
X40753973Y8480214D01*
X40753978Y8480215D01*
X40769983Y8482486D01*
X40781032Y8484053D01*
X40786209Y8485130D01*
X40806467Y8489346D01*
X40806476Y8489348D01*
X40806672Y8489389D01*
X40819294Y8492937D01*
X40831523Y8496375D01*
X40831531Y8496377D01*
X40831707Y8496427D01*
X40857101Y8505390D01*
X40883818Y8516506D01*
X40905556Y8526619D01*
X40914502Y8527002D01*
X40918600Y8524445D01*
G37*
%TD.AperFunction*%
%TD*%
%TA.AperFunction,Conductor*%
%TO.N,col_2*%
G36*
X26638167Y-483730D02*
G01*
X26680611Y-505119D01*
X26680857Y-505246D01*
X26724361Y-528474D01*
X26763637Y-549671D01*
X26800639Y-568608D01*
X26837421Y-585111D01*
X26837616Y-585181D01*
X26837623Y-585184D01*
X26875798Y-598918D01*
X26875806Y-598921D01*
X26876041Y-599005D01*
X26876280Y-599068D01*
X26876285Y-599069D01*
X26918299Y-610050D01*
X26918307Y-610052D01*
X26918553Y-610116D01*
X26918812Y-610160D01*
X26918814Y-610160D01*
X26966793Y-618231D01*
X26967013Y-618268D01*
X26967235Y-618288D01*
X26967237Y-618288D01*
X26975925Y-619060D01*
X27023477Y-623288D01*
X27023660Y-623293D01*
X27023665Y-623293D01*
X27078601Y-624707D01*
X27086783Y-628345D01*
X27090000Y-636403D01*
X27090000Y-863597D01*
X27086573Y-871870D01*
X27078601Y-875293D01*
X27023665Y-876706D01*
X27023660Y-876706D01*
X27023477Y-876711D01*
X26975925Y-880939D01*
X26967237Y-881711D01*
X26967235Y-881711D01*
X26967013Y-881731D01*
X26966793Y-881768D01*
X26918814Y-889839D01*
X26918812Y-889839D01*
X26918553Y-889883D01*
X26918307Y-889947D01*
X26918299Y-889949D01*
X26876285Y-900930D01*
X26876280Y-900931D01*
X26876041Y-900994D01*
X26875806Y-901078D01*
X26875798Y-901081D01*
X26837623Y-914815D01*
X26837616Y-914818D01*
X26837421Y-914888D01*
X26800639Y-931391D01*
X26763637Y-950328D01*
X26763615Y-950340D01*
X26763607Y-950344D01*
X26724407Y-971500D01*
X26724361Y-971525D01*
X26680857Y-994753D01*
X26680611Y-994880D01*
X26638167Y-1016270D01*
X26629237Y-1016933D01*
X26624792Y-1014255D01*
X26538624Y-931391D01*
X26358769Y-758433D01*
X26355181Y-750229D01*
X26358769Y-741567D01*
X26468127Y-636403D01*
X26604513Y-505246D01*
X26624792Y-485745D01*
X26633131Y-482480D01*
X26638167Y-483730D01*
G37*
%TD.AperFunction*%
%TD*%
%TA.AperFunction,Conductor*%
%TO.N,row_3*%
G36*
X78918600Y6524445D02*
G01*
X79100000Y6350000D01*
X79000000Y6253834D01*
X78998408Y6252303D01*
X78918600Y6175556D01*
X78910261Y6172291D01*
X78905555Y6173381D01*
X78883818Y6183493D01*
X78857101Y6194609D01*
X78831707Y6203572D01*
X78831531Y6203622D01*
X78831523Y6203624D01*
X78819294Y6207062D01*
X78806672Y6210610D01*
X78806476Y6210651D01*
X78806467Y6210653D01*
X78781219Y6215907D01*
X78781221Y6215907D01*
X78781032Y6215946D01*
X78769983Y6217513D01*
X78753978Y6219784D01*
X78753973Y6219785D01*
X78753822Y6219806D01*
X78724078Y6222416D01*
X78709157Y6223128D01*
X78690904Y6223999D01*
X78690890Y6223999D01*
X78690836Y6224002D01*
X78687769Y6224066D01*
X78653155Y6224788D01*
X78653131Y6224788D01*
X78647445Y6224816D01*
X78621642Y6224943D01*
X78613386Y6228411D01*
X78610000Y6236643D01*
X78610000Y6463357D01*
X78613427Y6471630D01*
X78621643Y6475057D01*
X78653131Y6475211D01*
X78653152Y6475211D01*
X78687383Y6475925D01*
X78690836Y6475997D01*
X78690890Y6476000D01*
X78690904Y6476000D01*
X78709157Y6476871D01*
X78724078Y6477583D01*
X78753822Y6480193D01*
X78753973Y6480214D01*
X78753978Y6480215D01*
X78769983Y6482486D01*
X78781032Y6484053D01*
X78786209Y6485130D01*
X78806467Y6489346D01*
X78806476Y6489348D01*
X78806672Y6489389D01*
X78819294Y6492937D01*
X78831523Y6496375D01*
X78831531Y6496377D01*
X78831707Y6496427D01*
X78857101Y6505390D01*
X78883818Y6516506D01*
X78905556Y6526619D01*
X78914502Y6527002D01*
X78918600Y6524445D01*
G37*
%TD.AperFunction*%
%TD*%
%TA.AperFunction,Conductor*%
%TO.N,row_3*%
G36*
X60094444Y14526619D02*
G01*
X60116181Y14516506D01*
X60142898Y14505390D01*
X60168292Y14496427D01*
X60168468Y14496377D01*
X60168476Y14496375D01*
X60180705Y14492937D01*
X60193327Y14489389D01*
X60193523Y14489348D01*
X60193532Y14489346D01*
X60213790Y14485130D01*
X60218967Y14484053D01*
X60230016Y14482486D01*
X60246021Y14480215D01*
X60246026Y14480214D01*
X60246177Y14480193D01*
X60275921Y14477583D01*
X60290842Y14476871D01*
X60309095Y14476000D01*
X60309109Y14476000D01*
X60309163Y14475997D01*
X60312616Y14475925D01*
X60346847Y14475211D01*
X60346868Y14475211D01*
X60378357Y14475057D01*
X60386614Y14471590D01*
X60390000Y14463357D01*
X60390000Y14236643D01*
X60386573Y14228370D01*
X60378358Y14224943D01*
X60352582Y14224816D01*
X60346868Y14224788D01*
X60346844Y14224788D01*
X60312230Y14224066D01*
X60309163Y14224002D01*
X60309109Y14223999D01*
X60309095Y14223999D01*
X60290842Y14223128D01*
X60275921Y14222416D01*
X60246177Y14219806D01*
X60246026Y14219785D01*
X60246021Y14219784D01*
X60230016Y14217513D01*
X60218967Y14215946D01*
X60218778Y14215907D01*
X60218780Y14215907D01*
X60193532Y14210653D01*
X60193523Y14210651D01*
X60193327Y14210610D01*
X60180705Y14207062D01*
X60168476Y14203624D01*
X60168468Y14203622D01*
X60168292Y14203572D01*
X60142898Y14194609D01*
X60116181Y14183493D01*
X60099120Y14175556D01*
X60094445Y14173381D01*
X60085499Y14172998D01*
X60081400Y14175556D01*
X60001679Y14252220D01*
X59900000Y14350000D01*
X60000000Y14446166D01*
X60081400Y14524444D01*
X60089738Y14527709D01*
X60094444Y14526619D01*
G37*
%TD.AperFunction*%
%TD*%
%TA.AperFunction,Conductor*%
%TO.N,row_3*%
G36*
X41094444Y8526619D02*
G01*
X41116181Y8516506D01*
X41142898Y8505390D01*
X41168292Y8496427D01*
X41168468Y8496377D01*
X41168476Y8496375D01*
X41180705Y8492937D01*
X41193327Y8489389D01*
X41193523Y8489348D01*
X41193532Y8489346D01*
X41213790Y8485130D01*
X41218967Y8484053D01*
X41230016Y8482486D01*
X41246021Y8480215D01*
X41246026Y8480214D01*
X41246177Y8480193D01*
X41275921Y8477583D01*
X41290842Y8476871D01*
X41309095Y8476000D01*
X41309109Y8476000D01*
X41309163Y8475997D01*
X41312616Y8475925D01*
X41346847Y8475211D01*
X41346868Y8475211D01*
X41378357Y8475057D01*
X41386614Y8471590D01*
X41390000Y8463357D01*
X41390000Y8236643D01*
X41386573Y8228370D01*
X41378358Y8224943D01*
X41352582Y8224816D01*
X41346868Y8224788D01*
X41346844Y8224788D01*
X41312230Y8224066D01*
X41309163Y8224002D01*
X41309109Y8223999D01*
X41309095Y8223999D01*
X41290842Y8223128D01*
X41275921Y8222416D01*
X41246177Y8219806D01*
X41246026Y8219785D01*
X41246021Y8219784D01*
X41230016Y8217513D01*
X41218967Y8215946D01*
X41218778Y8215907D01*
X41218780Y8215907D01*
X41193532Y8210653D01*
X41193523Y8210651D01*
X41193327Y8210610D01*
X41180705Y8207062D01*
X41168476Y8203624D01*
X41168468Y8203622D01*
X41168292Y8203572D01*
X41142898Y8194609D01*
X41116181Y8183493D01*
X41099120Y8175556D01*
X41094445Y8173381D01*
X41085499Y8172998D01*
X41081400Y8175556D01*
X41001679Y8252220D01*
X40900000Y8350000D01*
X41000000Y8446166D01*
X41081400Y8524444D01*
X41089738Y8527709D01*
X41094444Y8526619D01*
G37*
%TD.AperFunction*%
%TD*%
%TA.AperFunction,Conductor*%
%TO.N,row_3*%
G36*
X59918600Y14524445D02*
G01*
X60100000Y14350000D01*
X60000000Y14253834D01*
X59998408Y14252303D01*
X59918600Y14175556D01*
X59910261Y14172291D01*
X59905555Y14173381D01*
X59883818Y14183493D01*
X59857101Y14194609D01*
X59831707Y14203572D01*
X59831531Y14203622D01*
X59831523Y14203624D01*
X59819294Y14207062D01*
X59806672Y14210610D01*
X59806476Y14210651D01*
X59806467Y14210653D01*
X59781219Y14215907D01*
X59781221Y14215907D01*
X59781032Y14215946D01*
X59769983Y14217513D01*
X59753978Y14219784D01*
X59753973Y14219785D01*
X59753822Y14219806D01*
X59724078Y14222416D01*
X59709157Y14223128D01*
X59690904Y14223999D01*
X59690890Y14223999D01*
X59690836Y14224002D01*
X59687769Y14224066D01*
X59653155Y14224788D01*
X59653131Y14224788D01*
X59647445Y14224816D01*
X59621642Y14224943D01*
X59613386Y14228411D01*
X59610000Y14236643D01*
X59610000Y14463357D01*
X59613427Y14471630D01*
X59621643Y14475057D01*
X59653131Y14475211D01*
X59653152Y14475211D01*
X59687383Y14475925D01*
X59690836Y14475997D01*
X59690890Y14476000D01*
X59690904Y14476000D01*
X59709157Y14476871D01*
X59724078Y14477583D01*
X59753822Y14480193D01*
X59753973Y14480214D01*
X59753978Y14480215D01*
X59769983Y14482486D01*
X59781032Y14484053D01*
X59786209Y14485130D01*
X59806467Y14489346D01*
X59806476Y14489348D01*
X59806672Y14489389D01*
X59819294Y14492937D01*
X59831523Y14496375D01*
X59831531Y14496377D01*
X59831707Y14496427D01*
X59857101Y14505390D01*
X59883818Y14516506D01*
X59905556Y14526619D01*
X59914502Y14527002D01*
X59918600Y14524445D01*
G37*
%TD.AperFunction*%
%TD*%
%TA.AperFunction,Conductor*%
%TO.N,col_2*%
G36*
X26179464Y2247727D02*
G01*
X26219445Y2209752D01*
X26262920Y2173376D01*
X26302951Y2144874D01*
X26303185Y2144737D01*
X26303188Y2144735D01*
X26340634Y2122806D01*
X26340642Y2122802D01*
X26340867Y2122670D01*
X26378000Y2105186D01*
X26378202Y2105109D01*
X26378214Y2105104D01*
X26405822Y2094597D01*
X26415678Y2090846D01*
X26455233Y2078073D01*
X26455282Y2078058D01*
X26455302Y2078052D01*
X26497942Y2065305D01*
X26497993Y2065290D01*
X26545183Y2050951D01*
X26545446Y2050867D01*
X26590581Y2035981D01*
X26597364Y2030136D01*
X26598614Y2025099D01*
X26605828Y1656099D01*
X26602563Y1647760D01*
X26593901Y1644172D01*
X26224901Y1651386D01*
X26216697Y1654974D01*
X26214019Y1659419D01*
X26199132Y1704553D01*
X26199048Y1704816D01*
X26184709Y1752006D01*
X26184694Y1752057D01*
X26171947Y1794697D01*
X26171939Y1794723D01*
X26171926Y1794766D01*
X26159153Y1834321D01*
X26155402Y1844177D01*
X26144895Y1871785D01*
X26144890Y1871797D01*
X26144813Y1871999D01*
X26127329Y1909132D01*
X26105125Y1947048D01*
X26076623Y1987079D01*
X26040247Y2030554D01*
X26002271Y2070537D01*
X25999059Y2078893D01*
X26002482Y2086865D01*
X26163134Y2247517D01*
X26171407Y2250944D01*
X26179464Y2247727D01*
G37*
%TD.AperFunction*%
%TD*%
%TA.AperFunction,Conductor*%
%TO.N,pinkie_bottom*%
G36*
X21903178Y-183574D02*
G01*
X22090099Y-333380D01*
X22094412Y-341228D01*
X22091619Y-350178D01*
X21934645Y-531075D01*
X21926634Y-535078D01*
X21921860Y-534421D01*
X21896192Y-525219D01*
X21896190Y-525218D01*
X21896097Y-525185D01*
X21865656Y-515676D01*
X21865534Y-515645D01*
X21865528Y-515643D01*
X21837101Y-508356D01*
X21837096Y-508355D01*
X21836956Y-508319D01*
X21808883Y-502838D01*
X21808715Y-502815D01*
X21808702Y-502813D01*
X21788923Y-500126D01*
X21780319Y-498957D01*
X21780167Y-498944D01*
X21780157Y-498943D01*
X21767173Y-497843D01*
X21750150Y-496401D01*
X21717259Y-494893D01*
X21717201Y-494892D01*
X21717178Y-494891D01*
X21680531Y-494158D01*
X21638849Y-493919D01*
X21638815Y-493919D01*
X21602794Y-493905D01*
X21594523Y-490475D01*
X21591099Y-482205D01*
X21591099Y-255539D01*
X21594526Y-247266D01*
X21602737Y-243839D01*
X21604685Y-243829D01*
X21635008Y-243667D01*
X21673521Y-242780D01*
X21707550Y-240960D01*
X21738009Y-237926D01*
X21765812Y-233400D01*
X21791872Y-227102D01*
X21799435Y-224599D01*
X21816881Y-218825D01*
X21816892Y-218821D01*
X21817103Y-218751D01*
X21842418Y-208068D01*
X21842601Y-207975D01*
X21842613Y-207970D01*
X21868597Y-194841D01*
X21868732Y-194773D01*
X21890041Y-182554D01*
X21898923Y-181412D01*
X21903178Y-183574D01*
G37*
%TD.AperFunction*%
%TD*%
%TA.AperFunction,Conductor*%
%TO.N,row_2*%
G36*
X40918600Y27524445D02*
G01*
X41100000Y27350000D01*
X41028487Y27281229D01*
X41026895Y27279698D01*
X40918600Y27175556D01*
X40910261Y27172291D01*
X40905555Y27173381D01*
X40883818Y27183493D01*
X40857101Y27194609D01*
X40831707Y27203572D01*
X40831531Y27203622D01*
X40831523Y27203624D01*
X40819294Y27207062D01*
X40806672Y27210610D01*
X40806476Y27210651D01*
X40806467Y27210653D01*
X40781219Y27215907D01*
X40781221Y27215907D01*
X40781032Y27215946D01*
X40769983Y27217513D01*
X40753978Y27219784D01*
X40753973Y27219785D01*
X40753822Y27219806D01*
X40724078Y27222416D01*
X40709157Y27223128D01*
X40690904Y27223999D01*
X40690890Y27223999D01*
X40690836Y27224002D01*
X40687769Y27224066D01*
X40653155Y27224788D01*
X40653131Y27224788D01*
X40647445Y27224816D01*
X40621642Y27224943D01*
X40613386Y27228411D01*
X40610000Y27236643D01*
X40610000Y27463357D01*
X40613427Y27471630D01*
X40621643Y27475057D01*
X40653131Y27475211D01*
X40653152Y27475211D01*
X40687383Y27475925D01*
X40690836Y27475997D01*
X40690890Y27476000D01*
X40690904Y27476000D01*
X40709157Y27476871D01*
X40724078Y27477583D01*
X40753822Y27480193D01*
X40753973Y27480214D01*
X40753978Y27480215D01*
X40769983Y27482486D01*
X40781032Y27484053D01*
X40786209Y27485130D01*
X40806467Y27489346D01*
X40806476Y27489348D01*
X40806672Y27489389D01*
X40819294Y27492937D01*
X40831523Y27496375D01*
X40831531Y27496377D01*
X40831707Y27496427D01*
X40857101Y27505390D01*
X40883818Y27516506D01*
X40900881Y27524444D01*
X40905556Y27526619D01*
X40914502Y27527002D01*
X40918600Y27524445D01*
G37*
%TD.AperFunction*%
%TD*%
%TA.AperFunction,Conductor*%
%TO.N,row_2*%
G36*
X22195616Y15705926D02*
G01*
X22355926Y15545616D01*
X22359353Y15537343D01*
X22355967Y15529111D01*
X22333810Y15506734D01*
X22307704Y15479517D01*
X22285394Y15454973D01*
X22285383Y15454960D01*
X22285320Y15454891D01*
X22266133Y15432013D01*
X22249623Y15410043D01*
X22235266Y15388140D01*
X22222540Y15365461D01*
X22210922Y15341167D01*
X22210871Y15341044D01*
X22210865Y15341030D01*
X22199925Y15314499D01*
X22199916Y15314476D01*
X22199891Y15314415D01*
X22199860Y15314330D01*
X22191671Y15291894D01*
X22185615Y15285298D01*
X22180911Y15284208D01*
X21972898Y15280142D01*
X21935827Y15279418D01*
X21930910Y15280396D01*
X21929325Y15281089D01*
X21934365Y15538923D01*
X21964415Y15549891D01*
X21991167Y15560922D01*
X22000000Y15565146D01*
X22001677Y15565948D01*
X22015282Y15572454D01*
X22015291Y15572459D01*
X22015461Y15572540D01*
X22038140Y15585266D01*
X22060043Y15599623D01*
X22082013Y15616133D01*
X22104891Y15635320D01*
X22104960Y15635383D01*
X22104973Y15635394D01*
X22129517Y15657704D01*
X22129528Y15657715D01*
X22156734Y15683810D01*
X22156788Y15683863D01*
X22179111Y15705967D01*
X22187401Y15709353D01*
X22195616Y15705926D01*
G37*
%TD.AperFunction*%
%TD*%
%TA.AperFunction,Conductor*%
%TO.N,row_2*%
G36*
X3195616Y13705926D02*
G01*
X3355926Y13545616D01*
X3359353Y13537343D01*
X3355967Y13529111D01*
X3333810Y13506734D01*
X3307704Y13479517D01*
X3285394Y13454973D01*
X3285383Y13454960D01*
X3285320Y13454891D01*
X3266133Y13432013D01*
X3249623Y13410043D01*
X3235266Y13388140D01*
X3222540Y13365461D01*
X3210922Y13341167D01*
X3210871Y13341044D01*
X3210865Y13341030D01*
X3199925Y13314499D01*
X3199916Y13314476D01*
X3199891Y13314415D01*
X3199860Y13314330D01*
X3191671Y13291894D01*
X3185615Y13285298D01*
X3180911Y13284208D01*
X3031741Y13281293D01*
X2941455Y13279528D01*
X2933116Y13282793D01*
X2929528Y13291455D01*
X2934208Y13530909D01*
X2937796Y13539113D01*
X2941894Y13541671D01*
X2964330Y13549860D01*
X2964329Y13549860D01*
X2964415Y13549891D01*
X2964476Y13549916D01*
X2964499Y13549925D01*
X2991030Y13560865D01*
X2991044Y13560871D01*
X2991167Y13560922D01*
X2993912Y13562235D01*
X3015282Y13572454D01*
X3015291Y13572459D01*
X3015461Y13572540D01*
X3038140Y13585266D01*
X3060043Y13599623D01*
X3082013Y13616133D01*
X3104891Y13635320D01*
X3104960Y13635383D01*
X3104973Y13635394D01*
X3129517Y13657704D01*
X3129528Y13657715D01*
X3156734Y13683810D01*
X3156788Y13683863D01*
X3179111Y13705967D01*
X3187401Y13709353D01*
X3195616Y13705926D01*
G37*
%TD.AperFunction*%
%TD*%
%TA.AperFunction,Conductor*%
%TO.N,row_2*%
G36*
X21820889Y15705967D02*
G01*
X21843211Y15683863D01*
X21843265Y15683810D01*
X21870471Y15657715D01*
X21870482Y15657704D01*
X21895026Y15635394D01*
X21895039Y15635383D01*
X21895108Y15635320D01*
X21917986Y15616133D01*
X21939956Y15599623D01*
X21961859Y15585266D01*
X21984538Y15572540D01*
X22008832Y15560922D01*
X22035584Y15549891D01*
X22065635Y15538923D01*
X22070656Y15282053D01*
X22070675Y15281089D01*
X22069090Y15280396D01*
X22064173Y15279418D01*
X22027102Y15280142D01*
X21819090Y15284208D01*
X21810887Y15287796D01*
X21808329Y15291894D01*
X21800139Y15314329D01*
X21800108Y15314415D01*
X21800082Y15314478D01*
X21800074Y15314499D01*
X21789134Y15341030D01*
X21789128Y15341044D01*
X21789077Y15341167D01*
X21777459Y15365461D01*
X21764733Y15388140D01*
X21750376Y15410043D01*
X21733866Y15432013D01*
X21714679Y15454891D01*
X21714616Y15454960D01*
X21714605Y15454973D01*
X21692295Y15479517D01*
X21666189Y15506734D01*
X21644031Y15529111D01*
X21640646Y15537400D01*
X21644073Y15545615D01*
X21804384Y15705926D01*
X21812657Y15709353D01*
X21820889Y15705967D01*
G37*
%TD.AperFunction*%
%TD*%
%TA.AperFunction,Conductor*%
%TO.N,pinkie_home*%
G36*
X22063593Y18717143D02*
G01*
X22067181Y18708939D01*
X22066803Y18705753D01*
X22002055Y18457867D01*
X21996649Y18450729D01*
X21991911Y18449183D01*
X21965949Y18446561D01*
X21965947Y18446561D01*
X21965347Y18446500D01*
X21964771Y18446317D01*
X21964769Y18446317D01*
X21947889Y18440965D01*
X21935380Y18437000D01*
X21920978Y18429475D01*
X21908879Y18423154D01*
X21908874Y18423151D01*
X21908585Y18423000D01*
X21883451Y18406000D01*
X21883346Y18405922D01*
X21883340Y18405918D01*
X21858575Y18387581D01*
X21858336Y18387409D01*
X21832527Y18369288D01*
X21831687Y18368750D01*
X21803568Y18352393D01*
X21802184Y18351705D01*
X21770137Y18338357D01*
X21768373Y18337782D01*
X21730689Y18328722D01*
X21728824Y18328430D01*
X21711986Y18327174D01*
X21695412Y18325938D01*
X21686908Y18328740D01*
X21682843Y18337606D01*
X21682843Y18564228D01*
X21686270Y18572501D01*
X21693579Y18575888D01*
X21705077Y18576839D01*
X21708939Y18577158D01*
X21709491Y18577315D01*
X21729897Y18583120D01*
X21729899Y18583121D01*
X21730522Y18583298D01*
X21731086Y18583605D01*
X21731090Y18583607D01*
X21747607Y18592608D01*
X21748178Y18592919D01*
X21748663Y18593346D01*
X21748666Y18593348D01*
X21754920Y18598852D01*
X21762494Y18605519D01*
X21774057Y18620598D01*
X21783451Y18637654D01*
X21791264Y18656187D01*
X21798081Y18675696D01*
X21804490Y18695678D01*
X21804904Y18696932D01*
X21808480Y18707766D01*
X21814327Y18714548D01*
X21819361Y18715797D01*
X22055254Y18720408D01*
X22063593Y18717143D01*
G37*
%TD.AperFunction*%
%TD*%
%TA.AperFunction,Conductor*%
%TO.N,row_1*%
G36*
X41067999Y46282001D02*
G01*
X41066265Y46193265D01*
X41065792Y46169091D01*
X41062204Y46160887D01*
X41058105Y46158329D01*
X41035584Y46150108D01*
X41035521Y46150082D01*
X41035500Y46150074D01*
X41008969Y46139134D01*
X41008955Y46139128D01*
X41008832Y46139077D01*
X41008692Y46139010D01*
X40984717Y46127545D01*
X40984708Y46127540D01*
X40984538Y46127459D01*
X40961859Y46114733D01*
X40939956Y46100376D01*
X40917986Y46083866D01*
X40895108Y46064679D01*
X40895039Y46064616D01*
X40895026Y46064605D01*
X40870482Y46042295D01*
X40843265Y46016189D01*
X40843211Y46016136D01*
X40820889Y45994033D01*
X40812599Y45990647D01*
X40804384Y45994074D01*
X40644074Y46154384D01*
X40640647Y46162657D01*
X40644033Y46170889D01*
X40666189Y46193265D01*
X40692295Y46220482D01*
X40692305Y46220493D01*
X40714605Y46245026D01*
X40714616Y46245039D01*
X40714679Y46245108D01*
X40733866Y46267986D01*
X40750376Y46289956D01*
X40764733Y46311859D01*
X40777459Y46334538D01*
X40789077Y46358832D01*
X40789128Y46358955D01*
X40789134Y46358969D01*
X40800074Y46385500D01*
X40800082Y46385521D01*
X40800108Y46385584D01*
X40808329Y46408106D01*
X40814385Y46414702D01*
X40819089Y46415792D01*
X41070710Y46420710D01*
X41067999Y46282001D01*
G37*
%TD.AperFunction*%
%TD*%
%TA.AperFunction,Conductor*%
%TO.N,row_1*%
G36*
X22195616Y34705926D02*
G01*
X22355926Y34545616D01*
X22359353Y34537343D01*
X22355967Y34529111D01*
X22333810Y34506734D01*
X22307704Y34479517D01*
X22285394Y34454973D01*
X22285383Y34454960D01*
X22285320Y34454891D01*
X22266133Y34432013D01*
X22249623Y34410043D01*
X22235266Y34388140D01*
X22222540Y34365461D01*
X22210922Y34341167D01*
X22210871Y34341044D01*
X22210865Y34341030D01*
X22199925Y34314499D01*
X22199916Y34314476D01*
X22199891Y34314415D01*
X22199860Y34314330D01*
X22191671Y34291894D01*
X22185615Y34285298D01*
X22180911Y34284208D01*
X22028487Y34281229D01*
X21929290Y34279290D01*
X21933796Y34509831D01*
X21934191Y34530000D01*
X21934209Y34530911D01*
X21937796Y34539113D01*
X21941894Y34541671D01*
X21964330Y34549860D01*
X21964329Y34549860D01*
X21964415Y34549891D01*
X21964476Y34549916D01*
X21964499Y34549925D01*
X21991030Y34560865D01*
X21991044Y34560871D01*
X21991167Y34560922D01*
X21993912Y34562235D01*
X22015282Y34572454D01*
X22015291Y34572459D01*
X22015461Y34572540D01*
X22038140Y34585266D01*
X22060043Y34599623D01*
X22082013Y34616133D01*
X22104891Y34635320D01*
X22104960Y34635383D01*
X22104973Y34635394D01*
X22129517Y34657704D01*
X22129528Y34657715D01*
X22156734Y34683810D01*
X22156788Y34683863D01*
X22179111Y34705967D01*
X22187401Y34709353D01*
X22195616Y34705926D01*
G37*
%TD.AperFunction*%
%TD*%
%TA.AperFunction,Conductor*%
%TO.N,pinkie_top*%
G36*
X22063593Y37717143D02*
G01*
X22067181Y37708939D01*
X22066803Y37705753D01*
X22002055Y37457867D01*
X21996649Y37450729D01*
X21991911Y37449183D01*
X21965949Y37446561D01*
X21965947Y37446561D01*
X21965347Y37446500D01*
X21964771Y37446317D01*
X21964769Y37446317D01*
X21947889Y37440965D01*
X21935380Y37437000D01*
X21920978Y37429475D01*
X21908879Y37423154D01*
X21908874Y37423151D01*
X21908585Y37423000D01*
X21883451Y37406000D01*
X21883346Y37405922D01*
X21883340Y37405918D01*
X21858575Y37387581D01*
X21858336Y37387409D01*
X21832527Y37369288D01*
X21831687Y37368750D01*
X21803568Y37352393D01*
X21802184Y37351705D01*
X21770137Y37338357D01*
X21768373Y37337782D01*
X21730689Y37328722D01*
X21728824Y37328430D01*
X21711986Y37327174D01*
X21695412Y37325938D01*
X21686908Y37328740D01*
X21682843Y37337606D01*
X21682843Y37564228D01*
X21686270Y37572501D01*
X21693579Y37575888D01*
X21705077Y37576839D01*
X21708939Y37577158D01*
X21709491Y37577315D01*
X21729897Y37583120D01*
X21729899Y37583121D01*
X21730522Y37583298D01*
X21731086Y37583605D01*
X21731090Y37583607D01*
X21747607Y37592608D01*
X21748178Y37592919D01*
X21748663Y37593346D01*
X21748666Y37593348D01*
X21754920Y37598852D01*
X21762494Y37605519D01*
X21774057Y37620598D01*
X21783451Y37637654D01*
X21791264Y37656187D01*
X21798081Y37675696D01*
X21804490Y37695678D01*
X21804904Y37696932D01*
X21808480Y37707766D01*
X21814327Y37714548D01*
X21819361Y37715797D01*
X22055254Y37720408D01*
X22063593Y37717143D01*
G37*
%TD.AperFunction*%
%TD*%
%TA.AperFunction,Conductor*%
%TO.N,row_1*%
G36*
X3195616Y32705926D02*
G01*
X3355926Y32545616D01*
X3359353Y32537343D01*
X3355967Y32529111D01*
X3333810Y32506734D01*
X3307704Y32479517D01*
X3285394Y32454973D01*
X3285383Y32454960D01*
X3285320Y32454891D01*
X3266133Y32432013D01*
X3249623Y32410043D01*
X3235266Y32388140D01*
X3222540Y32365461D01*
X3210922Y32341167D01*
X3210871Y32341044D01*
X3210865Y32341030D01*
X3199925Y32314499D01*
X3199916Y32314476D01*
X3199891Y32314415D01*
X3199860Y32314330D01*
X3191671Y32291894D01*
X3185615Y32285298D01*
X3180911Y32284208D01*
X3031741Y32281293D01*
X2941455Y32279528D01*
X2933116Y32282793D01*
X2929528Y32291455D01*
X2934208Y32530909D01*
X2937796Y32539113D01*
X2941894Y32541671D01*
X2964330Y32549860D01*
X2964329Y32549860D01*
X2964415Y32549891D01*
X2964476Y32549916D01*
X2964499Y32549925D01*
X2991030Y32560865D01*
X2991044Y32560871D01*
X2991167Y32560922D01*
X2993912Y32562235D01*
X3015282Y32572454D01*
X3015291Y32572459D01*
X3015461Y32572540D01*
X3038140Y32585266D01*
X3060043Y32599623D01*
X3082013Y32616133D01*
X3104891Y32635320D01*
X3104960Y32635383D01*
X3104973Y32635394D01*
X3129517Y32657704D01*
X3129528Y32657715D01*
X3156734Y32683810D01*
X3156788Y32683863D01*
X3179111Y32705967D01*
X3187401Y32709353D01*
X3195616Y32705926D01*
G37*
%TD.AperFunction*%
%TD*%
%TA.AperFunction,Conductor*%
%TO.N,row_1*%
G36*
X21918600Y34524445D02*
G01*
X22100000Y34350000D01*
X22028487Y34281229D01*
X22026895Y34279698D01*
X21918600Y34175556D01*
X21910261Y34172291D01*
X21905555Y34173381D01*
X21883818Y34183493D01*
X21857101Y34194609D01*
X21831707Y34203572D01*
X21831531Y34203622D01*
X21831523Y34203624D01*
X21819294Y34207062D01*
X21806672Y34210610D01*
X21806476Y34210651D01*
X21806467Y34210653D01*
X21781219Y34215907D01*
X21781221Y34215907D01*
X21781032Y34215946D01*
X21769983Y34217513D01*
X21753978Y34219784D01*
X21753973Y34219785D01*
X21753822Y34219806D01*
X21724078Y34222416D01*
X21709157Y34223128D01*
X21690904Y34223999D01*
X21690890Y34223999D01*
X21690836Y34224002D01*
X21687769Y34224066D01*
X21653155Y34224788D01*
X21653131Y34224788D01*
X21647445Y34224816D01*
X21621642Y34224943D01*
X21613386Y34228411D01*
X21610000Y34236643D01*
X21610000Y34463357D01*
X21613427Y34471630D01*
X21621643Y34475057D01*
X21653131Y34475211D01*
X21653152Y34475211D01*
X21687383Y34475925D01*
X21690836Y34475997D01*
X21690890Y34476000D01*
X21690904Y34476000D01*
X21709157Y34476871D01*
X21724078Y34477583D01*
X21753822Y34480193D01*
X21753973Y34480214D01*
X21753978Y34480215D01*
X21769983Y34482486D01*
X21781032Y34484053D01*
X21786209Y34485130D01*
X21806467Y34489346D01*
X21806476Y34489348D01*
X21806672Y34489389D01*
X21819294Y34492937D01*
X21831523Y34496375D01*
X21831531Y34496377D01*
X21831707Y34496427D01*
X21857101Y34505390D01*
X21883818Y34516506D01*
X21900881Y34524444D01*
X21905556Y34526619D01*
X21914502Y34527002D01*
X21918600Y34524445D01*
G37*
%TD.AperFunction*%
%TD*%
%TA.AperFunction,Conductor*%
%TO.N,outer_bottom*%
G36*
X2903178Y-2183574D02*
G01*
X3090099Y-2333380D01*
X3094412Y-2341228D01*
X3091619Y-2350178D01*
X2934645Y-2531075D01*
X2926634Y-2535078D01*
X2921860Y-2534421D01*
X2896192Y-2525219D01*
X2896190Y-2525218D01*
X2896097Y-2525185D01*
X2865656Y-2515676D01*
X2865534Y-2515645D01*
X2865528Y-2515643D01*
X2837101Y-2508356D01*
X2837096Y-2508355D01*
X2836956Y-2508319D01*
X2808883Y-2502838D01*
X2808715Y-2502815D01*
X2808702Y-2502813D01*
X2788923Y-2500126D01*
X2780319Y-2498957D01*
X2780167Y-2498944D01*
X2780157Y-2498943D01*
X2767173Y-2497843D01*
X2750150Y-2496401D01*
X2717259Y-2494893D01*
X2717201Y-2494892D01*
X2717178Y-2494891D01*
X2680531Y-2494158D01*
X2638849Y-2493919D01*
X2638815Y-2493919D01*
X2602794Y-2493905D01*
X2594523Y-2490475D01*
X2591099Y-2482205D01*
X2591099Y-2255539D01*
X2594526Y-2247266D01*
X2602737Y-2243839D01*
X2604685Y-2243829D01*
X2635008Y-2243667D01*
X2673521Y-2242780D01*
X2707550Y-2240960D01*
X2738009Y-2237926D01*
X2765812Y-2233400D01*
X2791872Y-2227102D01*
X2799435Y-2224599D01*
X2816881Y-2218825D01*
X2816892Y-2218821D01*
X2817103Y-2218751D01*
X2842418Y-2208068D01*
X2842601Y-2207975D01*
X2842613Y-2207970D01*
X2868597Y-2194841D01*
X2868732Y-2194773D01*
X2890041Y-2182554D01*
X2898923Y-2181412D01*
X2903178Y-2183574D01*
G37*
%TD.AperFunction*%
%TD*%
%TA.AperFunction,Conductor*%
%TO.N,outer_home*%
G36*
X3063593Y16717143D02*
G01*
X3067181Y16708939D01*
X3066803Y16705753D01*
X3002055Y16457867D01*
X2996649Y16450729D01*
X2991911Y16449183D01*
X2965949Y16446561D01*
X2965947Y16446561D01*
X2965347Y16446500D01*
X2964771Y16446317D01*
X2964769Y16446317D01*
X2947889Y16440965D01*
X2935380Y16437000D01*
X2920978Y16429475D01*
X2908879Y16423154D01*
X2908874Y16423151D01*
X2908585Y16423000D01*
X2883451Y16406000D01*
X2883346Y16405922D01*
X2883340Y16405918D01*
X2858575Y16387581D01*
X2858336Y16387409D01*
X2832527Y16369288D01*
X2831687Y16368750D01*
X2803568Y16352393D01*
X2802184Y16351705D01*
X2770137Y16338357D01*
X2768373Y16337782D01*
X2730689Y16328722D01*
X2728824Y16328430D01*
X2711986Y16327174D01*
X2695412Y16325938D01*
X2686908Y16328740D01*
X2682843Y16337606D01*
X2682843Y16564228D01*
X2686270Y16572501D01*
X2693579Y16575888D01*
X2705077Y16576839D01*
X2708939Y16577158D01*
X2709491Y16577315D01*
X2729897Y16583120D01*
X2729899Y16583121D01*
X2730522Y16583298D01*
X2731086Y16583605D01*
X2731090Y16583607D01*
X2747607Y16592608D01*
X2748178Y16592919D01*
X2748663Y16593346D01*
X2748666Y16593348D01*
X2754920Y16598852D01*
X2762494Y16605519D01*
X2774057Y16620598D01*
X2783451Y16637654D01*
X2791264Y16656187D01*
X2798081Y16675696D01*
X2804490Y16695678D01*
X2804904Y16696932D01*
X2808480Y16707766D01*
X2814327Y16714548D01*
X2819361Y16715797D01*
X3055254Y16720408D01*
X3063593Y16717143D01*
G37*
%TD.AperFunction*%
%TD*%
%TA.AperFunction,Conductor*%
%TO.N,col_1*%
G36*
X7179464Y247727D02*
G01*
X7219445Y209752D01*
X7262920Y173376D01*
X7302951Y144874D01*
X7303185Y144737D01*
X7303188Y144735D01*
X7340634Y122806D01*
X7340642Y122802D01*
X7340867Y122670D01*
X7378000Y105186D01*
X7378202Y105109D01*
X7378214Y105104D01*
X7405822Y94597D01*
X7415678Y90846D01*
X7455233Y78073D01*
X7455282Y78058D01*
X7455302Y78052D01*
X7497942Y65305D01*
X7497993Y65290D01*
X7545183Y50951D01*
X7545446Y50867D01*
X7590581Y35981D01*
X7597364Y30136D01*
X7598614Y25099D01*
X7605828Y-343901D01*
X7602563Y-352240D01*
X7593901Y-355828D01*
X7224901Y-348614D01*
X7216697Y-345026D01*
X7214019Y-340581D01*
X7199132Y-295446D01*
X7199048Y-295183D01*
X7184709Y-247993D01*
X7184694Y-247942D01*
X7171947Y-205302D01*
X7171939Y-205276D01*
X7171926Y-205233D01*
X7159153Y-165678D01*
X7155402Y-155822D01*
X7144895Y-128214D01*
X7144890Y-128202D01*
X7144813Y-128000D01*
X7127329Y-90867D01*
X7105125Y-52951D01*
X7076623Y-12920D01*
X7044812Y25099D01*
X7040376Y30400D01*
X7040374Y30402D01*
X7040247Y30554D01*
X7002271Y70537D01*
X6999059Y78893D01*
X7002482Y86865D01*
X7163134Y247517D01*
X7171407Y250944D01*
X7179464Y247727D01*
G37*
%TD.AperFunction*%
%TD*%
%TA.AperFunction,Conductor*%
%TO.N,row_4*%
G36*
X116918600Y-26475556D02*
G01*
X117091231Y-26641567D01*
X117094819Y-26649771D01*
X117091231Y-26658433D01*
X116926789Y-26816570D01*
X116918601Y-26824444D01*
X116910262Y-26827709D01*
X116905556Y-26826619D01*
X116897005Y-26822641D01*
X116883818Y-26816506D01*
X116857101Y-26805390D01*
X116831707Y-26796427D01*
X116831531Y-26796377D01*
X116831523Y-26796375D01*
X116819294Y-26792937D01*
X116806672Y-26789389D01*
X116806476Y-26789348D01*
X116806467Y-26789346D01*
X116781219Y-26784092D01*
X116781221Y-26784092D01*
X116781032Y-26784053D01*
X116769983Y-26782486D01*
X116753978Y-26780215D01*
X116753973Y-26780214D01*
X116753822Y-26780193D01*
X116724078Y-26777583D01*
X116709157Y-26776871D01*
X116690904Y-26776000D01*
X116690890Y-26776000D01*
X116690836Y-26775997D01*
X116687383Y-26775925D01*
X116653152Y-26775211D01*
X116653131Y-26775211D01*
X116621643Y-26775057D01*
X116613386Y-26771590D01*
X116610000Y-26763357D01*
X116610000Y-26536643D01*
X116613427Y-26528370D01*
X116621642Y-26524943D01*
X116647445Y-26524816D01*
X116653131Y-26524788D01*
X116653155Y-26524788D01*
X116687769Y-26524066D01*
X116690836Y-26524002D01*
X116690890Y-26523999D01*
X116690904Y-26523999D01*
X116709157Y-26523128D01*
X116724078Y-26522416D01*
X116753822Y-26519806D01*
X116753973Y-26519785D01*
X116753978Y-26519784D01*
X116769983Y-26517513D01*
X116781032Y-26515946D01*
X116786209Y-26514869D01*
X116806467Y-26510653D01*
X116806476Y-26510651D01*
X116806672Y-26510610D01*
X116819294Y-26507062D01*
X116831523Y-26503624D01*
X116831531Y-26503622D01*
X116831707Y-26503572D01*
X116857101Y-26494609D01*
X116883818Y-26483493D01*
X116905555Y-26473381D01*
X116914502Y-26472998D01*
X116918600Y-26475556D01*
G37*
%TD.AperFunction*%
%TD*%
%TA.AperFunction,Conductor*%
%TO.N,row_4*%
G36*
X98042098Y-18594318D02*
G01*
X98190189Y-18680855D01*
X98195602Y-18687987D01*
X98195874Y-18692559D01*
X98193552Y-18709320D01*
X98192484Y-18732123D01*
X98193900Y-18753628D01*
X98197954Y-18774250D01*
X98204802Y-18794403D01*
X98214599Y-18814504D01*
X98227500Y-18834966D01*
X98243659Y-18856206D01*
X98243800Y-18856368D01*
X98243802Y-18856370D01*
X98263131Y-18878521D01*
X98263145Y-18878536D01*
X98263233Y-18878637D01*
X98278415Y-18894405D01*
X98281684Y-18902742D01*
X98278259Y-18910793D01*
X98117989Y-19071063D01*
X98109716Y-19074490D01*
X98101330Y-19070949D01*
X98072537Y-19041354D01*
X98072302Y-19041105D01*
X98041245Y-19007256D01*
X98041018Y-19007001D01*
X98014632Y-18976504D01*
X98014438Y-18976274D01*
X97991491Y-18948331D01*
X97991360Y-18948169D01*
X97970581Y-18921927D01*
X97970542Y-18921877D01*
X97950893Y-18896780D01*
X97950892Y-18896779D01*
X97950828Y-18896697D01*
X97950827Y-18896695D01*
X97936325Y-18878521D01*
X97930954Y-18871790D01*
X97918057Y-18856370D01*
X97909844Y-18846551D01*
X97909839Y-18846545D01*
X97909756Y-18846446D01*
X97886031Y-18819909D01*
X97858579Y-18791421D01*
X97972739Y-18553788D01*
X98042098Y-18594318D01*
G37*
%TD.AperFunction*%
%TD*%
%TA.AperFunction,Conductor*%
%TO.N,layer_first*%
G36*
X116903178Y-23183574D02*
G01*
X117090099Y-23333380D01*
X117094412Y-23341228D01*
X117091619Y-23350178D01*
X116934645Y-23531075D01*
X116926634Y-23535078D01*
X116921860Y-23534421D01*
X116896192Y-23525219D01*
X116896190Y-23525218D01*
X116896097Y-23525185D01*
X116865656Y-23515676D01*
X116865534Y-23515645D01*
X116865528Y-23515643D01*
X116837101Y-23508356D01*
X116837096Y-23508355D01*
X116836956Y-23508319D01*
X116808883Y-23502838D01*
X116808715Y-23502815D01*
X116808702Y-23502813D01*
X116788923Y-23500126D01*
X116780319Y-23498957D01*
X116780167Y-23498944D01*
X116780157Y-23498943D01*
X116767173Y-23497843D01*
X116750150Y-23496401D01*
X116717259Y-23494893D01*
X116717201Y-23494892D01*
X116717178Y-23494891D01*
X116680531Y-23494158D01*
X116638849Y-23493919D01*
X116638815Y-23493919D01*
X116602794Y-23493905D01*
X116594523Y-23490475D01*
X116591099Y-23482205D01*
X116591099Y-23255539D01*
X116594526Y-23247266D01*
X116602737Y-23243839D01*
X116604685Y-23243829D01*
X116635008Y-23243667D01*
X116673521Y-23242780D01*
X116707550Y-23240960D01*
X116738009Y-23237926D01*
X116765812Y-23233400D01*
X116791872Y-23227102D01*
X116799435Y-23224599D01*
X116816881Y-23218825D01*
X116816892Y-23218821D01*
X116817103Y-23218751D01*
X116842418Y-23208068D01*
X116842601Y-23207975D01*
X116842613Y-23207970D01*
X116868597Y-23194841D01*
X116868732Y-23194773D01*
X116890041Y-23182554D01*
X116898923Y-23181412D01*
X116903178Y-23183574D01*
G37*
%TD.AperFunction*%
%TD*%
%TA.AperFunction,Conductor*%
%TO.N,row_1*%
G36*
X97918600Y41524445D02*
G01*
X98091231Y41358433D01*
X98094819Y41350229D01*
X98091231Y41341567D01*
X97918600Y41175556D01*
X97910261Y41172291D01*
X97905555Y41173381D01*
X97883818Y41183493D01*
X97857101Y41194609D01*
X97831707Y41203572D01*
X97831531Y41203622D01*
X97831523Y41203624D01*
X97819294Y41207062D01*
X97806672Y41210610D01*
X97806476Y41210651D01*
X97806467Y41210653D01*
X97781219Y41215907D01*
X97781221Y41215907D01*
X97781032Y41215946D01*
X97769983Y41217513D01*
X97753978Y41219784D01*
X97753973Y41219785D01*
X97753822Y41219806D01*
X97724078Y41222416D01*
X97709157Y41223128D01*
X97690904Y41223999D01*
X97690890Y41223999D01*
X97690836Y41224002D01*
X97687769Y41224066D01*
X97653155Y41224788D01*
X97653131Y41224788D01*
X97647445Y41224816D01*
X97621642Y41224943D01*
X97613386Y41228411D01*
X97610000Y41236643D01*
X97610000Y41463357D01*
X97613427Y41471630D01*
X97621643Y41475057D01*
X97653131Y41475211D01*
X97653152Y41475211D01*
X97687383Y41475925D01*
X97690836Y41475997D01*
X97690890Y41476000D01*
X97690904Y41476000D01*
X97709157Y41476871D01*
X97724078Y41477583D01*
X97753822Y41480193D01*
X97753973Y41480214D01*
X97753978Y41480215D01*
X97769983Y41482486D01*
X97781032Y41484053D01*
X97786209Y41485130D01*
X97806467Y41489346D01*
X97806476Y41489348D01*
X97806672Y41489389D01*
X97819294Y41492937D01*
X97831523Y41496375D01*
X97831531Y41496377D01*
X97831707Y41496427D01*
X97857101Y41505390D01*
X97883818Y41516506D01*
X97905556Y41526619D01*
X97914502Y41527002D01*
X97918600Y41524445D01*
G37*
%TD.AperFunction*%
%TD*%
%TA.AperFunction,Conductor*%
%TO.N,row_1*%
G36*
X79094444Y44526619D02*
G01*
X79116181Y44516506D01*
X79142898Y44505390D01*
X79168292Y44496427D01*
X79168468Y44496377D01*
X79168476Y44496375D01*
X79180705Y44492937D01*
X79193327Y44489389D01*
X79193523Y44489348D01*
X79193532Y44489346D01*
X79213790Y44485130D01*
X79218967Y44484053D01*
X79230016Y44482486D01*
X79246021Y44480215D01*
X79246026Y44480214D01*
X79246177Y44480193D01*
X79275921Y44477583D01*
X79290842Y44476871D01*
X79309095Y44476000D01*
X79309109Y44476000D01*
X79309163Y44475997D01*
X79312616Y44475925D01*
X79346847Y44475211D01*
X79346868Y44475211D01*
X79378357Y44475057D01*
X79386614Y44471590D01*
X79390000Y44463357D01*
X79390000Y44236643D01*
X79386573Y44228370D01*
X79378358Y44224943D01*
X79352582Y44224816D01*
X79346868Y44224788D01*
X79346844Y44224788D01*
X79312230Y44224066D01*
X79309163Y44224002D01*
X79309109Y44223999D01*
X79309095Y44223999D01*
X79290842Y44223128D01*
X79275921Y44222416D01*
X79246177Y44219806D01*
X79246026Y44219785D01*
X79246021Y44219784D01*
X79230016Y44217513D01*
X79218967Y44215946D01*
X79218778Y44215907D01*
X79218780Y44215907D01*
X79193532Y44210653D01*
X79193523Y44210651D01*
X79193327Y44210610D01*
X79180705Y44207062D01*
X79168476Y44203624D01*
X79168468Y44203622D01*
X79168292Y44203572D01*
X79142898Y44194609D01*
X79116181Y44183493D01*
X79099120Y44175556D01*
X79094445Y44173381D01*
X79085499Y44172998D01*
X79081400Y44175556D01*
X79001679Y44252220D01*
X78900000Y44350000D01*
X79000000Y44446166D01*
X79081400Y44524444D01*
X79089738Y44527709D01*
X79094444Y44526619D01*
G37*
%TD.AperFunction*%
%TD*%
%TA.AperFunction,Conductor*%
%TO.N,inner_top*%
G36*
X97903178Y44816426D02*
G01*
X98090099Y44666620D01*
X98094412Y44658772D01*
X98091619Y44649822D01*
X97934645Y44468925D01*
X97926634Y44464922D01*
X97921860Y44465579D01*
X97896192Y44474780D01*
X97896190Y44474781D01*
X97896097Y44474814D01*
X97865656Y44484323D01*
X97865534Y44484354D01*
X97865528Y44484356D01*
X97837101Y44491643D01*
X97837096Y44491644D01*
X97836956Y44491680D01*
X97808883Y44497161D01*
X97808715Y44497184D01*
X97808702Y44497186D01*
X97788923Y44499873D01*
X97780319Y44501042D01*
X97780167Y44501055D01*
X97780157Y44501056D01*
X97767173Y44502156D01*
X97750150Y44503598D01*
X97717259Y44505106D01*
X97717201Y44505107D01*
X97717178Y44505108D01*
X97680531Y44505841D01*
X97638849Y44506080D01*
X97602793Y44506094D01*
X97594523Y44509524D01*
X97591099Y44517794D01*
X97591099Y44744461D01*
X97594526Y44752734D01*
X97602736Y44756161D01*
X97635008Y44756332D01*
X97673521Y44757219D01*
X97707550Y44759039D01*
X97738009Y44762073D01*
X97765812Y44766599D01*
X97791872Y44772897D01*
X97799435Y44775400D01*
X97816881Y44781174D01*
X97816892Y44781178D01*
X97817103Y44781248D01*
X97842418Y44791931D01*
X97842601Y44792024D01*
X97842613Y44792029D01*
X97868597Y44805158D01*
X97868732Y44805226D01*
X97890041Y44817446D01*
X97898922Y44818588D01*
X97903178Y44816426D01*
G37*
%TD.AperFunction*%
%TD*%
%TA.AperFunction,Conductor*%
%TO.N,RAW*%
G36*
X119807184Y43582476D02*
G01*
X119808600Y43576897D01*
X119808600Y43527759D01*
X119808525Y43526433D01*
X119806306Y43506985D01*
X119814822Y43491928D01*
X119815627Y43490182D01*
X119822552Y43471155D01*
X119825755Y43469306D01*
X119828042Y43466997D01*
X119828179Y43467146D01*
X119829546Y43465893D01*
X119830458Y43464280D01*
X119832145Y43463511D01*
X119848974Y43455838D01*
X119849971Y43455325D01*
X119870148Y43443676D01*
X119872178Y43444034D01*
X119872179Y43444034D01*
X119873272Y43444227D01*
X119874370Y43444260D01*
X119875101Y43443927D01*
X119876916Y43444296D01*
X119876917Y43444296D01*
X119884101Y43445757D01*
X119898037Y43448590D01*
X119898303Y43448640D01*
X119903217Y43449507D01*
X119922239Y43452860D01*
X119922240Y43452861D01*
X119924272Y43453219D01*
X119928661Y43458449D01*
X119933350Y43461820D01*
X120010992Y43492280D01*
X120019945Y43492111D01*
X120023375Y43489821D01*
X120426958Y43101715D01*
X120430546Y43093511D01*
X120427281Y43085172D01*
X120424762Y43083187D01*
X119721666Y42671323D01*
X119712795Y42670098D01*
X119707446Y42673178D01*
X119627961Y42753306D01*
X119627889Y42753380D01*
X119555298Y42827855D01*
X119555236Y42827919D01*
X119492035Y42893904D01*
X119434731Y42954587D01*
X119379699Y43013296D01*
X119323313Y43073360D01*
X119261947Y43138106D01*
X119191975Y43210860D01*
X119109772Y43294953D01*
X119026486Y43378830D01*
X119025065Y43380568D01*
X119019785Y43388469D01*
X119018039Y43397249D01*
X119021241Y43403240D01*
X119180820Y43562819D01*
X119189093Y43566246D01*
X119196715Y43563423D01*
X119259765Y43509286D01*
X119260240Y43509014D01*
X119260243Y43509012D01*
X119327164Y43470713D01*
X119327168Y43470711D01*
X119327754Y43470376D01*
X119328404Y43470184D01*
X119328405Y43470184D01*
X119377077Y43455838D01*
X119393484Y43451002D01*
X119394201Y43450973D01*
X119394202Y43450973D01*
X119457348Y43448433D01*
X119457351Y43448433D01*
X119457979Y43448408D01*
X119458603Y43448519D01*
X119458604Y43448519D01*
X119521802Y43459758D01*
X119521804Y43459758D01*
X119522268Y43459841D01*
X119522705Y43459994D01*
X119522711Y43459995D01*
X119587114Y43482455D01*
X119587113Y43482455D01*
X119587378Y43482547D01*
X119654336Y43513770D01*
X119724169Y43550756D01*
X119791322Y43587181D01*
X119800228Y43588114D01*
X119807184Y43582476D01*
G37*
%TD.AperFunction*%
%TD*%
%TA.AperFunction,Conductor*%
%TO.N,RAW*%
G36*
X112114848Y43628333D02*
G01*
X112275353Y43467828D01*
X112278780Y43459555D01*
X112275353Y43451282D01*
X112273580Y43449827D01*
X112265543Y43444457D01*
X112264903Y43443499D01*
X112257366Y43432219D01*
X112256039Y43430576D01*
X112182709Y43354917D01*
X112182694Y43354901D01*
X112182635Y43354840D01*
X112182562Y43354759D01*
X112100286Y43263772D01*
X112100271Y43263755D01*
X112100207Y43263684D01*
X112032246Y43182859D01*
X111974400Y43109395D01*
X111937022Y43059817D01*
X111922321Y43040318D01*
X111871658Y42972657D01*
X111818164Y42903573D01*
X111817955Y42903312D01*
X111757317Y42829863D01*
X111757031Y42829530D01*
X111684785Y42748587D01*
X111684515Y42748297D01*
X111602414Y42663213D01*
X111594204Y42659639D01*
X111588303Y42661116D01*
X110885487Y43052665D01*
X110879927Y43059685D01*
X110880960Y43068580D01*
X110882496Y43070726D01*
X110917494Y43109499D01*
X111258360Y43487129D01*
X111266445Y43490973D01*
X111268114Y43490938D01*
X111278111Y43490015D01*
X111281303Y43489257D01*
X111308551Y43478568D01*
X111378341Y43451189D01*
X111382691Y43448204D01*
X111386820Y43443701D01*
X111394576Y43442124D01*
X111396933Y43441645D01*
X111400452Y43440313D01*
X111411948Y43433676D01*
X111413979Y43434034D01*
X111413980Y43434034D01*
X111422715Y43435574D01*
X111427074Y43435518D01*
X111434899Y43433927D01*
X111447123Y43439500D01*
X111449940Y43440374D01*
X111466072Y43443219D01*
X111471057Y43449160D01*
X111475167Y43452285D01*
X111477855Y43453511D01*
X111479542Y43454280D01*
X111487673Y43468656D01*
X111488888Y43470409D01*
X111501400Y43485320D01*
X111501400Y43489849D01*
X111502541Y43494186D01*
X111502782Y43495373D01*
X111503694Y43496985D01*
X111501475Y43516433D01*
X111501400Y43517759D01*
X111501400Y43575109D01*
X111504827Y43583382D01*
X111513100Y43586809D01*
X111517780Y43585832D01*
X111555534Y43569356D01*
X111555567Y43569342D01*
X111555584Y43569335D01*
X111591021Y43554623D01*
X111628375Y43539115D01*
X111648278Y43532178D01*
X111697434Y43515043D01*
X111697443Y43515040D01*
X111697731Y43514940D01*
X111764787Y43499310D01*
X111794761Y43497215D01*
X111830136Y43494743D01*
X111830141Y43494743D01*
X111830730Y43494702D01*
X111865720Y43499416D01*
X111896102Y43503509D01*
X111896103Y43503509D01*
X111896747Y43503596D01*
X111964024Y43528471D01*
X112033747Y43571805D01*
X112094487Y43625024D01*
X112098865Y43628860D01*
X112107345Y43631735D01*
X112114848Y43628333D01*
G37*
%TD.AperFunction*%
%TD*%
%TA.AperFunction,Conductor*%
%TO.N,GND*%
G36*
X120065435Y45219496D02*
G01*
X120367903Y45179100D01*
X120375649Y45174608D01*
X120377881Y45165502D01*
X120310788Y44778964D01*
X120295788Y44692548D01*
X120283389Y44621113D01*
X120282083Y44613591D01*
X120277291Y44606026D01*
X120275892Y44605181D01*
X120264486Y44599342D01*
X120261374Y44598269D01*
X120149280Y44576614D01*
X120145993Y44576451D01*
X120076226Y44582847D01*
X120032310Y44586873D01*
X120029109Y44587631D01*
X119931619Y44625858D01*
X119927265Y44628845D01*
X119924439Y44631929D01*
X119923187Y44633295D01*
X119913065Y44635354D01*
X119909549Y44636686D01*
X119909206Y44636884D01*
X119898052Y44643324D01*
X119896020Y44642966D01*
X119896019Y44642966D01*
X119887291Y44641427D01*
X119882928Y44641484D01*
X119878890Y44642305D01*
X119875110Y44643074D01*
X119873423Y44642305D01*
X119862884Y44637501D01*
X119860064Y44636625D01*
X119843928Y44633781D01*
X119838944Y44627842D01*
X119834837Y44624719D01*
X119832853Y44623814D01*
X119830465Y44622726D01*
X119829553Y44621114D01*
X119829552Y44621113D01*
X119822332Y44608351D01*
X119821112Y44606591D01*
X119814393Y44598584D01*
X119808600Y44591680D01*
X119808600Y44587155D01*
X119807466Y44582847D01*
X119807219Y44581634D01*
X119806308Y44580023D01*
X119806733Y44576299D01*
X119808525Y44560575D01*
X119808600Y44559250D01*
X119808600Y44384753D01*
X119805173Y44376480D01*
X119797925Y44373098D01*
X119751169Y44368988D01*
X119751168Y44368988D01*
X119750874Y44368962D01*
X119750584Y44368907D01*
X119750581Y44368907D01*
X119669009Y44353558D01*
X119669007Y44353558D01*
X119668611Y44353483D01*
X119668234Y44353356D01*
X119668229Y44353355D01*
X119586454Y44325881D01*
X119586448Y44325878D01*
X119586027Y44325737D01*
X119585627Y44325530D01*
X119500935Y44281697D01*
X119500929Y44281694D01*
X119500567Y44281506D01*
X119409677Y44216573D01*
X119319060Y44134225D01*
X119310633Y44131197D01*
X119302919Y44134611D01*
X119141964Y44295566D01*
X119138537Y44303839D01*
X119141626Y44311760D01*
X119234405Y44412624D01*
X119234407Y44412627D01*
X119234597Y44412833D01*
X119300868Y44500921D01*
X119309228Y44512033D01*
X119309233Y44512040D01*
X119309426Y44512297D01*
X119350925Y44582847D01*
X119363570Y44604343D01*
X119363572Y44604347D01*
X119363735Y44604624D01*
X119363981Y44605177D01*
X119402632Y44692296D01*
X119402744Y44692548D01*
X119431672Y44778800D01*
X119455738Y44866112D01*
X119480104Y44957005D01*
X119480221Y44957413D01*
X119510047Y45054480D01*
X119510300Y45055215D01*
X119550790Y45161301D01*
X119551164Y45162174D01*
X119604100Y45272944D01*
X119610758Y45278929D01*
X119616204Y45279494D01*
X120065435Y45219496D01*
G37*
%TD.AperFunction*%
%TD*%
%TA.AperFunction,Conductor*%
%TO.N,GND*%
G36*
X111682282Y45302766D02*
G01*
X111686019Y45298755D01*
X111747321Y45190067D01*
X111747759Y45189208D01*
X111766803Y45147597D01*
X111795512Y45084867D01*
X111795836Y45084084D01*
X111831565Y44988206D01*
X111831736Y44987715D01*
X111860868Y44897430D01*
X111888752Y44810171D01*
X111920726Y44723500D01*
X111962209Y44634724D01*
X112018623Y44541153D01*
X112095387Y44440094D01*
X112190308Y44337115D01*
X112193395Y44328710D01*
X112189978Y44320913D01*
X112029017Y44159952D01*
X112020744Y44156525D01*
X112012892Y44159552D01*
X111925072Y44239082D01*
X111924785Y44239284D01*
X111924779Y44239289D01*
X111836831Y44301253D01*
X111836832Y44301253D01*
X111836472Y44301506D01*
X111752905Y44343332D01*
X111671928Y44368541D01*
X111671499Y44368608D01*
X111671498Y44368608D01*
X111658239Y44370671D01*
X111591102Y44381118D01*
X111590786Y44381133D01*
X111590785Y44381133D01*
X111512548Y44384828D01*
X111504446Y44388641D01*
X111501400Y44396515D01*
X111501400Y44549250D01*
X111501475Y44550575D01*
X111503267Y44566299D01*
X111503692Y44570023D01*
X111502781Y44571634D01*
X111502780Y44571637D01*
X111495179Y44585073D01*
X111494368Y44586832D01*
X111487448Y44605845D01*
X111484239Y44607698D01*
X111481949Y44610008D01*
X111481814Y44609861D01*
X111480448Y44611112D01*
X111479535Y44612726D01*
X111461032Y44621159D01*
X111460034Y44621672D01*
X111441637Y44632294D01*
X111441636Y44632294D01*
X111439852Y44633324D01*
X111437822Y44632966D01*
X111436729Y44632773D01*
X111435624Y44632739D01*
X111434890Y44633074D01*
X111433071Y44632704D01*
X111411964Y44628411D01*
X111411664Y44628354D01*
X111398198Y44625980D01*
X111385728Y44623781D01*
X111384403Y44622202D01*
X111384400Y44622200D01*
X111381337Y44618550D01*
X111376646Y44615178D01*
X111322678Y44594016D01*
X111280891Y44577631D01*
X111277690Y44576873D01*
X111220848Y44571662D01*
X111164007Y44566451D01*
X111160720Y44566614D01*
X111063937Y44585311D01*
X111056464Y44590245D01*
X111054792Y44594016D01*
X111051643Y44606876D01*
X110921379Y45138746D01*
X110922739Y45147597D01*
X110930406Y45152993D01*
X111645451Y45298755D01*
X111673491Y45304471D01*
X111682282Y45302766D01*
G37*
%TD.AperFunction*%
%TD*%
%TA.AperFunction,Conductor*%
%TO.N,GND*%
G36*
X104531741Y48868707D02*
G01*
X104680910Y48865792D01*
X104689113Y48862204D01*
X104691671Y48858106D01*
X104699891Y48835584D01*
X104699926Y48835500D01*
X104710865Y48808969D01*
X104710871Y48808955D01*
X104710922Y48808832D01*
X104722540Y48784538D01*
X104735266Y48761859D01*
X104749623Y48739956D01*
X104766133Y48717986D01*
X104785320Y48695108D01*
X104785383Y48695039D01*
X104785394Y48695026D01*
X104807694Y48670493D01*
X104807704Y48670482D01*
X104833810Y48643265D01*
X104855967Y48620889D01*
X104859353Y48612599D01*
X104855926Y48604384D01*
X104695615Y48444073D01*
X104687342Y48440646D01*
X104679111Y48444031D01*
X104656734Y48466189D01*
X104629517Y48492295D01*
X104604973Y48514605D01*
X104604960Y48514616D01*
X104604891Y48514679D01*
X104582013Y48533866D01*
X104560043Y48550376D01*
X104538140Y48564733D01*
X104515461Y48577459D01*
X104515291Y48577540D01*
X104515282Y48577545D01*
X104491307Y48589010D01*
X104491167Y48589077D01*
X104491044Y48589128D01*
X104491030Y48589134D01*
X104464499Y48600074D01*
X104464478Y48600082D01*
X104464415Y48600108D01*
X104451100Y48604968D01*
X104441894Y48608329D01*
X104435298Y48614385D01*
X104434208Y48619091D01*
X104433736Y48643277D01*
X104429975Y48835661D01*
X104429528Y48858545D01*
X104432793Y48866884D01*
X104441455Y48870472D01*
X104531741Y48868707D01*
G37*
%TD.AperFunction*%
%TD*%
%TA.AperFunction,Conductor*%
%TO.N,pos*%
G36*
X104621630Y51586573D02*
G01*
X104625057Y51578358D01*
X104625211Y51546868D01*
X104625997Y51509163D01*
X104627583Y51475921D01*
X104630193Y51446177D01*
X104634053Y51418967D01*
X104639389Y51393327D01*
X104646427Y51368292D01*
X104655390Y51342898D01*
X104666506Y51316181D01*
X104666570Y51316044D01*
X104676619Y51294444D01*
X104677002Y51285498D01*
X104674444Y51281399D01*
X104508433Y51108769D01*
X104500229Y51105181D01*
X104491567Y51108769D01*
X104325556Y51281400D01*
X104322291Y51289739D01*
X104323381Y51294445D01*
X104333429Y51316044D01*
X104333493Y51316181D01*
X104344609Y51342898D01*
X104353572Y51368292D01*
X104360610Y51393327D01*
X104365946Y51418967D01*
X104369806Y51446177D01*
X104372416Y51475921D01*
X104374002Y51509163D01*
X104374788Y51546868D01*
X104374943Y51578358D01*
X104378411Y51586614D01*
X104386643Y51590000D01*
X104613357Y51590000D01*
X104621630Y51586573D01*
G37*
%TD.AperFunction*%
%TD*%
%TA.AperFunction,Conductor*%
%TO.N,RST*%
G36*
X113830059Y50127377D02*
G01*
X113831361Y50126253D01*
X113991361Y49966253D01*
X113994788Y49957980D01*
X113992438Y49950947D01*
X113987221Y49944011D01*
X113962857Y49911622D01*
X113962602Y49910323D01*
X113957489Y49884314D01*
X113956814Y49882081D01*
X113914419Y49780112D01*
X113898688Y49660918D01*
X113898728Y49660918D01*
X113900783Y49654598D01*
X113901807Y49651448D01*
X113902378Y49647632D01*
X113901306Y49584143D01*
X113900582Y49541293D01*
X113900510Y49540175D01*
X113898208Y49519974D01*
X113906357Y49505571D01*
X113907233Y49503627D01*
X113913589Y49485202D01*
X113915357Y49484141D01*
X113917443Y49482889D01*
X113920441Y49479813D01*
X113921455Y49478884D01*
X113922367Y49477272D01*
X113924052Y49476504D01*
X113924053Y49476503D01*
X113940217Y49469136D01*
X113941385Y49468522D01*
X113958945Y49457984D01*
X113958946Y49457984D01*
X113960714Y49456923D01*
X113962752Y49457247D01*
X113963887Y49457427D01*
X113965818Y49457470D01*
X113967013Y49456925D01*
X113968827Y49457294D01*
X113968828Y49457294D01*
X113989224Y49461443D01*
X113989719Y49461533D01*
X114012953Y49465227D01*
X114014991Y49465551D01*
X114019957Y49471270D01*
X114024556Y49474506D01*
X114049369Y49484141D01*
X114126407Y49514055D01*
X114129684Y49514807D01*
X114192981Y49519974D01*
X114249047Y49524550D01*
X114252409Y49524338D01*
X114369598Y49499665D01*
X114372762Y49498504D01*
X114401585Y49482890D01*
X114407226Y49475937D01*
X114407670Y49473581D01*
X114452708Y48936734D01*
X114449985Y48928203D01*
X114442027Y48924097D01*
X114432955Y48927308D01*
X113813021Y49521284D01*
X113809418Y49529482D01*
X113811569Y49536496D01*
X113845329Y49584143D01*
X113846004Y49585095D01*
X113846706Y49588251D01*
X113858647Y49641925D01*
X113858647Y49641928D01*
X113858867Y49642916D01*
X113858267Y49647632D01*
X113851458Y49701073D01*
X113851457Y49701077D01*
X113851380Y49701682D01*
X113843469Y49724393D01*
X113830678Y49761118D01*
X113830674Y49761129D01*
X113830597Y49761349D01*
X113803599Y49821818D01*
X113803524Y49821991D01*
X113777633Y49882586D01*
X113777171Y49883870D01*
X113759413Y49944011D01*
X113758951Y49946689D01*
X113755718Y50006165D01*
X113756171Y50010082D01*
X113773586Y50069672D01*
X113775419Y50073361D01*
X113813691Y50124951D01*
X113821373Y50129554D01*
X113830059Y50127377D01*
G37*
%TD.AperFunction*%
%TD*%
%TA.AperFunction,Conductor*%
%TO.N,RST*%
G36*
X80410146Y60702828D02*
G01*
X80559315Y60699913D01*
X80567518Y60696325D01*
X80570076Y60692227D01*
X80578296Y60669705D01*
X80578331Y60669621D01*
X80589270Y60643090D01*
X80589276Y60643076D01*
X80589327Y60642953D01*
X80600945Y60618659D01*
X80613671Y60595980D01*
X80628028Y60574077D01*
X80644538Y60552107D01*
X80663725Y60529229D01*
X80663788Y60529160D01*
X80663799Y60529147D01*
X80686099Y60504614D01*
X80686109Y60504603D01*
X80712215Y60477386D01*
X80734372Y60455010D01*
X80737758Y60446720D01*
X80734331Y60438505D01*
X80574020Y60278194D01*
X80565747Y60274767D01*
X80557516Y60278152D01*
X80535139Y60300310D01*
X80507922Y60326416D01*
X80483378Y60348726D01*
X80483365Y60348737D01*
X80483296Y60348800D01*
X80460418Y60367987D01*
X80438448Y60384497D01*
X80416545Y60398854D01*
X80393866Y60411580D01*
X80393696Y60411661D01*
X80393687Y60411666D01*
X80369712Y60423131D01*
X80369572Y60423198D01*
X80369449Y60423249D01*
X80369435Y60423255D01*
X80342904Y60434195D01*
X80342883Y60434203D01*
X80342820Y60434229D01*
X80329505Y60439089D01*
X80320299Y60442450D01*
X80313703Y60448506D01*
X80312613Y60453212D01*
X80312141Y60477398D01*
X80308380Y60669782D01*
X80307933Y60692666D01*
X80311198Y60701005D01*
X80319860Y60704593D01*
X80410146Y60702828D01*
G37*
%TD.AperFunction*%
%TD*%
%TA.AperFunction,Conductor*%
%TO.N,GNDrst*%
G36*
X117115851Y49598787D02*
G01*
X117119915Y49596608D01*
X117140568Y49585534D01*
X117141333Y49585085D01*
X117172947Y49564832D01*
X117232532Y49526660D01*
X117233079Y49526287D01*
X117309358Y49471093D01*
X117312221Y49469021D01*
X117312404Y49468885D01*
X117384636Y49414263D01*
X117455019Y49363881D01*
X117528662Y49319308D01*
X117610773Y49282040D01*
X117706561Y49253569D01*
X117821233Y49235391D01*
X117821557Y49235376D01*
X117821558Y49235376D01*
X117948838Y49229514D01*
X117956945Y49225710D01*
X117960000Y49217826D01*
X117960000Y48990174D01*
X117956573Y48981901D01*
X117948838Y48978486D01*
X117821558Y48972623D01*
X117821557Y48972623D01*
X117821233Y48972608D01*
X117706561Y48954430D01*
X117610773Y48925959D01*
X117528662Y48888691D01*
X117455019Y48844118D01*
X117384636Y48793736D01*
X117384595Y48793705D01*
X117312419Y48739125D01*
X117312221Y48738978D01*
X117233080Y48681712D01*
X117232534Y48681340D01*
X117141333Y48622914D01*
X117140568Y48622465D01*
X117042538Y48569901D01*
X117039036Y48568023D01*
X117030125Y48567133D01*
X117025397Y48569901D01*
X116655310Y48925796D01*
X116478769Y49095567D01*
X116475181Y49103771D01*
X116478769Y49112433D01*
X116606615Y49235376D01*
X116884460Y49502567D01*
X116892799Y49505832D01*
X116896805Y49505041D01*
X116976499Y49474096D01*
X116980890Y49471093D01*
X116982789Y49469021D01*
X116984910Y49466706D01*
X116986726Y49466336D01*
X116986727Y49466336D01*
X116991489Y49465367D01*
X116995775Y49464495D01*
X116999117Y49463261D01*
X117011386Y49456452D01*
X117021359Y49458385D01*
X117025915Y49458364D01*
X117032987Y49456925D01*
X117034674Y49457694D01*
X117034675Y49457694D01*
X117045895Y49462808D01*
X117048521Y49463648D01*
X117065341Y49466907D01*
X117069734Y49472325D01*
X117073970Y49475602D01*
X117075947Y49476503D01*
X117075948Y49476504D01*
X117077633Y49477272D01*
X117086130Y49492292D01*
X117087225Y49493900D01*
X117098653Y49507994D01*
X117098653Y49507995D01*
X117099953Y49509598D01*
X117099890Y49513331D01*
X117100698Y49516507D01*
X117100510Y49516545D01*
X117100879Y49518361D01*
X117101792Y49519974D01*
X117099490Y49540176D01*
X117099417Y49541297D01*
X117098671Y49585534D01*
X117098624Y49588279D01*
X117101910Y49596608D01*
X117110125Y49600174D01*
X117115851Y49598787D01*
G37*
%TD.AperFunction*%
%TD*%
%TA.AperFunction,Conductor*%
%TO.N,GNDrst*%
G36*
X80972043Y62039530D02*
G01*
X81121212Y62036615D01*
X81129415Y62033027D01*
X81131973Y62028929D01*
X81140193Y62006407D01*
X81140228Y62006323D01*
X81151167Y61979792D01*
X81151173Y61979778D01*
X81151224Y61979655D01*
X81162842Y61955361D01*
X81175568Y61932682D01*
X81189925Y61910779D01*
X81206435Y61888809D01*
X81225622Y61865931D01*
X81225685Y61865862D01*
X81225696Y61865849D01*
X81247996Y61841316D01*
X81248006Y61841305D01*
X81274112Y61814088D01*
X81296269Y61791712D01*
X81299655Y61783422D01*
X81296228Y61775207D01*
X81135917Y61614896D01*
X81127644Y61611469D01*
X81119413Y61614854D01*
X81097036Y61637012D01*
X81069819Y61663118D01*
X81045275Y61685428D01*
X81045262Y61685439D01*
X81045193Y61685502D01*
X81022315Y61704689D01*
X81000345Y61721199D01*
X80978442Y61735556D01*
X80955763Y61748282D01*
X80955593Y61748363D01*
X80955584Y61748368D01*
X80931609Y61759833D01*
X80931469Y61759900D01*
X80931346Y61759951D01*
X80931332Y61759957D01*
X80904801Y61770897D01*
X80904780Y61770905D01*
X80904717Y61770931D01*
X80891402Y61775791D01*
X80882196Y61779152D01*
X80875600Y61785208D01*
X80874510Y61789914D01*
X80874038Y61814100D01*
X80870277Y62006484D01*
X80869830Y62029368D01*
X80873095Y62037707D01*
X80881757Y62041295D01*
X80972043Y62039530D01*
G37*
%TD.AperFunction*%
%TD*%
%TA.AperFunction,Conductor*%
%TO.N,pos*%
G36*
X72102240Y64902563D02*
G01*
X72105828Y64893901D01*
X72098614Y64524901D01*
X72095026Y64516697D01*
X72090581Y64514019D01*
X72045446Y64499132D01*
X72045183Y64499048D01*
X71997993Y64484709D01*
X71997942Y64484694D01*
X71955302Y64471947D01*
X71955282Y64471941D01*
X71955233Y64471926D01*
X71915678Y64459153D01*
X71905822Y64455402D01*
X71878214Y64444895D01*
X71878202Y64444890D01*
X71878000Y64444813D01*
X71840867Y64427329D01*
X71840642Y64427197D01*
X71840634Y64427193D01*
X71803188Y64405264D01*
X71802951Y64405125D01*
X71762920Y64376623D01*
X71719445Y64340247D01*
X71719312Y64340121D01*
X71719309Y64340118D01*
X71679465Y64302273D01*
X71671106Y64299060D01*
X71663134Y64302483D01*
X71502483Y64463134D01*
X71499056Y64471407D01*
X71502273Y64479465D01*
X71540118Y64519309D01*
X71540121Y64519312D01*
X71540247Y64519445D01*
X71576623Y64562920D01*
X71605125Y64602951D01*
X71627329Y64640867D01*
X71644813Y64678000D01*
X71644890Y64678202D01*
X71644895Y64678214D01*
X71659098Y64715534D01*
X71659153Y64715678D01*
X71671926Y64755233D01*
X71684709Y64797993D01*
X71699048Y64845183D01*
X71699132Y64845446D01*
X71714019Y64890581D01*
X71719865Y64897364D01*
X71724901Y64898614D01*
X72093901Y64905828D01*
X72102240Y64902563D01*
G37*
%TD.AperFunction*%
%TD*%
%TA.AperFunction,Conductor*%
%TO.N,pos*%
G36*
X72102240Y64902563D02*
G01*
X72105828Y64893901D01*
X72098614Y64524901D01*
X72095026Y64516697D01*
X72090581Y64514019D01*
X72045446Y64499132D01*
X72045183Y64499048D01*
X71997993Y64484709D01*
X71997942Y64484694D01*
X71955302Y64471947D01*
X71955282Y64471941D01*
X71955233Y64471926D01*
X71915678Y64459153D01*
X71905822Y64455402D01*
X71878214Y64444895D01*
X71878202Y64444890D01*
X71878000Y64444813D01*
X71840867Y64427329D01*
X71840642Y64427197D01*
X71840634Y64427193D01*
X71803188Y64405264D01*
X71802951Y64405125D01*
X71762920Y64376623D01*
X71719445Y64340247D01*
X71719312Y64340121D01*
X71719309Y64340118D01*
X71679465Y64302273D01*
X71671106Y64299060D01*
X71663134Y64302483D01*
X71502483Y64463134D01*
X71499056Y64471407D01*
X71502273Y64479465D01*
X71540118Y64519309D01*
X71540121Y64519312D01*
X71540247Y64519445D01*
X71576623Y64562920D01*
X71605125Y64602951D01*
X71627329Y64640867D01*
X71644813Y64678000D01*
X71644890Y64678202D01*
X71644895Y64678214D01*
X71659098Y64715534D01*
X71659153Y64715678D01*
X71671926Y64755233D01*
X71684709Y64797993D01*
X71699048Y64845183D01*
X71699132Y64845446D01*
X71714019Y64890581D01*
X71719865Y64897364D01*
X71724901Y64898614D01*
X72093901Y64905828D01*
X72102240Y64902563D01*
G37*
%TD.AperFunction*%
%TD*%
%TA.AperFunction,Conductor*%
%TO.N,RAW*%
G36*
X72325001Y65866240D02*
G01*
X72707779Y65766257D01*
X72714917Y65760851D01*
X72716509Y65755479D01*
X72718757Y65707047D01*
X72718797Y65706774D01*
X72718798Y65706764D01*
X72723238Y65676492D01*
X72725944Y65658037D01*
X72736535Y65614727D01*
X72749396Y65574789D01*
X72749422Y65574717D01*
X72749426Y65574705D01*
X72763372Y65535953D01*
X72763412Y65535840D01*
X72777297Y65495986D01*
X72777462Y65495472D01*
X72785303Y65468784D01*
X72790125Y65452371D01*
X72790342Y65451511D01*
X72800733Y65402744D01*
X72800901Y65401746D01*
X72807965Y65344774D01*
X72808045Y65343786D01*
X72809028Y65318361D01*
X72810205Y65287891D01*
X72807100Y65279491D01*
X72798514Y65275739D01*
X72571478Y65275739D01*
X72563205Y65279166D01*
X72559815Y65286509D01*
X72557274Y65318361D01*
X72557274Y65318362D01*
X72557228Y65318936D01*
X72550211Y65343786D01*
X72547529Y65353286D01*
X72547527Y65353290D01*
X72547343Y65353943D01*
X72531695Y65381939D01*
X72510962Y65404103D01*
X72485819Y65421616D01*
X72456944Y65435657D01*
X72449653Y65438340D01*
X72425167Y65447350D01*
X72425157Y65447353D01*
X72425014Y65447406D01*
X72390704Y65458042D01*
X72390616Y65458068D01*
X72390597Y65458074D01*
X72354834Y65468704D01*
X72354601Y65468776D01*
X72325599Y65478134D01*
X72318779Y65483935D01*
X72317495Y65489039D01*
X72310346Y65854691D01*
X72313611Y65863030D01*
X72321815Y65866618D01*
X72325001Y65866240D01*
G37*
%TD.AperFunction*%
%TD*%
%TA.AperFunction,Conductor*%
%TO.N,col_6*%
G36*
X95336866Y53997517D02*
G01*
X95497517Y53836866D01*
X95500944Y53828593D01*
X95497727Y53820535D01*
X95459752Y53780554D01*
X95423376Y53737079D01*
X95394874Y53697048D01*
X95372670Y53659132D01*
X95355186Y53621999D01*
X95355109Y53621797D01*
X95355104Y53621785D01*
X95344597Y53594177D01*
X95340846Y53584321D01*
X95328073Y53544766D01*
X95328060Y53544723D01*
X95328052Y53544697D01*
X95315305Y53502057D01*
X95315290Y53502006D01*
X95300951Y53454816D01*
X95300867Y53454553D01*
X95285981Y53409419D01*
X95280136Y53402636D01*
X95275099Y53401386D01*
X94906099Y53394172D01*
X94897760Y53397437D01*
X94894172Y53406099D01*
X94901386Y53775099D01*
X94904974Y53783303D01*
X94909419Y53785981D01*
X94954553Y53800867D01*
X94954816Y53800951D01*
X95002006Y53815290D01*
X95002057Y53815305D01*
X95044697Y53828052D01*
X95044717Y53828058D01*
X95044766Y53828073D01*
X95084321Y53840846D01*
X95094177Y53844597D01*
X95121785Y53855104D01*
X95121797Y53855109D01*
X95121999Y53855186D01*
X95159132Y53872670D01*
X95159357Y53872802D01*
X95159365Y53872806D01*
X95196811Y53894735D01*
X95196814Y53894737D01*
X95197048Y53894874D01*
X95237079Y53923376D01*
X95280554Y53959752D01*
X95320535Y53997727D01*
X95328894Y54000940D01*
X95336866Y53997517D01*
G37*
%TD.AperFunction*%
%TD*%
%TA.AperFunction,Conductor*%
%TO.N,col_5*%
G36*
X84416167Y5271270D02*
G01*
X84458611Y5249880D01*
X84458857Y5249753D01*
X84502361Y5226525D01*
X84541637Y5205328D01*
X84578639Y5186391D01*
X84615421Y5169888D01*
X84615616Y5169818D01*
X84615623Y5169815D01*
X84653798Y5156081D01*
X84653806Y5156078D01*
X84654041Y5155994D01*
X84654280Y5155931D01*
X84654285Y5155930D01*
X84696299Y5144949D01*
X84696307Y5144947D01*
X84696553Y5144883D01*
X84696812Y5144839D01*
X84696814Y5144839D01*
X84744793Y5136768D01*
X84745013Y5136731D01*
X84745235Y5136711D01*
X84745237Y5136711D01*
X84753925Y5135939D01*
X84801477Y5131711D01*
X84801660Y5131706D01*
X84801665Y5131706D01*
X84856601Y5130293D01*
X84864783Y5126655D01*
X84868000Y5118597D01*
X84868000Y4891403D01*
X84864573Y4883130D01*
X84856601Y4879707D01*
X84801665Y4878293D01*
X84801660Y4878293D01*
X84801477Y4878288D01*
X84753925Y4874060D01*
X84745237Y4873288D01*
X84745235Y4873288D01*
X84745013Y4873268D01*
X84744793Y4873231D01*
X84696814Y4865160D01*
X84696812Y4865160D01*
X84696553Y4865116D01*
X84696307Y4865052D01*
X84696299Y4865050D01*
X84654285Y4854069D01*
X84654280Y4854068D01*
X84654041Y4854005D01*
X84653806Y4853921D01*
X84653798Y4853918D01*
X84615623Y4840184D01*
X84615616Y4840181D01*
X84615421Y4840111D01*
X84578639Y4823608D01*
X84541637Y4804671D01*
X84541615Y4804659D01*
X84541607Y4804655D01*
X84502407Y4783499D01*
X84502361Y4783474D01*
X84458857Y4760246D01*
X84458611Y4760119D01*
X84416167Y4738730D01*
X84407237Y4738067D01*
X84402792Y4740745D01*
X84336297Y4804690D01*
X84136769Y4996567D01*
X84133181Y5004771D01*
X84136769Y5013433D01*
X84246127Y5118597D01*
X84382512Y5249753D01*
X84402792Y5269255D01*
X84411131Y5272520D01*
X84416167Y5271270D01*
G37*
%TD.AperFunction*%
%TD*%
%TA.AperFunction,Conductor*%
%TO.N,col_5*%
G36*
X84399870Y8091573D02*
G01*
X84403293Y8083601D01*
X84404711Y8028477D01*
X84409731Y7972013D01*
X84417883Y7923553D01*
X84428994Y7881041D01*
X84442888Y7842421D01*
X84459391Y7805639D01*
X84459457Y7805509D01*
X84459458Y7805508D01*
X84478309Y7768675D01*
X84478328Y7768637D01*
X84499500Y7729407D01*
X84499525Y7729361D01*
X84522753Y7685857D01*
X84522880Y7685611D01*
X84544270Y7643167D01*
X84544933Y7634237D01*
X84542255Y7629792D01*
X84286433Y7363769D01*
X84278229Y7360181D01*
X84269567Y7363769D01*
X84013745Y7629792D01*
X84010480Y7638131D01*
X84011730Y7643167D01*
X84033119Y7685611D01*
X84033246Y7685857D01*
X84056449Y7729315D01*
X84056474Y7729361D01*
X84077671Y7768637D01*
X84077690Y7768675D01*
X84096541Y7805508D01*
X84096542Y7805509D01*
X84096608Y7805639D01*
X84113111Y7842421D01*
X84127005Y7881041D01*
X84138116Y7923553D01*
X84146268Y7972013D01*
X84151288Y8028477D01*
X84152707Y8083601D01*
X84156345Y8091783D01*
X84164403Y8095000D01*
X84391597Y8095000D01*
X84399870Y8091573D01*
G37*
%TD.AperFunction*%
%TD*%
%TA.AperFunction,Conductor*%
%TO.N,col_5*%
G36*
X84286433Y24146231D02*
G01*
X84542255Y23880208D01*
X84545520Y23871869D01*
X84544270Y23866833D01*
X84522880Y23824388D01*
X84522753Y23824142D01*
X84499525Y23780638D01*
X84478328Y23741362D01*
X84459391Y23704360D01*
X84442888Y23667578D01*
X84428994Y23628958D01*
X84417883Y23586446D01*
X84409731Y23537986D01*
X84404711Y23481522D01*
X84404706Y23481339D01*
X84404706Y23481334D01*
X84403293Y23426399D01*
X84399655Y23418217D01*
X84391597Y23415000D01*
X84164403Y23415000D01*
X84156130Y23418427D01*
X84152707Y23426399D01*
X84151293Y23481334D01*
X84151293Y23481339D01*
X84151288Y23481522D01*
X84146268Y23537986D01*
X84138116Y23586446D01*
X84127005Y23628958D01*
X84113111Y23667578D01*
X84096608Y23704360D01*
X84077671Y23741362D01*
X84056474Y23780638D01*
X84033246Y23824142D01*
X84033119Y23824388D01*
X84011730Y23866833D01*
X84011067Y23875763D01*
X84013745Y23880208D01*
X84269567Y24146231D01*
X84277771Y24149819D01*
X84286433Y24146231D01*
G37*
%TD.AperFunction*%
%TD*%
%TA.AperFunction,Conductor*%
%TO.N,col_5*%
G36*
X84399870Y27091573D02*
G01*
X84403293Y27083601D01*
X84404711Y27028477D01*
X84409731Y26972013D01*
X84417883Y26923553D01*
X84428994Y26881041D01*
X84442888Y26842421D01*
X84459391Y26805639D01*
X84459457Y26805509D01*
X84459458Y26805508D01*
X84478309Y26768675D01*
X84478328Y26768637D01*
X84499500Y26729407D01*
X84499525Y26729361D01*
X84522753Y26685857D01*
X84522880Y26685611D01*
X84544270Y26643167D01*
X84544933Y26634237D01*
X84542255Y26629792D01*
X84286433Y26363769D01*
X84278229Y26360181D01*
X84269567Y26363769D01*
X84013745Y26629792D01*
X84010480Y26638131D01*
X84011730Y26643167D01*
X84033119Y26685611D01*
X84033246Y26685857D01*
X84056449Y26729315D01*
X84056474Y26729361D01*
X84077671Y26768637D01*
X84077690Y26768675D01*
X84096541Y26805508D01*
X84096542Y26805509D01*
X84096608Y26805639D01*
X84113111Y26842421D01*
X84127005Y26881041D01*
X84138116Y26923553D01*
X84146268Y26972013D01*
X84151288Y27028477D01*
X84152707Y27083601D01*
X84156345Y27091783D01*
X84164403Y27095000D01*
X84391597Y27095000D01*
X84399870Y27091573D01*
G37*
%TD.AperFunction*%
%TD*%
%TA.AperFunction,Conductor*%
%TO.N,col_5*%
G36*
X83602240Y44852563D02*
G01*
X83605828Y44843901D01*
X83598614Y44474901D01*
X83595026Y44466697D01*
X83590581Y44464019D01*
X83545446Y44449132D01*
X83545183Y44449048D01*
X83497993Y44434709D01*
X83497942Y44434694D01*
X83455302Y44421947D01*
X83455282Y44421941D01*
X83455233Y44421926D01*
X83415678Y44409153D01*
X83405822Y44405402D01*
X83378214Y44394895D01*
X83378202Y44394890D01*
X83378000Y44394813D01*
X83340867Y44377329D01*
X83340642Y44377197D01*
X83340634Y44377193D01*
X83303188Y44355264D01*
X83302951Y44355125D01*
X83262920Y44326623D01*
X83219445Y44290247D01*
X83219312Y44290121D01*
X83219309Y44290118D01*
X83179465Y44252273D01*
X83171106Y44249060D01*
X83163134Y44252483D01*
X83002483Y44413134D01*
X82999056Y44421407D01*
X83002273Y44429465D01*
X83040118Y44469309D01*
X83040121Y44469312D01*
X83040247Y44469445D01*
X83076623Y44512920D01*
X83105125Y44552951D01*
X83127329Y44590867D01*
X83144813Y44628000D01*
X83144890Y44628202D01*
X83144895Y44628214D01*
X83159098Y44665534D01*
X83159153Y44665678D01*
X83171926Y44705233D01*
X83184709Y44747993D01*
X83199048Y44795183D01*
X83199132Y44795446D01*
X83214019Y44840581D01*
X83219865Y44847364D01*
X83224901Y44848614D01*
X83593901Y44855828D01*
X83602240Y44852563D01*
G37*
%TD.AperFunction*%
%TD*%
%TA.AperFunction,Conductor*%
%TO.N,col_5*%
G36*
X83621870Y47836573D02*
G01*
X83625293Y47828601D01*
X83626711Y47773477D01*
X83631731Y47717013D01*
X83639883Y47668553D01*
X83650994Y47626041D01*
X83664888Y47587421D01*
X83681391Y47550639D01*
X83681457Y47550509D01*
X83681458Y47550508D01*
X83700309Y47513675D01*
X83700328Y47513637D01*
X83721500Y47474407D01*
X83721525Y47474361D01*
X83744753Y47430857D01*
X83744880Y47430611D01*
X83766270Y47388167D01*
X83766933Y47379237D01*
X83764255Y47374792D01*
X83508433Y47108769D01*
X83500229Y47105181D01*
X83491567Y47108769D01*
X83235745Y47374792D01*
X83232480Y47383131D01*
X83233730Y47388167D01*
X83255119Y47430611D01*
X83255246Y47430857D01*
X83278449Y47474315D01*
X83278474Y47474361D01*
X83299671Y47513637D01*
X83299690Y47513675D01*
X83318541Y47550508D01*
X83318542Y47550509D01*
X83318608Y47550639D01*
X83335111Y47587421D01*
X83349005Y47626041D01*
X83360116Y47668553D01*
X83368268Y47717013D01*
X83373288Y47773477D01*
X83374707Y47828601D01*
X83378345Y47836783D01*
X83386403Y47840000D01*
X83613597Y47840000D01*
X83621870Y47836573D01*
G37*
%TD.AperFunction*%
%TD*%
%TA.AperFunction,Conductor*%
%TO.N,col_4*%
G36*
X64775099Y12848614D02*
G01*
X64783303Y12845026D01*
X64785981Y12840581D01*
X64800867Y12795446D01*
X64800951Y12795183D01*
X64815290Y12747993D01*
X64828073Y12705233D01*
X64840846Y12665678D01*
X64840901Y12665534D01*
X64855104Y12628214D01*
X64855109Y12628202D01*
X64855186Y12628000D01*
X64872670Y12590867D01*
X64894874Y12552951D01*
X64923376Y12512920D01*
X64951516Y12479288D01*
X64959401Y12469865D01*
X64959752Y12469445D01*
X64959878Y12469312D01*
X64959881Y12469309D01*
X64997727Y12429465D01*
X65000940Y12421106D01*
X64997517Y12413134D01*
X64836865Y12252482D01*
X64828592Y12249055D01*
X64820537Y12252271D01*
X64780554Y12290247D01*
X64737079Y12326623D01*
X64697048Y12355125D01*
X64696811Y12355264D01*
X64659365Y12377193D01*
X64659357Y12377197D01*
X64659132Y12377329D01*
X64621999Y12394813D01*
X64621797Y12394890D01*
X64621785Y12394895D01*
X64594177Y12405402D01*
X64584321Y12409153D01*
X64544766Y12421926D01*
X64544717Y12421941D01*
X64544697Y12421947D01*
X64502057Y12434694D01*
X64502006Y12434709D01*
X64454816Y12449048D01*
X64454553Y12449132D01*
X64409419Y12464019D01*
X64402636Y12469865D01*
X64401386Y12474901D01*
X64394172Y12843901D01*
X64397437Y12852240D01*
X64406099Y12855828D01*
X64775099Y12848614D01*
G37*
%TD.AperFunction*%
%TD*%
%TA.AperFunction,Conductor*%
%TO.N,col_4*%
G36*
X64621870Y15836573D02*
G01*
X64625293Y15828601D01*
X64626711Y15773477D01*
X64631731Y15717013D01*
X64639883Y15668553D01*
X64650994Y15626041D01*
X64664888Y15587421D01*
X64681391Y15550639D01*
X64681457Y15550509D01*
X64681458Y15550508D01*
X64700309Y15513675D01*
X64700328Y15513637D01*
X64721500Y15474407D01*
X64721525Y15474361D01*
X64744753Y15430857D01*
X64744880Y15430611D01*
X64766270Y15388167D01*
X64766933Y15379237D01*
X64764255Y15374792D01*
X64508433Y15108769D01*
X64500229Y15105181D01*
X64491567Y15108769D01*
X64235745Y15374792D01*
X64232480Y15383131D01*
X64233730Y15388167D01*
X64255119Y15430611D01*
X64255246Y15430857D01*
X64278449Y15474315D01*
X64278474Y15474361D01*
X64299671Y15513637D01*
X64299690Y15513675D01*
X64318541Y15550508D01*
X64318542Y15550509D01*
X64318608Y15550639D01*
X64335111Y15587421D01*
X64349005Y15626041D01*
X64360116Y15668553D01*
X64368268Y15717013D01*
X64373288Y15773477D01*
X64374707Y15828601D01*
X64378345Y15836783D01*
X64386403Y15840000D01*
X64613597Y15840000D01*
X64621870Y15836573D01*
G37*
%TD.AperFunction*%
%TD*%
%TA.AperFunction,Conductor*%
%TO.N,col_4*%
G36*
X64508433Y31891231D02*
G01*
X64764255Y31625208D01*
X64767520Y31616869D01*
X64766270Y31611833D01*
X64744880Y31569388D01*
X64744753Y31569142D01*
X64721525Y31525638D01*
X64700328Y31486362D01*
X64681391Y31449360D01*
X64664888Y31412578D01*
X64650994Y31373958D01*
X64639883Y31331446D01*
X64631731Y31282986D01*
X64626711Y31226522D01*
X64626706Y31226339D01*
X64626706Y31226334D01*
X64625293Y31171399D01*
X64621655Y31163217D01*
X64613597Y31160000D01*
X64386403Y31160000D01*
X64378130Y31163427D01*
X64374707Y31171399D01*
X64373293Y31226334D01*
X64373293Y31226339D01*
X64373288Y31226522D01*
X64368268Y31282986D01*
X64360116Y31331446D01*
X64349005Y31373958D01*
X64335111Y31412578D01*
X64318608Y31449360D01*
X64299671Y31486362D01*
X64278474Y31525638D01*
X64255246Y31569142D01*
X64255119Y31569388D01*
X64233730Y31611833D01*
X64233067Y31620763D01*
X64235745Y31625208D01*
X64491567Y31891231D01*
X64499771Y31894819D01*
X64508433Y31891231D01*
G37*
%TD.AperFunction*%
%TD*%
%TA.AperFunction,Conductor*%
%TO.N,col_4*%
G36*
X64621870Y34836573D02*
G01*
X64625293Y34828601D01*
X64626711Y34773477D01*
X64631731Y34717013D01*
X64639883Y34668553D01*
X64650994Y34626041D01*
X64664888Y34587421D01*
X64681391Y34550639D01*
X64681457Y34550509D01*
X64681458Y34550508D01*
X64700309Y34513675D01*
X64700328Y34513637D01*
X64721500Y34474407D01*
X64721525Y34474361D01*
X64744753Y34430857D01*
X64744880Y34430611D01*
X64766270Y34388167D01*
X64766933Y34379237D01*
X64764255Y34374792D01*
X64508433Y34108769D01*
X64500229Y34105181D01*
X64491567Y34108769D01*
X64235745Y34374792D01*
X64232480Y34383131D01*
X64233730Y34388167D01*
X64255119Y34430611D01*
X64255246Y34430857D01*
X64278449Y34474315D01*
X64278474Y34474361D01*
X64299671Y34513637D01*
X64299690Y34513675D01*
X64318541Y34550508D01*
X64318542Y34550509D01*
X64318608Y34550639D01*
X64335111Y34587421D01*
X64349005Y34626041D01*
X64360116Y34668553D01*
X64368268Y34717013D01*
X64373288Y34773477D01*
X64374707Y34828601D01*
X64378345Y34836783D01*
X64386403Y34840000D01*
X64613597Y34840000D01*
X64621870Y34836573D01*
G37*
%TD.AperFunction*%
%TD*%
%TA.AperFunction,Conductor*%
%TO.N,col_4*%
G36*
X64508433Y50891231D02*
G01*
X64764255Y50625208D01*
X64767520Y50616869D01*
X64766270Y50611833D01*
X64744880Y50569388D01*
X64744753Y50569142D01*
X64721525Y50525638D01*
X64700328Y50486362D01*
X64681391Y50449360D01*
X64664888Y50412578D01*
X64650994Y50373958D01*
X64639883Y50331446D01*
X64631731Y50282986D01*
X64626711Y50226522D01*
X64626706Y50226339D01*
X64626706Y50226334D01*
X64625293Y50171399D01*
X64621655Y50163217D01*
X64613597Y50160000D01*
X64386403Y50160000D01*
X64378130Y50163427D01*
X64374707Y50171399D01*
X64373293Y50226334D01*
X64373293Y50226339D01*
X64373288Y50226522D01*
X64368268Y50282986D01*
X64360116Y50331446D01*
X64349005Y50373958D01*
X64335111Y50412578D01*
X64318608Y50449360D01*
X64299671Y50486362D01*
X64278474Y50525638D01*
X64255246Y50569142D01*
X64255119Y50569388D01*
X64233730Y50611833D01*
X64233067Y50620763D01*
X64235745Y50625208D01*
X64491567Y50891231D01*
X64499771Y50894819D01*
X64508433Y50891231D01*
G37*
%TD.AperFunction*%
%TD*%
%TA.AperFunction,Conductor*%
%TO.N,col_4*%
G36*
X64621870Y53836573D02*
G01*
X64625293Y53828601D01*
X64626711Y53773477D01*
X64631731Y53717013D01*
X64639883Y53668553D01*
X64650994Y53626041D01*
X64664888Y53587421D01*
X64681391Y53550639D01*
X64681457Y53550509D01*
X64681458Y53550508D01*
X64700309Y53513675D01*
X64700328Y53513637D01*
X64721500Y53474407D01*
X64721525Y53474361D01*
X64744753Y53430857D01*
X64744880Y53430611D01*
X64766270Y53388167D01*
X64766933Y53379237D01*
X64764255Y53374792D01*
X64508433Y53108769D01*
X64500229Y53105181D01*
X64491567Y53108769D01*
X64235745Y53374792D01*
X64232480Y53383131D01*
X64233730Y53388167D01*
X64255119Y53430611D01*
X64255246Y53430857D01*
X64278449Y53474315D01*
X64278474Y53474361D01*
X64299671Y53513637D01*
X64299690Y53513675D01*
X64318541Y53550508D01*
X64318542Y53550509D01*
X64318608Y53550639D01*
X64335111Y53587421D01*
X64349005Y53626041D01*
X64360116Y53668553D01*
X64368268Y53717013D01*
X64373288Y53773477D01*
X64374707Y53828601D01*
X64378345Y53836783D01*
X64386403Y53840000D01*
X64613597Y53840000D01*
X64621870Y53836573D01*
G37*
%TD.AperFunction*%
%TD*%
%TA.AperFunction,Conductor*%
%TO.N,middle_top*%
G36*
X59903178Y55816426D02*
G01*
X60090099Y55666620D01*
X60094412Y55658772D01*
X60091619Y55649822D01*
X59934645Y55468925D01*
X59926634Y55464922D01*
X59921860Y55465579D01*
X59896192Y55474780D01*
X59896190Y55474781D01*
X59896097Y55474814D01*
X59865656Y55484323D01*
X59865534Y55484354D01*
X59865528Y55484356D01*
X59837101Y55491643D01*
X59837096Y55491644D01*
X59836956Y55491680D01*
X59808883Y55497161D01*
X59808715Y55497184D01*
X59808702Y55497186D01*
X59788923Y55499873D01*
X59780319Y55501042D01*
X59780167Y55501055D01*
X59780157Y55501056D01*
X59767173Y55502156D01*
X59750150Y55503598D01*
X59717259Y55505106D01*
X59717201Y55505107D01*
X59717178Y55505108D01*
X59680531Y55505841D01*
X59638849Y55506080D01*
X59602793Y55506094D01*
X59594523Y55509524D01*
X59591099Y55517794D01*
X59591099Y55744461D01*
X59594526Y55752734D01*
X59602736Y55756161D01*
X59635008Y55756332D01*
X59673521Y55757219D01*
X59707550Y55759039D01*
X59738009Y55762073D01*
X59765812Y55766599D01*
X59791872Y55772897D01*
X59799435Y55775400D01*
X59816881Y55781174D01*
X59816892Y55781178D01*
X59817103Y55781248D01*
X59842418Y55791931D01*
X59842601Y55792024D01*
X59842613Y55792029D01*
X59868597Y55805158D01*
X59868732Y55805226D01*
X59890041Y55817446D01*
X59898922Y55818588D01*
X59903178Y55816426D01*
G37*
%TD.AperFunction*%
%TD*%
%TA.AperFunction,Conductor*%
%TO.N,col_3*%
G36*
X45775099Y11348614D02*
G01*
X45783303Y11345026D01*
X45785981Y11340581D01*
X45800867Y11295446D01*
X45800951Y11295183D01*
X45815290Y11247993D01*
X45828073Y11205233D01*
X45840846Y11165678D01*
X45840901Y11165534D01*
X45855104Y11128214D01*
X45855109Y11128202D01*
X45855186Y11128000D01*
X45872670Y11090867D01*
X45894874Y11052951D01*
X45923376Y11012920D01*
X45951516Y10979288D01*
X45959401Y10969865D01*
X45959752Y10969445D01*
X45959878Y10969312D01*
X45959881Y10969309D01*
X45997727Y10929465D01*
X46000940Y10921106D01*
X45997517Y10913134D01*
X45836865Y10752482D01*
X45828592Y10749055D01*
X45820537Y10752271D01*
X45780554Y10790247D01*
X45737079Y10826623D01*
X45697048Y10855125D01*
X45696811Y10855264D01*
X45659365Y10877193D01*
X45659357Y10877197D01*
X45659132Y10877329D01*
X45621999Y10894813D01*
X45621797Y10894890D01*
X45621785Y10894895D01*
X45594177Y10905402D01*
X45584321Y10909153D01*
X45544766Y10921926D01*
X45544717Y10921941D01*
X45544697Y10921947D01*
X45502057Y10934694D01*
X45502006Y10934709D01*
X45454816Y10949048D01*
X45454553Y10949132D01*
X45409419Y10964019D01*
X45402636Y10969865D01*
X45401386Y10974901D01*
X45394172Y11343901D01*
X45397437Y11352240D01*
X45406099Y11355828D01*
X45775099Y11348614D01*
G37*
%TD.AperFunction*%
%TD*%
%TA.AperFunction,Conductor*%
%TO.N,col_3*%
G36*
X45179464Y14247727D02*
G01*
X45219445Y14209752D01*
X45262920Y14173376D01*
X45302951Y14144874D01*
X45303185Y14144737D01*
X45303188Y14144735D01*
X45340634Y14122806D01*
X45340642Y14122802D01*
X45340867Y14122670D01*
X45378000Y14105186D01*
X45378202Y14105109D01*
X45378214Y14105104D01*
X45405822Y14094597D01*
X45415678Y14090846D01*
X45455233Y14078073D01*
X45455282Y14078058D01*
X45455302Y14078052D01*
X45497942Y14065305D01*
X45497993Y14065290D01*
X45545183Y14050951D01*
X45545446Y14050867D01*
X45590581Y14035981D01*
X45597364Y14030136D01*
X45598614Y14025099D01*
X45605828Y13656099D01*
X45602563Y13647760D01*
X45593901Y13644172D01*
X45224901Y13651386D01*
X45216697Y13654974D01*
X45214019Y13659419D01*
X45199132Y13704553D01*
X45199048Y13704816D01*
X45184709Y13752006D01*
X45184694Y13752057D01*
X45171947Y13794697D01*
X45171939Y13794723D01*
X45171926Y13794766D01*
X45159153Y13834321D01*
X45155402Y13844177D01*
X45144895Y13871785D01*
X45144890Y13871797D01*
X45144813Y13871999D01*
X45127329Y13909132D01*
X45105125Y13947048D01*
X45076623Y13987079D01*
X45040247Y14030554D01*
X45002271Y14070537D01*
X44999059Y14078893D01*
X45002482Y14086865D01*
X45163134Y14247517D01*
X45171407Y14250944D01*
X45179464Y14247727D01*
G37*
%TD.AperFunction*%
%TD*%
%TA.AperFunction,Conductor*%
%TO.N,col_3*%
G36*
X45602240Y30352563D02*
G01*
X45605828Y30343901D01*
X45598614Y29974901D01*
X45595026Y29966697D01*
X45590581Y29964019D01*
X45545446Y29949132D01*
X45545183Y29949048D01*
X45497993Y29934709D01*
X45497942Y29934694D01*
X45455302Y29921947D01*
X45455282Y29921941D01*
X45455233Y29921926D01*
X45415678Y29909153D01*
X45405822Y29905402D01*
X45378214Y29894895D01*
X45378202Y29894890D01*
X45378000Y29894813D01*
X45340867Y29877329D01*
X45340642Y29877197D01*
X45340634Y29877193D01*
X45303188Y29855264D01*
X45302951Y29855125D01*
X45262920Y29826623D01*
X45219445Y29790247D01*
X45219312Y29790121D01*
X45219309Y29790118D01*
X45179465Y29752273D01*
X45171106Y29749060D01*
X45163134Y29752483D01*
X45002483Y29913134D01*
X44999056Y29921407D01*
X45002273Y29929465D01*
X45040118Y29969309D01*
X45040121Y29969312D01*
X45040247Y29969445D01*
X45076623Y30012920D01*
X45105125Y30052951D01*
X45127329Y30090867D01*
X45144813Y30128000D01*
X45144890Y30128202D01*
X45144895Y30128214D01*
X45159098Y30165534D01*
X45159153Y30165678D01*
X45171926Y30205233D01*
X45184709Y30247993D01*
X45199048Y30295183D01*
X45199132Y30295446D01*
X45214019Y30340581D01*
X45219865Y30347364D01*
X45224901Y30348614D01*
X45593901Y30355828D01*
X45602240Y30352563D01*
G37*
%TD.AperFunction*%
%TD*%
%TA.AperFunction,Conductor*%
%TO.N,col_3*%
G36*
X45179464Y33247727D02*
G01*
X45219445Y33209752D01*
X45262920Y33173376D01*
X45302951Y33144874D01*
X45303185Y33144737D01*
X45303188Y33144735D01*
X45340634Y33122806D01*
X45340642Y33122802D01*
X45340867Y33122670D01*
X45378000Y33105186D01*
X45378202Y33105109D01*
X45378214Y33105104D01*
X45405822Y33094597D01*
X45415678Y33090846D01*
X45455233Y33078073D01*
X45455282Y33078058D01*
X45455302Y33078052D01*
X45497942Y33065305D01*
X45497993Y33065290D01*
X45545183Y33050951D01*
X45545446Y33050867D01*
X45590581Y33035981D01*
X45597364Y33030136D01*
X45598614Y33025099D01*
X45605828Y32656099D01*
X45602563Y32647760D01*
X45593901Y32644172D01*
X45224901Y32651386D01*
X45216697Y32654974D01*
X45214019Y32659419D01*
X45199132Y32704553D01*
X45199048Y32704816D01*
X45184709Y32752006D01*
X45184694Y32752057D01*
X45171947Y32794697D01*
X45171939Y32794723D01*
X45171926Y32794766D01*
X45159153Y32834321D01*
X45155402Y32844177D01*
X45144895Y32871785D01*
X45144890Y32871797D01*
X45144813Y32871999D01*
X45127329Y32909132D01*
X45105125Y32947048D01*
X45076623Y32987079D01*
X45040247Y33030554D01*
X45002271Y33070537D01*
X44999059Y33078893D01*
X45002482Y33086865D01*
X45163134Y33247517D01*
X45171407Y33250944D01*
X45179464Y33247727D01*
G37*
%TD.AperFunction*%
%TD*%
%TA.AperFunction,Conductor*%
%TO.N,col_3*%
G36*
X45262240Y49342563D02*
G01*
X45265828Y49333901D01*
X45258614Y48964901D01*
X45255026Y48956697D01*
X45250581Y48954019D01*
X45205446Y48939132D01*
X45205183Y48939048D01*
X45157993Y48924709D01*
X45157942Y48924694D01*
X45115302Y48911947D01*
X45115282Y48911941D01*
X45115233Y48911926D01*
X45075678Y48899153D01*
X45065822Y48895402D01*
X45038214Y48884895D01*
X45038202Y48884890D01*
X45038000Y48884813D01*
X45000867Y48867329D01*
X45000642Y48867197D01*
X45000634Y48867193D01*
X44963188Y48845264D01*
X44962951Y48845125D01*
X44922920Y48816623D01*
X44879445Y48780247D01*
X44879312Y48780121D01*
X44879309Y48780118D01*
X44839465Y48742273D01*
X44831106Y48739060D01*
X44823134Y48742483D01*
X44662483Y48903134D01*
X44659056Y48911407D01*
X44662273Y48919465D01*
X44700118Y48959309D01*
X44700121Y48959312D01*
X44700247Y48959445D01*
X44736623Y49002920D01*
X44765125Y49042951D01*
X44787329Y49080867D01*
X44804813Y49118000D01*
X44804890Y49118202D01*
X44804895Y49118214D01*
X44819098Y49155534D01*
X44819153Y49155678D01*
X44831926Y49195233D01*
X44844709Y49237993D01*
X44859048Y49285183D01*
X44859132Y49285446D01*
X44874019Y49330581D01*
X44879865Y49337364D01*
X44884901Y49338614D01*
X45253901Y49345828D01*
X45262240Y49342563D01*
G37*
%TD.AperFunction*%
%TD*%
%TA.AperFunction,Conductor*%
%TO.N,col_3*%
G36*
X44839464Y52237727D02*
G01*
X44879445Y52199752D01*
X44922920Y52163376D01*
X44962951Y52134874D01*
X44963185Y52134737D01*
X44963188Y52134735D01*
X45000634Y52112806D01*
X45000642Y52112802D01*
X45000867Y52112670D01*
X45038000Y52095186D01*
X45038202Y52095109D01*
X45038214Y52095104D01*
X45065822Y52084597D01*
X45075678Y52080846D01*
X45115233Y52068073D01*
X45115282Y52068058D01*
X45115302Y52068052D01*
X45157942Y52055305D01*
X45157993Y52055290D01*
X45205183Y52040951D01*
X45205446Y52040867D01*
X45250581Y52025981D01*
X45257364Y52020136D01*
X45258614Y52015099D01*
X45265828Y51646099D01*
X45262563Y51637760D01*
X45253901Y51634172D01*
X44884901Y51641386D01*
X44876697Y51644974D01*
X44874019Y51649419D01*
X44859132Y51694553D01*
X44859048Y51694816D01*
X44844709Y51742006D01*
X44844694Y51742057D01*
X44831947Y51784697D01*
X44831939Y51784723D01*
X44831926Y51784766D01*
X44819153Y51824321D01*
X44815402Y51834177D01*
X44804895Y51861785D01*
X44804890Y51861797D01*
X44804813Y51861999D01*
X44787329Y51899132D01*
X44765125Y51937048D01*
X44736623Y51977079D01*
X44700247Y52020554D01*
X44662271Y52060537D01*
X44659059Y52068893D01*
X44662482Y52076865D01*
X44823134Y52237517D01*
X44831407Y52240944D01*
X44839464Y52237727D01*
G37*
%TD.AperFunction*%
%TD*%
%TA.AperFunction,Conductor*%
%TO.N,col_2*%
G36*
X26508433Y18391231D02*
G01*
X26764255Y18125208D01*
X26767520Y18116869D01*
X26766270Y18111833D01*
X26744880Y18069388D01*
X26744753Y18069142D01*
X26721525Y18025638D01*
X26700328Y17986362D01*
X26681391Y17949360D01*
X26664888Y17912578D01*
X26650994Y17873958D01*
X26639883Y17831446D01*
X26631731Y17782986D01*
X26626711Y17726522D01*
X26626706Y17726339D01*
X26626706Y17726334D01*
X26625293Y17671399D01*
X26621655Y17663217D01*
X26613597Y17660000D01*
X26386403Y17660000D01*
X26378130Y17663427D01*
X26374707Y17671399D01*
X26373293Y17726334D01*
X26373293Y17726339D01*
X26373288Y17726522D01*
X26368268Y17782986D01*
X26360116Y17831446D01*
X26349005Y17873958D01*
X26335111Y17912578D01*
X26318608Y17949360D01*
X26299671Y17986362D01*
X26278474Y18025638D01*
X26255246Y18069142D01*
X26255119Y18069388D01*
X26233730Y18111833D01*
X26233067Y18120763D01*
X26235745Y18125208D01*
X26491567Y18391231D01*
X26499771Y18394819D01*
X26508433Y18391231D01*
G37*
%TD.AperFunction*%
%TD*%
%TA.AperFunction,Conductor*%
%TO.N,col_2*%
G36*
X26179464Y21247727D02*
G01*
X26219445Y21209752D01*
X26262920Y21173376D01*
X26302951Y21144874D01*
X26303185Y21144737D01*
X26303188Y21144735D01*
X26340634Y21122806D01*
X26340642Y21122802D01*
X26340867Y21122670D01*
X26378000Y21105186D01*
X26378202Y21105109D01*
X26378214Y21105104D01*
X26405822Y21094597D01*
X26415678Y21090846D01*
X26455233Y21078073D01*
X26455282Y21078058D01*
X26455302Y21078052D01*
X26497942Y21065305D01*
X26497993Y21065290D01*
X26545183Y21050951D01*
X26545446Y21050867D01*
X26590581Y21035981D01*
X26597364Y21030136D01*
X26598614Y21025099D01*
X26605828Y20656099D01*
X26602563Y20647760D01*
X26593901Y20644172D01*
X26224901Y20651386D01*
X26216697Y20654974D01*
X26214019Y20659419D01*
X26199132Y20704553D01*
X26199048Y20704816D01*
X26184709Y20752006D01*
X26184694Y20752057D01*
X26171947Y20794697D01*
X26171939Y20794723D01*
X26171926Y20794766D01*
X26159153Y20834321D01*
X26155402Y20844177D01*
X26144895Y20871785D01*
X26144890Y20871797D01*
X26144813Y20871999D01*
X26127329Y20909132D01*
X26105125Y20947048D01*
X26076623Y20987079D01*
X26040247Y21030554D01*
X26002271Y21070537D01*
X25999059Y21078893D01*
X26002482Y21086865D01*
X26163134Y21247517D01*
X26171407Y21250944D01*
X26179464Y21247727D01*
G37*
%TD.AperFunction*%
%TD*%
%TA.AperFunction,Conductor*%
%TO.N,col_2*%
G36*
X26508433Y37391231D02*
G01*
X26764255Y37125208D01*
X26767520Y37116869D01*
X26766270Y37111833D01*
X26744880Y37069388D01*
X26744753Y37069142D01*
X26721525Y37025638D01*
X26700328Y36986362D01*
X26681391Y36949360D01*
X26664888Y36912578D01*
X26650994Y36873958D01*
X26639883Y36831446D01*
X26631731Y36782986D01*
X26626711Y36726522D01*
X26626706Y36726339D01*
X26626706Y36726334D01*
X26625293Y36671399D01*
X26621655Y36663217D01*
X26613597Y36660000D01*
X26386403Y36660000D01*
X26378130Y36663427D01*
X26374707Y36671399D01*
X26373293Y36726334D01*
X26373293Y36726339D01*
X26373288Y36726522D01*
X26368268Y36782986D01*
X26360116Y36831446D01*
X26349005Y36873958D01*
X26335111Y36912578D01*
X26318608Y36949360D01*
X26299671Y36986362D01*
X26278474Y37025638D01*
X26255246Y37069142D01*
X26255119Y37069388D01*
X26233730Y37111833D01*
X26233067Y37120763D01*
X26235745Y37125208D01*
X26491567Y37391231D01*
X26499771Y37394819D01*
X26508433Y37391231D01*
G37*
%TD.AperFunction*%
%TD*%
%TA.AperFunction,Conductor*%
%TO.N,col_2*%
G36*
X26179464Y40247727D02*
G01*
X26219445Y40209752D01*
X26262920Y40173376D01*
X26302951Y40144874D01*
X26303185Y40144737D01*
X26303188Y40144735D01*
X26340634Y40122806D01*
X26340642Y40122802D01*
X26340867Y40122670D01*
X26378000Y40105186D01*
X26378202Y40105109D01*
X26378214Y40105104D01*
X26405822Y40094597D01*
X26415678Y40090846D01*
X26455233Y40078073D01*
X26455282Y40078058D01*
X26455302Y40078052D01*
X26497942Y40065305D01*
X26497993Y40065290D01*
X26545183Y40050951D01*
X26545446Y40050867D01*
X26590581Y40035981D01*
X26597364Y40030136D01*
X26598614Y40025099D01*
X26605828Y39656099D01*
X26602563Y39647760D01*
X26593901Y39644172D01*
X26224901Y39651386D01*
X26216697Y39654974D01*
X26214019Y39659419D01*
X26199132Y39704553D01*
X26199048Y39704816D01*
X26184709Y39752006D01*
X26184694Y39752057D01*
X26171947Y39794697D01*
X26171939Y39794723D01*
X26171926Y39794766D01*
X26159153Y39834321D01*
X26155402Y39844177D01*
X26144895Y39871785D01*
X26144890Y39871797D01*
X26144813Y39871999D01*
X26127329Y39909132D01*
X26105125Y39947048D01*
X26076623Y39987079D01*
X26040247Y40030554D01*
X26002271Y40070537D01*
X25999059Y40078893D01*
X26002482Y40086865D01*
X26163134Y40247517D01*
X26171407Y40250944D01*
X26179464Y40247727D01*
G37*
%TD.AperFunction*%
%TD*%
%TA.AperFunction,Conductor*%
%TO.N,col_1*%
G36*
X7602240Y16352563D02*
G01*
X7605828Y16343901D01*
X7598614Y15974901D01*
X7595026Y15966697D01*
X7590581Y15964019D01*
X7545446Y15949132D01*
X7545183Y15949048D01*
X7497993Y15934709D01*
X7497942Y15934694D01*
X7455302Y15921947D01*
X7455282Y15921941D01*
X7455233Y15921926D01*
X7415678Y15909153D01*
X7405822Y15905402D01*
X7378214Y15894895D01*
X7378202Y15894890D01*
X7378000Y15894813D01*
X7340867Y15877329D01*
X7340642Y15877197D01*
X7340634Y15877193D01*
X7303188Y15855264D01*
X7302951Y15855125D01*
X7262920Y15826623D01*
X7219445Y15790247D01*
X7219312Y15790121D01*
X7219309Y15790118D01*
X7179465Y15752273D01*
X7171106Y15749060D01*
X7163134Y15752483D01*
X7002483Y15913134D01*
X6999056Y15921407D01*
X7002273Y15929465D01*
X7040118Y15969309D01*
X7040121Y15969312D01*
X7040247Y15969445D01*
X7076623Y16012920D01*
X7105125Y16052951D01*
X7127329Y16090867D01*
X7144813Y16128000D01*
X7144890Y16128202D01*
X7144895Y16128214D01*
X7159098Y16165534D01*
X7159153Y16165678D01*
X7171926Y16205233D01*
X7184709Y16247993D01*
X7199048Y16295183D01*
X7199132Y16295446D01*
X7214019Y16340581D01*
X7219865Y16347364D01*
X7224901Y16348614D01*
X7593901Y16355828D01*
X7602240Y16352563D01*
G37*
%TD.AperFunction*%
%TD*%
%TA.AperFunction,Conductor*%
%TO.N,col_1*%
G36*
X7179464Y19247727D02*
G01*
X7219445Y19209752D01*
X7262920Y19173376D01*
X7302951Y19144874D01*
X7303185Y19144737D01*
X7303188Y19144735D01*
X7340634Y19122806D01*
X7340642Y19122802D01*
X7340867Y19122670D01*
X7378000Y19105186D01*
X7378202Y19105109D01*
X7378214Y19105104D01*
X7405822Y19094597D01*
X7415678Y19090846D01*
X7455233Y19078073D01*
X7455282Y19078058D01*
X7455302Y19078052D01*
X7497942Y19065305D01*
X7497993Y19065290D01*
X7545183Y19050951D01*
X7545446Y19050867D01*
X7590581Y19035981D01*
X7597364Y19030136D01*
X7598614Y19025099D01*
X7605828Y18656099D01*
X7602563Y18647760D01*
X7593901Y18644172D01*
X7224901Y18651386D01*
X7216697Y18654974D01*
X7214019Y18659419D01*
X7199132Y18704553D01*
X7199048Y18704816D01*
X7184709Y18752006D01*
X7184694Y18752057D01*
X7171947Y18794697D01*
X7171939Y18794723D01*
X7171926Y18794766D01*
X7159153Y18834321D01*
X7155402Y18844177D01*
X7144895Y18871785D01*
X7144890Y18871797D01*
X7144813Y18871999D01*
X7127329Y18909132D01*
X7105125Y18947048D01*
X7076623Y18987079D01*
X7040247Y19030554D01*
X7002271Y19070537D01*
X6999059Y19078893D01*
X7002482Y19086865D01*
X7163134Y19247517D01*
X7171407Y19250944D01*
X7179464Y19247727D01*
G37*
%TD.AperFunction*%
%TD*%
%TA.AperFunction,Conductor*%
%TO.N,col_1*%
G36*
X7602240Y35352563D02*
G01*
X7605828Y35343901D01*
X7598614Y34974901D01*
X7595026Y34966697D01*
X7590581Y34964019D01*
X7545446Y34949132D01*
X7545183Y34949048D01*
X7497993Y34934709D01*
X7497942Y34934694D01*
X7455302Y34921947D01*
X7455282Y34921941D01*
X7455233Y34921926D01*
X7415678Y34909153D01*
X7405822Y34905402D01*
X7378214Y34894895D01*
X7378202Y34894890D01*
X7378000Y34894813D01*
X7340867Y34877329D01*
X7340642Y34877197D01*
X7340634Y34877193D01*
X7303188Y34855264D01*
X7302951Y34855125D01*
X7262920Y34826623D01*
X7219445Y34790247D01*
X7219312Y34790121D01*
X7219309Y34790118D01*
X7179465Y34752273D01*
X7171106Y34749060D01*
X7163134Y34752483D01*
X7002483Y34913134D01*
X6999056Y34921407D01*
X7002273Y34929465D01*
X7040118Y34969309D01*
X7040121Y34969312D01*
X7040247Y34969445D01*
X7076623Y35012920D01*
X7105125Y35052951D01*
X7127329Y35090867D01*
X7144813Y35128000D01*
X7144890Y35128202D01*
X7144895Y35128214D01*
X7159098Y35165534D01*
X7159153Y35165678D01*
X7171926Y35205233D01*
X7184709Y35247993D01*
X7199048Y35295183D01*
X7199132Y35295446D01*
X7214019Y35340581D01*
X7219865Y35347364D01*
X7224901Y35348614D01*
X7593901Y35355828D01*
X7602240Y35352563D01*
G37*
%TD.AperFunction*%
%TD*%
%TA.AperFunction,Conductor*%
%TO.N,col_1*%
G36*
X7179464Y38247727D02*
G01*
X7219445Y38209752D01*
X7262920Y38173376D01*
X7302951Y38144874D01*
X7303185Y38144737D01*
X7303188Y38144735D01*
X7340634Y38122806D01*
X7340642Y38122802D01*
X7340867Y38122670D01*
X7378000Y38105186D01*
X7378202Y38105109D01*
X7378214Y38105104D01*
X7405822Y38094597D01*
X7415678Y38090846D01*
X7455233Y38078073D01*
X7455282Y38078058D01*
X7455302Y38078052D01*
X7497942Y38065305D01*
X7497993Y38065290D01*
X7545183Y38050951D01*
X7545446Y38050867D01*
X7590581Y38035981D01*
X7597364Y38030136D01*
X7598614Y38025099D01*
X7605828Y37656099D01*
X7602563Y37647760D01*
X7593901Y37644172D01*
X7224901Y37651386D01*
X7216697Y37654974D01*
X7214019Y37659419D01*
X7199132Y37704553D01*
X7199048Y37704816D01*
X7184709Y37752006D01*
X7184694Y37752057D01*
X7171947Y37794697D01*
X7171939Y37794723D01*
X7171926Y37794766D01*
X7159153Y37834321D01*
X7155402Y37844177D01*
X7144895Y37871785D01*
X7144890Y37871797D01*
X7144813Y37871999D01*
X7127329Y37909132D01*
X7105125Y37947048D01*
X7076623Y37987079D01*
X7040247Y38030554D01*
X7002271Y38070537D01*
X6999059Y38078893D01*
X7002482Y38086865D01*
X7163134Y38247517D01*
X7171407Y38250944D01*
X7179464Y38247727D01*
G37*
%TD.AperFunction*%
%TD*%
%TA.AperFunction,Conductor*%
%TO.N,col_1*%
G36*
X336866Y44997517D02*
G01*
X497517Y44836866D01*
X500944Y44828593D01*
X497727Y44820535D01*
X459752Y44780554D01*
X423376Y44737079D01*
X394874Y44697048D01*
X372670Y44659132D01*
X355186Y44621999D01*
X355109Y44621797D01*
X355104Y44621785D01*
X344597Y44594177D01*
X340846Y44584321D01*
X328073Y44544766D01*
X328060Y44544723D01*
X328052Y44544697D01*
X315305Y44502057D01*
X315290Y44502006D01*
X300951Y44454816D01*
X300867Y44454553D01*
X285981Y44409419D01*
X280136Y44402636D01*
X275099Y44401386D01*
X-93901Y44394172D01*
X-102240Y44397437D01*
X-105828Y44406099D01*
X-98614Y44775099D01*
X-95026Y44783303D01*
X-90581Y44785981D01*
X-45446Y44800867D01*
X-45183Y44800951D01*
X2006Y44815290D01*
X2057Y44815305D01*
X44697Y44828052D01*
X44717Y44828058D01*
X44766Y44828073D01*
X84321Y44840846D01*
X94177Y44844597D01*
X121785Y44855104D01*
X121797Y44855109D01*
X121999Y44855186D01*
X159132Y44872670D01*
X159357Y44872802D01*
X159365Y44872806D01*
X196811Y44894735D01*
X196814Y44894737D01*
X197048Y44894874D01*
X237079Y44923376D01*
X280554Y44959752D01*
X320535Y44997727D01*
X328894Y45000940D01*
X336866Y44997517D01*
G37*
%TD.AperFunction*%
%TD*%
%TA.AperFunction,Conductor*%
%TO.N,outer_top*%
G36*
X2903178Y35816426D02*
G01*
X3090099Y35666620D01*
X3094412Y35658772D01*
X3091619Y35649822D01*
X2934645Y35468925D01*
X2926634Y35464922D01*
X2921860Y35465579D01*
X2896192Y35474780D01*
X2896190Y35474781D01*
X2896097Y35474814D01*
X2865656Y35484323D01*
X2865534Y35484354D01*
X2865528Y35484356D01*
X2837101Y35491643D01*
X2837096Y35491644D01*
X2836956Y35491680D01*
X2808883Y35497161D01*
X2808715Y35497184D01*
X2808702Y35497186D01*
X2788923Y35499873D01*
X2780319Y35501042D01*
X2780167Y35501055D01*
X2780157Y35501056D01*
X2767173Y35502156D01*
X2750150Y35503598D01*
X2717259Y35505106D01*
X2717201Y35505107D01*
X2717178Y35505108D01*
X2680531Y35505841D01*
X2638849Y35506080D01*
X2602793Y35506094D01*
X2594523Y35509524D01*
X2591099Y35517794D01*
X2591099Y35744461D01*
X2594526Y35752734D01*
X2602736Y35756161D01*
X2635008Y35756332D01*
X2673521Y35757219D01*
X2707550Y35759039D01*
X2738009Y35762073D01*
X2765812Y35766599D01*
X2791872Y35772897D01*
X2799435Y35775400D01*
X2816881Y35781174D01*
X2816892Y35781178D01*
X2817103Y35781248D01*
X2842418Y35791931D01*
X2842601Y35792024D01*
X2842613Y35792029D01*
X2868597Y35805158D01*
X2868732Y35805226D01*
X2890041Y35817446D01*
X2898922Y35818588D01*
X2903178Y35816426D01*
G37*
%TD.AperFunction*%
%TD*%
M02*
