%TF.GenerationSoftware,KiCad,Pcbnew,(6.0.9)*%
%TF.CreationDate,2023-04-16T18:35:51+02:00*%
%TF.ProjectId,iteMX_pcb,6974654d-585f-4706-9362-2e6b69636164,v1.0.0*%
%TF.SameCoordinates,Original*%
%TF.FileFunction,Legend,Top*%
%TF.FilePolarity,Positive*%
%FSLAX46Y46*%
G04 Gerber Fmt 4.6, Leading zero omitted, Abs format (unit mm)*
G04 Created by KiCad (PCBNEW (6.0.9)) date 2023-04-16 18:35:51*
%MOMM*%
%LPD*%
G01*
G04 APERTURE LIST*
%ADD10C,0.150000*%
%ADD11C,0.100000*%
%ADD12C,0.127000*%
G04 APERTURE END LIST*
D10*
%TO.C,*%
%TO.C,REF\u002A\u002A*%
X112146666Y44420000D02*
X111613333Y44420000D01*
X119666666Y43680000D02*
X119133333Y43680000D01*
X119400000Y43413333D02*
X119400000Y43946666D01*
X119706666Y44450000D02*
X119173333Y44450000D01*
X112176666Y43670000D02*
X111643333Y43670000D01*
X111910000Y43403333D02*
X111910000Y43936666D01*
%TO.C,*%
D11*
%TO.C,D19*%
X42819486Y-14547596D02*
X42773076Y-15267211D01*
X42126666Y-14947596D02*
X42819486Y-14547596D01*
X42973076Y-15613621D02*
X42773076Y-15267211D01*
X42773076Y-15267211D02*
X43249390Y-14992211D01*
X42473076Y-14747596D02*
X42223076Y-14314583D01*
X42773076Y-15267211D02*
X42296762Y-15542211D01*
X42773076Y-15267211D02*
X42126666Y-14947596D01*
%TO.C,D18*%
X98000000Y42250000D02*
X98000000Y42650000D01*
X98000000Y43250000D02*
X98000000Y43750000D01*
X98000000Y42650000D02*
X97600000Y43250000D01*
X98000000Y42650000D02*
X97450000Y42650000D01*
X97600000Y43250000D02*
X98400000Y43250000D01*
X98000000Y42650000D02*
X98550000Y42650000D01*
X98400000Y43250000D02*
X98000000Y42650000D01*
%TO.C,D15*%
X79000000Y45650000D02*
X78450000Y45650000D01*
X79000000Y46250000D02*
X79000000Y46750000D01*
X79000000Y45650000D02*
X78600000Y46250000D01*
X79000000Y45250000D02*
X79000000Y45650000D01*
X79000000Y45650000D02*
X79550000Y45650000D01*
X79400000Y46250000D02*
X79000000Y45650000D01*
X78600000Y46250000D02*
X79400000Y46250000D01*
%TO.C,D10*%
X59600000Y16250000D02*
X60400000Y16250000D01*
X60000000Y16250000D02*
X60000000Y16750000D01*
X60400000Y16250000D02*
X60000000Y15650000D01*
X60000000Y15250000D02*
X60000000Y15650000D01*
X60000000Y15650000D02*
X59600000Y16250000D01*
X60000000Y15650000D02*
X59450000Y15650000D01*
X60000000Y15650000D02*
X60550000Y15650000D01*
%TO.C,D20*%
X60000000Y-4850000D02*
X60550000Y-4850000D01*
X60000000Y-4850000D02*
X59450000Y-4850000D01*
X60000000Y-4850000D02*
X59600000Y-4250000D01*
X60000000Y-5250000D02*
X60000000Y-4850000D01*
X59600000Y-4250000D02*
X60400000Y-4250000D01*
X60000000Y-4250000D02*
X60000000Y-3750000D01*
X60400000Y-4250000D02*
X60000000Y-4850000D01*
D10*
%TO.C,REF\u002A\u002A*%
X109280000Y51662000D02*
X109280000Y49122000D01*
D12*
X124550000Y32300000D02*
X124550000Y53300000D01*
X124550000Y53300000D02*
X106750000Y53300000D01*
X106750000Y53300000D02*
X106750000Y32300000D01*
X106750000Y32300000D02*
X124550000Y32300000D01*
D10*
X109280000Y51662000D02*
X106740000Y51662000D01*
X109280000Y49122000D02*
X106740000Y49122000D01*
D11*
%TO.C,D3*%
X2600000Y34250000D02*
X3400000Y34250000D01*
X3400000Y34250000D02*
X3000000Y33650000D01*
X3000000Y33650000D02*
X2600000Y34250000D01*
X3000000Y34250000D02*
X3000000Y34750000D01*
X3000000Y33650000D02*
X2450000Y33650000D01*
X3000000Y33250000D02*
X3000000Y33650000D01*
X3000000Y33650000D02*
X3550000Y33650000D01*
%TO.C,D1*%
X3000000Y-3750000D02*
X3000000Y-3250000D01*
X3000000Y-4350000D02*
X2450000Y-4350000D01*
X3000000Y-4350000D02*
X2600000Y-3750000D01*
X3000000Y-4750000D02*
X3000000Y-4350000D01*
X3400000Y-3750000D02*
X3000000Y-4350000D01*
X3000000Y-4350000D02*
X3550000Y-4350000D01*
X2600000Y-3750000D02*
X3400000Y-3750000D01*
%TO.C,D9*%
X41000000Y47650000D02*
X40450000Y47650000D01*
X41000000Y47250000D02*
X41000000Y47650000D01*
X41400000Y48250000D02*
X41000000Y47650000D01*
X41000000Y47650000D02*
X40600000Y48250000D01*
X41000000Y47650000D02*
X41550000Y47650000D01*
X40600000Y48250000D02*
X41400000Y48250000D01*
X41000000Y48250000D02*
X41000000Y48750000D01*
%TO.C,D8*%
X40600000Y29250000D02*
X41400000Y29250000D01*
X41400000Y29250000D02*
X41000000Y28650000D01*
X41000000Y28250000D02*
X41000000Y28650000D01*
X41000000Y28650000D02*
X40600000Y29250000D01*
X41000000Y28650000D02*
X40450000Y28650000D01*
X41000000Y28650000D02*
X41550000Y28650000D01*
X41000000Y29250000D02*
X41000000Y29750000D01*
%TO.C,D13*%
X79000000Y7250000D02*
X79000000Y7650000D01*
X79000000Y7650000D02*
X78450000Y7650000D01*
X79000000Y8250000D02*
X79000000Y8750000D01*
X78600000Y8250000D02*
X79400000Y8250000D01*
X79000000Y7650000D02*
X79550000Y7650000D01*
X79000000Y7650000D02*
X78600000Y8250000D01*
X79400000Y8250000D02*
X79000000Y7650000D01*
%TO.C,REF\u002A\u002A*%
X77948637Y64014854D02*
X81175158Y62658549D01*
X76778749Y61360826D02*
X80051363Y59985146D01*
%TO.C,D23*%
X117000000Y-25350000D02*
X116450000Y-25350000D01*
X117000000Y-25350000D02*
X117550000Y-25350000D01*
X116600000Y-24750000D02*
X117400000Y-24750000D01*
X117000000Y-25750000D02*
X117000000Y-25350000D01*
X117400000Y-24750000D02*
X117000000Y-25350000D01*
X117000000Y-25350000D02*
X116600000Y-24750000D01*
X117000000Y-24750000D02*
X117000000Y-24250000D01*
%TO.C,D5*%
X22000000Y16650000D02*
X21450000Y16650000D01*
X22400000Y17250000D02*
X22000000Y16650000D01*
X22000000Y16250000D02*
X22000000Y16650000D01*
X21600000Y17250000D02*
X22400000Y17250000D01*
X22000000Y16650000D02*
X21600000Y17250000D01*
X22000000Y17250000D02*
X22000000Y17750000D01*
X22000000Y16650000D02*
X22550000Y16650000D01*
%TO.C,D12*%
X60000000Y53650000D02*
X59450000Y53650000D01*
X60400000Y54250000D02*
X60000000Y53650000D01*
X59600000Y54250000D02*
X60400000Y54250000D01*
X60000000Y53250000D02*
X60000000Y53650000D01*
X60000000Y54250000D02*
X60000000Y54750000D01*
X60000000Y53650000D02*
X59600000Y54250000D01*
X60000000Y53650000D02*
X60550000Y53650000D01*
%TO.C,D21*%
X79000000Y-9750000D02*
X79000000Y-9350000D01*
X79000000Y-8750000D02*
X79000000Y-8250000D01*
X78600000Y-8750000D02*
X79400000Y-8750000D01*
X79000000Y-9350000D02*
X78600000Y-8750000D01*
X79400000Y-8750000D02*
X79000000Y-9350000D01*
X79000000Y-9350000D02*
X78450000Y-9350000D01*
X79000000Y-9350000D02*
X79550000Y-9350000D01*
%TO.C,D17*%
X98000000Y23250000D02*
X98000000Y23650000D01*
X97600000Y24250000D02*
X98400000Y24250000D01*
X98000000Y24250000D02*
X98000000Y24750000D01*
X98000000Y23650000D02*
X97600000Y24250000D01*
X98000000Y23650000D02*
X98550000Y23650000D01*
X98000000Y23650000D02*
X97450000Y23650000D01*
X98400000Y24250000D02*
X98000000Y23650000D01*
%TO.C,D16*%
X98000000Y4650000D02*
X97450000Y4650000D01*
X98000000Y5250000D02*
X98000000Y5750000D01*
X98000000Y4250000D02*
X98000000Y4650000D01*
X98400000Y5250000D02*
X98000000Y4650000D01*
X98000000Y4650000D02*
X97600000Y5250000D01*
X98000000Y4650000D02*
X98550000Y4650000D01*
X97600000Y5250000D02*
X98400000Y5250000D01*
%TO.C,D11*%
X60000000Y34650000D02*
X59450000Y34650000D01*
X60000000Y34250000D02*
X60000000Y34650000D01*
X60000000Y34650000D02*
X59600000Y35250000D01*
X60000000Y35250000D02*
X60000000Y35750000D01*
X60000000Y34650000D02*
X60550000Y34650000D01*
X60400000Y35250000D02*
X60000000Y34650000D01*
X59600000Y35250000D02*
X60400000Y35250000D01*
%TO.C,D14*%
X79000000Y26650000D02*
X78450000Y26650000D01*
X79000000Y27250000D02*
X79000000Y27750000D01*
X79000000Y26650000D02*
X79550000Y26650000D01*
X79000000Y26650000D02*
X78600000Y27250000D01*
X78600000Y27250000D02*
X79400000Y27250000D01*
X79000000Y26250000D02*
X79000000Y26650000D01*
X79400000Y27250000D02*
X79000000Y26650000D01*
%TO.C,D4*%
X22000000Y-2350000D02*
X22550000Y-2350000D01*
X22000000Y-2350000D02*
X21600000Y-1750000D01*
X22400000Y-1750000D02*
X22000000Y-2350000D01*
X22000000Y-2350000D02*
X21450000Y-2350000D01*
X22000000Y-1750000D02*
X22000000Y-1250000D01*
X22000000Y-2750000D02*
X22000000Y-2350000D01*
X21600000Y-1750000D02*
X22400000Y-1750000D01*
%TO.C,D7*%
X41000000Y9650000D02*
X40450000Y9650000D01*
X41000000Y9250000D02*
X41000000Y9650000D01*
X41000000Y9650000D02*
X41550000Y9650000D01*
X41000000Y10250000D02*
X41000000Y10750000D01*
X41400000Y10250000D02*
X41000000Y9650000D01*
X41000000Y9650000D02*
X40600000Y10250000D01*
X40600000Y10250000D02*
X41400000Y10250000D01*
%TO.C,D2*%
X3400000Y15250000D02*
X3000000Y14650000D01*
X3000000Y14650000D02*
X3550000Y14650000D01*
X3000000Y14650000D02*
X2600000Y15250000D01*
X3000000Y15250000D02*
X3000000Y15750000D01*
X3000000Y14250000D02*
X3000000Y14650000D01*
X3000000Y14650000D02*
X2450000Y14650000D01*
X2600000Y15250000D02*
X3400000Y15250000D01*
%TO.C,D6*%
X22000000Y36250000D02*
X22000000Y36750000D01*
X22400000Y36250000D02*
X22000000Y35650000D01*
X22000000Y35650000D02*
X21450000Y35650000D01*
X21600000Y36250000D02*
X22400000Y36250000D01*
X22000000Y35250000D02*
X22000000Y35650000D01*
X22000000Y35650000D02*
X21600000Y36250000D01*
X22000000Y35650000D02*
X22550000Y35650000D01*
%TO.C,D22*%
X98000000Y-17350000D02*
X97450000Y-17350000D01*
X98000000Y-16750000D02*
X98000000Y-16250000D01*
X98000000Y-17350000D02*
X98550000Y-17350000D01*
X97600000Y-16750000D02*
X98400000Y-16750000D01*
X98000000Y-17750000D02*
X98000000Y-17350000D01*
X98400000Y-16750000D02*
X98000000Y-17350000D01*
X98000000Y-17350000D02*
X97600000Y-16750000D01*
%TD*%
M02*
